<svg width="266" height="180" viewBox="0 0 266 180" fill="none" xmlns="http://www.w3.org/2000/svg">
<g clip-path="url(#clip0_1133_2844)">
<path d="M37.9961 106.286C47.3051 106.286 54.8515 99.5925 54.8515 91.3358C54.8515 83.0791 47.3051 76.3857 37.9961 76.3857C28.6871 76.3857 21.1406 83.0791 21.1406 91.3358C21.1406 99.5925 28.6871 106.286 37.9961 106.286Z" fill="#FF6584"/>
<path d="M72.5145 175.78H72.4974C71.9039 175.78 71.3349 175.571 70.9152 175.198C70.4955 174.826 70.2595 174.321 70.2588 173.795V57.2309C70.2595 56.7044 70.4955 56.1997 70.9152 55.8275C71.3349 55.4553 71.9039 55.2459 72.4974 55.2453H183.111C183.705 55.2459 184.274 55.4553 184.693 55.8275C185.113 56.1997 185.349 56.7044 185.35 57.2309V147.866C185.349 148.39 185.116 148.892 184.7 149.264C184.284 149.636 183.719 149.847 183.129 149.851L72.5145 175.78Z" fill="#F2F2F2"/>
<path d="M154.272 38.7768H102.916V12.3806C102.917 11.8232 103.167 11.2888 103.611 10.8947C104.055 10.5005 104.658 10.2788 105.286 10.2782H151.902C152.531 10.2788 153.133 10.5005 153.577 10.8947C154.022 11.2888 154.272 11.8232 154.272 12.3806V38.7768ZM103.443 38.3096H153.746V12.3806C153.745 11.947 153.551 11.5314 153.205 11.2249C152.86 10.9183 152.391 10.7459 151.902 10.7454H105.286C104.798 10.7459 104.329 10.9183 103.983 11.2249C103.638 11.5314 103.443 11.947 103.443 12.3806V38.3096Z" fill="#3F3D56"/>
<path d="M117.533 20.3228H139.655C140.214 20.3228 140.75 20.5197 141.145 20.8702C141.54 21.2206 141.762 21.696 141.762 22.1916V50.223H115.426V22.1916C115.426 21.696 115.648 21.2206 116.043 20.8702C116.438 20.5197 116.974 20.3228 117.533 20.3228Z" fill="#E6E6E6"/>
<path d="M121.879 10.7454H111.081V1.16798C111.081 0.858319 111.22 0.561445 111.467 0.342484C111.714 0.123522 112.048 0.000354259 112.397 0H120.562C120.911 0.000354259 121.246 0.123522 121.492 0.342484C121.739 0.561445 121.878 0.858319 121.879 1.16798V10.7454ZM111.607 10.2782H121.352V1.16798C121.352 0.982179 121.268 0.804049 121.12 0.67267C120.972 0.541291 120.771 0.467393 120.562 0.467191H112.397C112.188 0.467393 111.987 0.541291 111.839 0.67267C111.691 0.804049 111.608 0.982179 111.607 1.16798V10.2782Z" fill="#3F3D56"/>
<path d="M210.609 151.566C210.504 151.566 210.402 151.566 210.297 151.564C203.781 151.5 197.516 149.328 192.679 145.456C192.5 145.311 192.323 145.165 192.147 145.017L192.065 144.948V100.179L192.091 100.131C192.265 99.8036 192.442 99.4805 192.619 99.1573C198.097 89.2927 204.486 83.8607 210.609 83.8607C219.44 83.8607 226.288 94.6046 229.585 101.009C234.168 109.914 237.37 120.95 237.37 127.844C237.368 134.091 234.589 140.084 229.636 144.525C224.684 148.965 217.957 151.494 210.915 151.564C210.816 151.566 210.711 151.566 210.609 151.566ZM192.592 144.748C192.738 144.87 192.885 144.99 193.033 145.11C197.776 148.905 203.918 151.034 210.306 151.096C210.413 151.099 210.514 151.096 210.616 151.099C210.712 151.099 210.81 151.099 210.905 151.097C225.209 150.956 236.843 140.525 236.843 127.844C236.843 121.009 233.661 110.054 229.105 101.203C225.862 94.9006 219.145 84.3279 210.609 84.3279C204.697 84.3279 198.476 89.6673 193.092 99.3625C192.925 99.6674 192.757 99.9734 192.592 100.283L192.592 144.748Z" fill="#3F3D56"/>
<path d="M210.608 179.889C210.528 179.889 210.451 179.861 210.394 179.81C210.337 179.76 210.305 179.691 210.305 179.62V124.756C210.305 124.721 210.313 124.686 210.328 124.653C210.343 124.62 210.365 124.59 210.393 124.565C210.421 124.54 210.455 124.52 210.492 124.506C210.529 124.493 210.568 124.486 210.608 124.486C210.648 124.486 210.688 124.493 210.725 124.506C210.761 124.52 210.795 124.54 210.823 124.565C210.851 124.59 210.874 124.62 210.889 124.653C210.904 124.686 210.911 124.721 210.911 124.756V179.62C210.911 179.691 210.879 179.76 210.822 179.81C210.766 179.861 210.689 179.889 210.608 179.889Z" fill="#CCCCCC"/>
<path d="M53.3782 179.889C53.2978 179.889 53.2208 179.861 53.1639 179.81C53.1071 179.76 53.0752 179.691 53.0752 179.62V124.756C53.075 124.721 53.0826 124.686 53.0977 124.653C53.1129 124.62 53.1352 124.59 53.1633 124.565C53.1915 124.54 53.225 124.52 53.2618 124.506C53.2987 124.493 53.3383 124.486 53.3782 124.486C53.4181 124.486 53.4577 124.493 53.4946 124.506C53.5314 124.52 53.5649 124.54 53.5931 124.565C53.6213 124.59 53.6435 124.62 53.6587 124.653C53.6738 124.686 53.6814 124.721 53.6812 124.756V179.62C53.6812 179.691 53.6493 179.76 53.5925 179.81C53.5356 179.861 53.4586 179.889 53.3782 179.889Z" fill="#CCCCCC"/>
<path d="M210.608 135.007C210.565 135.007 210.522 134.998 210.482 134.982C210.443 134.966 210.407 134.943 210.379 134.914L195.14 119.326C195.087 119.272 195.061 119.202 195.067 119.131C195.072 119.06 195.11 118.994 195.17 118.947C195.231 118.901 195.31 118.877 195.39 118.882C195.47 118.887 195.545 118.92 195.598 118.974L210.837 134.562C210.875 134.601 210.9 134.648 210.908 134.699C210.916 134.75 210.908 134.802 210.884 134.849C210.859 134.896 210.821 134.936 210.772 134.964C210.723 134.992 210.666 135.007 210.608 135.007V135.007Z" fill="#CCCCCC"/>
<path d="M210.608 144.003C210.548 144.003 210.49 143.987 210.44 143.957C210.39 143.928 210.351 143.886 210.328 143.837C210.305 143.788 210.299 143.734 210.311 143.681C210.323 143.629 210.352 143.581 210.394 143.544L219.053 135.863C219.11 135.813 219.187 135.785 219.267 135.785C219.347 135.785 219.424 135.813 219.481 135.864C219.538 135.914 219.57 135.982 219.57 136.053C219.57 136.125 219.538 136.193 219.482 136.243L210.822 143.924C210.794 143.949 210.761 143.969 210.724 143.982C210.687 143.996 210.648 144.003 210.608 144.003Z" fill="#CCCCCC"/>
<path d="M238.643 180H215.992V179.766C215.991 178.447 216.283 177.14 216.852 175.921C217.421 174.701 218.255 173.593 219.307 172.66C220.359 171.727 221.607 170.987 222.982 170.481C224.356 169.976 225.829 169.716 227.317 169.716C228.805 169.716 230.278 169.976 231.652 170.481C233.027 170.987 234.276 171.727 235.327 172.66C236.379 173.593 237.213 174.701 237.782 175.921C238.351 177.14 238.643 178.447 238.643 179.766L238.643 180ZM216.522 179.533H238.113C238.044 177.034 236.876 174.657 234.859 172.912C232.842 171.166 230.136 170.188 227.317 170.188C224.499 170.188 221.792 171.166 219.775 172.912C217.758 174.657 216.59 177.034 216.522 179.533H216.522Z" fill="#3F3D56"/>
<path d="M227.317 174.065C227.238 174.065 227.162 174.093 227.105 174.143C227.049 174.192 227.018 174.26 227.018 174.33V177.147L223.924 174.792C223.894 174.769 223.86 174.752 223.822 174.741C223.785 174.73 223.746 174.726 223.706 174.728C223.667 174.731 223.629 174.74 223.594 174.756C223.559 174.772 223.527 174.794 223.502 174.82C223.476 174.846 223.457 174.877 223.444 174.91C223.432 174.943 223.428 174.978 223.431 175.013C223.434 175.048 223.444 175.082 223.462 175.113C223.48 175.144 223.505 175.172 223.534 175.194L227.018 177.846V179.501C227.018 179.536 227.025 179.571 227.04 179.603C227.055 179.635 227.077 179.665 227.105 179.689C227.133 179.714 227.166 179.734 227.202 179.747C227.239 179.76 227.278 179.767 227.317 179.767C227.356 179.767 227.395 179.76 227.432 179.747C227.468 179.734 227.501 179.714 227.529 179.689C227.556 179.665 227.578 179.635 227.593 179.603C227.608 179.571 227.616 179.536 227.616 179.501V174.33C227.616 174.26 227.584 174.192 227.528 174.143C227.472 174.093 227.396 174.065 227.317 174.065Z" fill="#3F3D56"/>
<path d="M48.7554 180H26.1045V179.766C26.1038 178.447 26.3962 177.14 26.965 175.921C27.5339 174.701 28.368 173.593 29.4197 172.66C30.4714 171.727 31.7202 170.987 33.0946 170.481C34.469 169.976 35.9422 169.716 37.4299 169.716C38.9177 169.716 40.3908 169.976 41.7652 170.481C43.1397 170.987 44.3884 171.727 45.4401 172.66C46.4919 173.593 47.326 174.701 47.8948 175.921C48.4637 177.14 48.7561 178.447 48.7554 179.766L48.7554 180ZM26.6344 179.533H48.2255C48.1567 177.034 46.9892 174.657 44.9721 172.912C42.955 171.166 40.2483 170.188 37.4299 170.188C34.6115 170.188 31.9048 171.166 29.8877 172.912C27.8707 174.657 26.7031 177.034 26.6344 179.533H26.6344Z" fill="#3F3D56"/>
<path d="M37.4302 174.065C37.3509 174.065 37.2748 174.093 37.2188 174.143C37.1627 174.192 37.1312 174.26 37.1312 174.33V177.147L34.0373 174.792C34.0075 174.769 33.9729 174.752 33.9356 174.741C33.8983 174.73 33.8588 174.726 33.8196 174.728C33.7804 174.731 33.7422 174.74 33.7071 174.756C33.672 174.772 33.6407 174.794 33.6151 174.82C33.5895 174.846 33.57 174.877 33.5578 174.91C33.5456 174.943 33.5408 174.978 33.5439 175.013C33.5469 175.048 33.5576 175.082 33.5755 175.113C33.5933 175.144 33.6179 175.172 33.6478 175.194L37.1312 177.846V179.501C37.1311 179.536 37.1387 179.571 37.1537 179.603C37.1687 179.635 37.1907 179.665 37.2184 179.689C37.2462 179.714 37.2792 179.734 37.3156 179.747C37.3519 179.76 37.3908 179.767 37.4302 179.767C37.4695 179.767 37.5085 179.76 37.5448 179.747C37.5811 179.734 37.6141 179.714 37.6419 179.689C37.6697 179.665 37.6917 179.635 37.7067 179.603C37.7216 179.571 37.7293 179.536 37.7292 179.501V174.33C37.7292 174.26 37.6977 174.192 37.6416 174.143C37.5855 174.093 37.5095 174.065 37.4302 174.065Z" fill="#3F3D56"/>
<path d="M53.6427 151.566C53.5378 151.566 53.4355 151.566 53.3306 151.564C46.2896 151.493 39.5638 148.963 34.612 144.523C29.6603 140.083 26.8818 134.09 26.8794 127.844C26.8794 120.949 30.0809 109.914 34.6649 101.009C37.9615 94.6046 44.8106 83.8607 53.6427 83.8607C57.2806 83.8607 60.9439 85.6998 64.5307 89.3271C64.7086 89.5059 64.8868 89.6901 65.0626 89.8789L65.1228 89.9437V149.274L64.9743 149.337C64.797 149.414 64.6172 149.485 64.4373 149.554C61.1321 150.852 57.5626 151.535 53.9484 151.564C53.85 151.566 53.745 151.566 53.6427 151.566ZM53.6427 84.3279C45.1052 84.3279 38.3881 94.9006 35.1441 101.203C30.5881 110.054 27.4061 121.009 27.4061 127.844C27.4061 140.523 39.0401 150.954 53.3401 151.096C53.4467 151.099 53.5461 151.1 53.6497 151.099C53.7453 151.099 53.8433 151.099 53.9388 151.097C57.4836 151.069 60.9845 150.399 64.2262 149.126C64.3505 149.078 64.4739 149.03 64.5961 148.979V90.1119C64.4436 89.9495 64.2894 89.7907 64.1352 89.6355C60.6523 86.1135 57.1223 84.3279 53.6427 84.3279Z" fill="#3F3D56"/>
<path d="M53.6418 135.007C53.5983 135.007 53.5554 134.998 53.5158 134.982C53.4763 134.966 53.4411 134.943 53.4126 134.914L38.1733 119.326C38.1208 119.272 38.0946 119.202 38.1004 119.131C38.1062 119.06 38.1435 118.994 38.2041 118.947C38.2648 118.901 38.3438 118.877 38.4239 118.882C38.5039 118.887 38.5785 118.92 38.6312 118.974L53.8706 134.562C53.9086 134.601 53.9332 134.648 53.9415 134.699C53.9498 134.75 53.9414 134.802 53.9173 134.849C53.8931 134.896 53.8544 134.936 53.8055 134.964C53.7567 134.992 53.6998 135.007 53.6418 135.007V135.007Z" fill="#CCCCCC"/>
<path d="M53.6418 144.003C53.5819 144.003 53.5233 143.987 53.4735 143.957C53.4237 143.928 53.3849 143.886 53.3619 143.837C53.339 143.788 53.333 143.734 53.3447 143.681C53.3564 143.629 53.3852 143.581 53.4276 143.544L62.0869 135.863C62.1437 135.813 62.2207 135.785 62.3009 135.785C62.3811 135.785 62.458 135.813 62.5148 135.864C62.5715 135.914 62.6034 135.982 62.6035 136.053C62.6036 136.125 62.5719 136.193 62.5153 136.243L53.8561 143.924C53.828 143.949 53.7946 143.969 53.7578 143.982C53.7211 143.996 53.6816 144.003 53.6418 144.003Z" fill="#CCCCCC"/>
<path d="M77.4379 40.6456L77.6328 40.9866C77.7192 41.1338 77.7644 41.2973 77.7645 41.4632V50.6902H86.9823V41.4632C86.9825 41.2973 87.0276 41.1338 87.114 40.9866L87.309 40.6456H77.4379ZM86.4556 41.4632V50.223H78.2912V41.4632C78.2914 41.3451 78.2755 41.2275 78.2438 41.1128H86.5031C86.4714 41.2275 86.4555 41.3451 86.4556 41.4632ZM89.026 40.6456L89.2209 40.9866C89.3073 41.1338 89.3525 41.2973 89.3526 41.4632V50.6902H98.5704V41.4632C98.5706 41.2973 98.6157 41.1338 98.7021 40.9866L98.8971 40.6456H89.026ZM98.0437 41.4632V50.223H89.8794V41.4632C89.8795 41.3451 89.8636 41.2275 89.8319 41.1128H98.0912C98.0595 41.2275 98.0436 41.3451 98.0437 41.4632ZM100.614 40.6456L100.809 40.9866C100.895 41.1338 100.941 41.2973 100.941 41.4632V50.6902H110.159V41.4632C110.159 41.2973 110.204 41.1338 110.29 40.9866L110.485 40.6456H100.614ZM109.632 41.4632V50.223H101.467V41.4632C101.468 41.3451 101.452 41.2275 101.42 41.1128H109.679C109.648 41.2275 109.632 41.3451 109.632 41.4632ZM112.202 40.6456L112.397 40.9866C112.484 41.1338 112.529 41.2973 112.529 41.4632V50.6902H121.747V41.4632C121.747 41.2973 121.792 41.1338 121.878 40.9866L122.073 40.6456H112.202ZM121.22 41.4632V50.223H113.056V41.4632C113.056 41.3451 113.04 41.2275 113.008 41.1128H121.267C121.236 41.2275 121.22 41.3451 121.22 41.4632ZM123.79 40.6456L123.985 40.9866C124.072 41.1338 124.117 41.2973 124.117 41.4632V50.6902H133.335V41.4632C133.335 41.2973 133.38 41.1338 133.466 40.9866L133.661 40.6456H123.79ZM132.808 41.4632V50.223H124.644V41.4632C124.644 41.3451 124.628 41.2275 124.596 41.1128H132.856C132.824 41.2275 132.808 41.3451 132.808 41.4632ZM135.378 40.6456L135.573 40.9866C135.66 41.1338 135.705 41.2973 135.705 41.4632V50.6902H144.923V41.4632C144.923 41.2973 144.968 41.1338 145.055 40.9866L145.25 40.6456H135.378ZM144.396 41.4632V50.223H136.232V41.4632C136.232 41.3451 136.216 41.2275 136.184 41.1128H144.444C144.412 41.2275 144.396 41.3451 144.396 41.4632ZM146.967 40.6456L147.162 40.9866C147.248 41.1338 147.293 41.2973 147.293 41.4632V50.6902H156.511V41.4632C156.511 41.2973 156.556 41.1338 156.643 40.9866L156.838 40.6456H146.967ZM155.984 41.4632V50.223H147.82V41.4632C147.82 41.3451 147.804 41.2275 147.773 41.1128H156.032C156 41.2275 155.984 41.3451 155.984 41.4632ZM158.555 40.6456L158.75 40.9866C158.836 41.1338 158.881 41.2973 158.881 41.4632V50.6902H168.099V41.4632C168.099 41.2973 168.144 41.1338 168.231 40.9866L168.426 40.6456H158.555ZM167.572 41.4632V50.223H159.408V41.4632C159.408 41.3451 159.392 41.2275 159.361 41.1128H167.62C167.588 41.2275 167.572 41.3451 167.572 41.4632ZM170.143 40.6456L170.338 40.9866C170.424 41.1338 170.469 41.2973 170.469 41.4632V50.6902H179.687V41.4632C179.687 41.2973 179.733 41.1338 179.819 40.9866L180.014 40.6456H170.143ZM179.161 41.4632V50.223H170.996V41.4632C170.996 41.3451 170.98 41.2275 170.949 41.1128H179.208C179.176 41.2275 179.16 41.3451 179.161 41.4632ZM170.143 40.6456L170.338 40.9866C170.424 41.1338 170.469 41.2973 170.469 41.4632V50.6902H179.687V41.4632C179.687 41.2973 179.733 41.1338 179.819 40.9866L180.014 40.6456H170.143ZM179.161 41.4632V50.223H170.996V41.4632C170.996 41.3451 170.98 41.2275 170.949 41.1128H179.208C179.176 41.2275 179.16 41.3451 179.161 41.4632ZM158.555 40.6456L158.75 40.9866C158.836 41.1338 158.881 41.2973 158.881 41.4632V50.6902H168.099V41.4632C168.099 41.2973 168.144 41.1338 168.231 40.9866L168.426 40.6456H158.555ZM167.572 41.4632V50.223H159.408V41.4632C159.408 41.3451 159.392 41.2275 159.361 41.1128H167.62C167.588 41.2275 167.572 41.3451 167.572 41.4632ZM146.967 40.6456L147.162 40.9866C147.248 41.1338 147.293 41.2973 147.293 41.4632V50.6902H156.511V41.4632C156.511 41.2973 156.556 41.1338 156.643 40.9866L156.838 40.6456H146.967ZM155.984 41.4632V50.223H147.82V41.4632C147.82 41.3451 147.804 41.2275 147.773 41.1128H156.032C156 41.2275 155.984 41.3451 155.984 41.4632ZM135.378 40.6456L135.573 40.9866C135.66 41.1338 135.705 41.2973 135.705 41.4632V50.6902H144.923V41.4632C144.923 41.2973 144.968 41.1338 145.055 40.9866L145.25 40.6456H135.378ZM144.396 41.4632V50.223H136.232V41.4632C136.232 41.3451 136.216 41.2275 136.184 41.1128H144.444C144.412 41.2275 144.396 41.3451 144.396 41.4632ZM123.79 40.6456L123.985 40.9866C124.072 41.1338 124.117 41.2973 124.117 41.4632V50.6902H133.335V41.4632C133.335 41.2973 133.38 41.1338 133.466 40.9866L133.661 40.6456H123.79ZM132.808 41.4632V50.223H124.644V41.4632C124.644 41.3451 124.628 41.2275 124.596 41.1128H132.856C132.824 41.2275 132.808 41.3451 132.808 41.4632ZM112.202 40.6456L112.397 40.9866C112.484 41.1338 112.529 41.2973 112.529 41.4632V50.6902H121.747V41.4632C121.747 41.2973 121.792 41.1338 121.878 40.9866L122.073 40.6456H112.202ZM121.22 41.4632V50.223H113.056V41.4632C113.056 41.3451 113.04 41.2275 113.008 41.1128H121.267C121.236 41.2275 121.22 41.3451 121.22 41.4632ZM100.614 40.6456L100.809 40.9866C100.895 41.1338 100.941 41.2973 100.941 41.4632V50.6902H110.159V41.4632C110.159 41.2973 110.204 41.1338 110.29 40.9866L110.485 40.6456H100.614ZM109.632 41.4632V50.223H101.467V41.4632C101.468 41.3451 101.452 41.2275 101.42 41.1128H109.679C109.648 41.2275 109.632 41.3451 109.632 41.4632ZM89.026 40.6456L89.2209 40.9866C89.3073 41.1338 89.3525 41.2973 89.3526 41.4632V50.6902H98.5704V41.4632C98.5706 41.2973 98.6157 41.1338 98.7021 40.9866L98.8971 40.6456H89.026ZM98.0437 41.4632V50.223H89.8794V41.4632C89.8795 41.3451 89.8636 41.2275 89.8319 41.1128H98.0912C98.0595 41.2275 98.0436 41.3451 98.0437 41.4632ZM77.4379 40.6456L77.6328 40.9866C77.7192 41.1338 77.7644 41.2973 77.7645 41.4632V50.6902H86.9823V41.4632C86.9825 41.2973 87.0276 41.1338 87.114 40.9866L87.309 40.6456H77.4379ZM86.4556 41.4632V50.223H78.2912V41.4632C78.2914 41.3451 78.2755 41.2275 78.2438 41.1128H86.5031C86.4714 41.2275 86.4555 41.3451 86.4556 41.4632ZM170.143 40.6456L170.338 40.9866C170.424 41.1338 170.469 41.2973 170.469 41.4632V50.6902H179.687V41.4632C179.687 41.2973 179.733 41.1338 179.819 40.9866L180.014 40.6456H170.143ZM179.161 41.4632V50.223H170.996V41.4632C170.996 41.3451 170.98 41.2275 170.949 41.1128H179.208C179.176 41.2275 179.16 41.3451 179.161 41.4632ZM158.555 40.6456L158.75 40.9866C158.836 41.1338 158.881 41.2973 158.881 41.4632V50.6902H168.099V41.4632C168.099 41.2973 168.144 41.1338 168.231 40.9866L168.426 40.6456H158.555ZM167.572 41.4632V50.223H159.408V41.4632C159.408 41.3451 159.392 41.2275 159.361 41.1128H167.62C167.588 41.2275 167.572 41.3451 167.572 41.4632ZM146.967 40.6456L147.162 40.9866C147.248 41.1338 147.293 41.2973 147.293 41.4632V50.6902H156.511V41.4632C156.511 41.2973 156.556 41.1338 156.643 40.9866L156.838 40.6456H146.967ZM155.984 41.4632V50.223H147.82V41.4632C147.82 41.3451 147.804 41.2275 147.773 41.1128H156.032C156 41.2275 155.984 41.3451 155.984 41.4632ZM135.378 40.6456L135.573 40.9866C135.66 41.1338 135.705 41.2973 135.705 41.4632V50.6902H144.923V41.4632C144.923 41.2973 144.968 41.1338 145.055 40.9866L145.25 40.6456H135.378ZM144.396 41.4632V50.223H136.232V41.4632C136.232 41.3451 136.216 41.2275 136.184 41.1128H144.444C144.412 41.2275 144.396 41.3451 144.396 41.4632ZM123.79 40.6456L123.985 40.9866C124.072 41.1338 124.117 41.2973 124.117 41.4632V50.6902H133.335V41.4632C133.335 41.2973 133.38 41.1338 133.466 40.9866L133.661 40.6456H123.79ZM132.808 41.4632V50.223H124.644V41.4632C124.644 41.3451 124.628 41.2275 124.596 41.1128H132.856C132.824 41.2275 132.808 41.3451 132.808 41.4632ZM112.202 40.6456L112.397 40.9866C112.484 41.1338 112.529 41.2973 112.529 41.4632V50.6902H121.747V41.4632C121.747 41.2973 121.792 41.1338 121.878 40.9866L122.073 40.6456H112.202ZM121.22 41.4632V50.223H113.056V41.4632C113.056 41.3451 113.04 41.2275 113.008 41.1128H121.267C121.236 41.2275 121.22 41.3451 121.22 41.4632ZM100.614 40.6456L100.809 40.9866C100.895 41.1338 100.941 41.2973 100.941 41.4632V50.6902H110.159V41.4632C110.159 41.2973 110.204 41.1338 110.29 40.9866L110.485 40.6456H100.614ZM109.632 41.4632V50.223H101.467V41.4632C101.468 41.3451 101.452 41.2275 101.42 41.1128H109.679C109.648 41.2275 109.632 41.3451 109.632 41.4632ZM89.026 40.6456L89.2209 40.9866C89.3073 41.1338 89.3525 41.2973 89.3526 41.4632V50.6902H98.5704V41.4632C98.5706 41.2973 98.6157 41.1338 98.7021 40.9866L98.8971 40.6456H89.026ZM98.0437 41.4632V50.223H89.8794V41.4632C89.8795 41.3451 89.8636 41.2275 89.8319 41.1128H98.0912C98.0595 41.2275 98.0436 41.3451 98.0437 41.4632ZM77.4379 40.6456L77.6328 40.9866C77.7192 41.1338 77.7644 41.2973 77.7645 41.4632V50.6902H86.9823V41.4632C86.9825 41.2973 87.0276 41.1338 87.114 40.9866L87.309 40.6456H77.4379ZM86.4556 41.4632V50.223H78.2912V41.4632C78.2914 41.3451 78.2755 41.2275 78.2438 41.1128H86.5031C86.4714 41.2275 86.4555 41.3451 86.4556 41.4632ZM170.143 40.6456L170.338 40.9866C170.424 41.1338 170.469 41.2973 170.469 41.4632V50.6902H179.687V41.4632C179.687 41.2973 179.733 41.1338 179.819 40.9866L180.014 40.6456H170.143ZM179.161 41.4632V50.223H170.996V41.4632C170.996 41.3451 170.98 41.2275 170.949 41.1128H179.208C179.176 41.2275 179.16 41.3451 179.161 41.4632ZM158.555 40.6456L158.75 40.9866C158.836 41.1338 158.881 41.2973 158.881 41.4632V50.6902H168.099V41.4632C168.099 41.2973 168.144 41.1338 168.231 40.9866L168.426 40.6456H158.555ZM167.572 41.4632V50.223H159.408V41.4632C159.408 41.3451 159.392 41.2275 159.361 41.1128H167.62C167.588 41.2275 167.572 41.3451 167.572 41.4632ZM146.967 40.6456L147.162 40.9866C147.248 41.1338 147.293 41.2973 147.293 41.4632V50.6902H156.511V41.4632C156.511 41.2973 156.556 41.1338 156.643 40.9866L156.838 40.6456H146.967ZM155.984 41.4632V50.223H147.82V41.4632C147.82 41.3451 147.804 41.2275 147.773 41.1128H156.032C156 41.2275 155.984 41.3451 155.984 41.4632ZM135.378 40.6456L135.573 40.9866C135.66 41.1338 135.705 41.2973 135.705 41.4632V50.6902H144.923V41.4632C144.923 41.2973 144.968 41.1338 145.055 40.9866L145.25 40.6456H135.378ZM144.396 41.4632V50.223H136.232V41.4632C136.232 41.3451 136.216 41.2275 136.184 41.1128H144.444C144.412 41.2275 144.396 41.3451 144.396 41.4632ZM123.79 40.6456L123.985 40.9866C124.072 41.1338 124.117 41.2973 124.117 41.4632V50.6902H133.335V41.4632C133.335 41.2973 133.38 41.1338 133.466 40.9866L133.661 40.6456H123.79ZM132.808 41.4632V50.223H124.644V41.4632C124.644 41.3451 124.628 41.2275 124.596 41.1128H132.856C132.824 41.2275 132.808 41.3451 132.808 41.4632ZM112.202 40.6456L112.397 40.9866C112.484 41.1338 112.529 41.2973 112.529 41.4632V50.6902H121.747V41.4632C121.747 41.2973 121.792 41.1338 121.878 40.9866L122.073 40.6456H112.202ZM121.22 41.4632V50.223H113.056V41.4632C113.056 41.3451 113.04 41.2275 113.008 41.1128H121.267C121.236 41.2275 121.22 41.3451 121.22 41.4632ZM100.614 40.6456L100.809 40.9866C100.895 41.1338 100.941 41.2973 100.941 41.4632V50.6902H110.159V41.4632C110.159 41.2973 110.204 41.1338 110.29 40.9866L110.485 40.6456H100.614ZM109.632 41.4632V50.223H101.467V41.4632C101.468 41.3451 101.452 41.2275 101.42 41.1128H109.679C109.648 41.2275 109.632 41.3451 109.632 41.4632ZM89.026 40.6456L89.2209 40.9866C89.3073 41.1338 89.3525 41.2973 89.3526 41.4632V50.6902H98.5704V41.4632C98.5706 41.2973 98.6157 41.1338 98.7021 40.9866L98.8971 40.6456H89.026ZM98.0437 41.4632V50.223H89.8794V41.4632C89.8795 41.3451 89.8636 41.2275 89.8319 41.1128H98.0912C98.0595 41.2275 98.0436 41.3451 98.0437 41.4632ZM77.4379 40.6456L77.6328 40.9866C77.7192 41.1338 77.7644 41.2973 77.7645 41.4632V50.6902H86.9823V41.4632C86.9825 41.2973 87.0276 41.1338 87.114 40.9866L87.309 40.6456H77.4379ZM86.4556 41.4632V50.223H78.2912V41.4632C78.2914 41.3451 78.2755 41.2275 78.2438 41.1128H86.5031C86.4714 41.2275 86.4555 41.3451 86.4556 41.4632ZM170.143 40.6456L170.338 40.9866C170.424 41.1338 170.469 41.2973 170.469 41.4632V50.6902H179.687V41.4632C179.687 41.2973 179.733 41.1338 179.819 40.9866L180.014 40.6456H170.143ZM179.161 41.4632V50.223H170.996V41.4632C170.996 41.3451 170.98 41.2275 170.949 41.1128H179.208C179.176 41.2275 179.16 41.3451 179.161 41.4632ZM158.555 40.6456L158.75 40.9866C158.836 41.1338 158.881 41.2973 158.881 41.4632V50.6902H168.099V41.4632C168.099 41.2973 168.144 41.1338 168.231 40.9866L168.426 40.6456H158.555ZM167.572 41.4632V50.223H159.408V41.4632C159.408 41.3451 159.392 41.2275 159.361 41.1128H167.62C167.588 41.2275 167.572 41.3451 167.572 41.4632ZM146.967 40.6456L147.162 40.9866C147.248 41.1338 147.293 41.2973 147.293 41.4632V50.6902H156.511V41.4632C156.511 41.2973 156.556 41.1338 156.643 40.9866L156.838 40.6456H146.967ZM155.984 41.4632V50.223H147.82V41.4632C147.82 41.3451 147.804 41.2275 147.773 41.1128H156.032C156 41.2275 155.984 41.3451 155.984 41.4632ZM135.378 40.6456L135.573 40.9866C135.66 41.1338 135.705 41.2973 135.705 41.4632V50.6902H144.923V41.4632C144.923 41.2973 144.968 41.1338 145.055 40.9866L145.25 40.6456H135.378ZM144.396 41.4632V50.223H136.232V41.4632C136.232 41.3451 136.216 41.2275 136.184 41.1128H144.444C144.412 41.2275 144.396 41.3451 144.396 41.4632ZM123.79 40.6456L123.985 40.9866C124.072 41.1338 124.117 41.2973 124.117 41.4632V50.6902H133.335V41.4632C133.335 41.2973 133.38 41.1338 133.466 40.9866L133.661 40.6456H123.79ZM132.808 41.4632V50.223H124.644V41.4632C124.644 41.3451 124.628 41.2275 124.596 41.1128H132.856C132.824 41.2275 132.808 41.3451 132.808 41.4632ZM112.202 40.6456L112.397 40.9866C112.484 41.1338 112.529 41.2973 112.529 41.4632V50.6902H121.747V41.4632C121.747 41.2973 121.792 41.1338 121.878 40.9866L122.073 40.6456H112.202ZM121.22 41.4632V50.223H113.056V41.4632C113.056 41.3451 113.04 41.2275 113.008 41.1128H121.267C121.236 41.2275 121.22 41.3451 121.22 41.4632ZM100.614 40.6456L100.809 40.9866C100.895 41.1338 100.941 41.2973 100.941 41.4632V50.6902H110.159V41.4632C110.159 41.2973 110.204 41.1338 110.29 40.9866L110.485 40.6456H100.614ZM109.632 41.4632V50.223H101.467V41.4632C101.468 41.3451 101.452 41.2275 101.42 41.1128H109.679C109.648 41.2275 109.632 41.3451 109.632 41.4632ZM89.026 40.6456L89.2209 40.9866C89.3073 41.1338 89.3525 41.2973 89.3526 41.4632V50.6902H98.5704V41.4632C98.5706 41.2973 98.6157 41.1338 98.7021 40.9866L98.8971 40.6456H89.026ZM98.0437 41.4632V50.223H89.8794V41.4632C89.8795 41.3451 89.8636 41.2275 89.8319 41.1128H98.0912C98.0595 41.2275 98.0436 41.3451 98.0437 41.4632ZM77.4379 40.6456L77.6328 40.9866C77.7192 41.1338 77.7644 41.2973 77.7645 41.4632V50.6902H86.9823V41.4632C86.9825 41.2973 87.0276 41.1338 87.114 40.9866L87.309 40.6456H77.4379ZM86.4556 41.4632V50.223H78.2912V41.4632C78.2914 41.3451 78.2755 41.2275 78.2438 41.1128H86.5031C86.4714 41.2275 86.4555 41.3451 86.4556 41.4632ZM170.143 40.6456L170.338 40.9866C170.424 41.1338 170.469 41.2973 170.469 41.4632V50.6902H179.687V41.4632C179.687 41.2973 179.733 41.1338 179.819 40.9866L180.014 40.6456H170.143ZM179.161 41.4632V50.223H170.996V41.4632C170.996 41.3451 170.98 41.2275 170.949 41.1128H179.208C179.176 41.2275 179.16 41.3451 179.161 41.4632ZM158.75 40.9866C158.836 41.1338 158.881 41.2973 158.881 41.4632V50.6902H168.099V41.4632C168.099 41.2973 168.144 41.1338 168.231 40.9866L168.426 40.6456H158.555L158.75 40.9866ZM167.62 41.1128C167.588 41.2275 167.572 41.3451 167.572 41.4632V50.223H159.408V41.4632C159.408 41.3451 159.392 41.2275 159.361 41.1128H167.62ZM147.162 40.9866C147.248 41.1338 147.293 41.2973 147.293 41.4632V50.6902H156.511V41.4632C156.511 41.2973 156.556 41.1338 156.643 40.9866L156.838 40.6456H146.967L147.162 40.9866ZM156.032 41.1128C156 41.2275 155.984 41.3451 155.984 41.4632V50.223H147.82V41.4632C147.82 41.3451 147.804 41.2275 147.773 41.1128H156.032ZM135.573 40.9866C135.66 41.1338 135.705 41.2973 135.705 41.4632V50.6902H144.923V41.4632C144.923 41.2973 144.968 41.1338 145.055 40.9866L145.25 40.6456H135.378L135.573 40.9866ZM144.444 41.1128C144.412 41.2275 144.396 41.3451 144.396 41.4632V50.223H136.232V41.4632C136.232 41.3451 136.216 41.2275 136.184 41.1128H144.444ZM123.985 40.9866C124.072 41.1338 124.117 41.2973 124.117 41.4632V50.6902H133.335V41.4632C133.335 41.2973 133.38 41.1338 133.466 40.9866L133.661 40.6456H123.79L123.985 40.9866ZM132.856 41.1128C132.824 41.2275 132.808 41.3451 132.808 41.4632V50.223H124.644V41.4632C124.644 41.3451 124.628 41.2275 124.596 41.1128H132.856ZM112.397 40.9866C112.484 41.1338 112.529 41.2973 112.529 41.4632V50.6902H121.747V41.4632C121.747 41.2973 121.792 41.1338 121.878 40.9866L122.073 40.6456H112.202L112.397 40.9866ZM121.267 41.1128C121.236 41.2275 121.22 41.3451 121.22 41.4632V50.223H113.056V41.4632C113.056 41.3451 113.04 41.2275 113.008 41.1128H121.267ZM100.809 40.9866C100.895 41.1338 100.941 41.2973 100.941 41.4632V50.6902H110.159V41.4632C110.159 41.2973 110.204 41.1338 110.29 40.9866L110.485 40.6456H100.614L100.809 40.9866ZM109.679 41.1128C109.648 41.2275 109.632 41.3451 109.632 41.4632V50.223H101.467V41.4632C101.468 41.3451 101.452 41.2275 101.42 41.1128H109.679ZM89.2209 40.9866C89.3073 41.1338 89.3525 41.2973 89.3526 41.4632V50.6902H98.5704V41.4632C98.5706 41.2973 98.6157 41.1338 98.7021 40.9866L98.8971 40.6456H89.026L89.2209 40.9866ZM98.0912 41.1128C98.0595 41.2275 98.0436 41.3451 98.0437 41.4632V50.223H89.8794V41.4632C89.8795 41.3451 89.8636 41.2275 89.8319 41.1128H98.0912ZM77.6328 40.9866C77.7192 41.1338 77.7644 41.2973 77.7645 41.4632V50.6902H86.9823V41.4632C86.9825 41.2973 87.0276 41.1338 87.114 40.9866L87.309 40.6456H77.4379L77.6328 40.9866ZM86.5031 41.1128C86.4714 41.2275 86.4555 41.3451 86.4556 41.4632V50.223H78.2912V41.4632C78.2914 41.3451 78.2755 41.2275 78.2438 41.1128H86.5031ZM170.338 40.9866C170.424 41.1338 170.469 41.2973 170.469 41.4632V50.6902H179.687V41.4632C179.687 41.2973 179.733 41.1338 179.819 40.9866L180.014 40.6456H170.143L170.338 40.9866ZM179.208 41.1128C179.176 41.2275 179.16 41.3451 179.161 41.4632V50.223H170.996V41.4632C170.996 41.3451 170.98 41.2275 170.949 41.1128H179.208ZM158.75 40.9866C158.836 41.1338 158.881 41.2973 158.881 41.4632V50.6902H168.099V41.4632C168.099 41.2973 168.144 41.1338 168.231 40.9866L168.426 40.6456H158.555L158.75 40.9866ZM167.62 41.1128C167.588 41.2275 167.572 41.3451 167.572 41.4632V50.223H159.408V41.4632C159.408 41.3451 159.392 41.2275 159.361 41.1128H167.62ZM147.162 40.9866C147.248 41.1338 147.293 41.2973 147.293 41.4632V50.6902H156.511V41.4632C156.511 41.2973 156.556 41.1338 156.643 40.9866L156.838 40.6456H146.967L147.162 40.9866ZM156.032 41.1128C156 41.2275 155.984 41.3451 155.984 41.4632V50.223H147.82V41.4632C147.82 41.3451 147.804 41.2275 147.773 41.1128H156.032ZM135.573 40.9866C135.66 41.1338 135.705 41.2973 135.705 41.4632V50.6902H144.923V41.4632C144.923 41.2973 144.968 41.1338 145.055 40.9866L145.25 40.6456H135.378L135.573 40.9866ZM144.444 41.1128C144.412 41.2275 144.396 41.3451 144.396 41.4632V50.223H136.232V41.4632C136.232 41.3451 136.216 41.2275 136.184 41.1128H144.444ZM123.985 40.9866C124.072 41.1338 124.117 41.2973 124.117 41.4632V50.6902H133.335V41.4632C133.335 41.2973 133.38 41.1338 133.466 40.9866L133.661 40.6456H123.79L123.985 40.9866ZM132.856 41.1128C132.824 41.2275 132.808 41.3451 132.808 41.4632V50.223H124.644V41.4632C124.644 41.3451 124.628 41.2275 124.596 41.1128H132.856ZM112.397 40.9866C112.484 41.1338 112.529 41.2973 112.529 41.4632V50.6902H121.747V41.4632C121.747 41.2973 121.792 41.1338 121.878 40.9866L122.073 40.6456H112.202L112.397 40.9866ZM121.267 41.1128C121.236 41.2275 121.22 41.3451 121.22 41.4632V50.223H113.056V41.4632C113.056 41.3451 113.04 41.2275 113.008 41.1128H121.267ZM100.809 40.9866C100.895 41.1338 100.941 41.2973 100.941 41.4632V50.6902H110.159V41.4632C110.159 41.2973 110.204 41.1338 110.29 40.9866L110.485 40.6456H100.614L100.809 40.9866ZM109.679 41.1128C109.648 41.2275 109.632 41.3451 109.632 41.4632V50.223H101.467V41.4632C101.468 41.3451 101.452 41.2275 101.42 41.1128H109.679ZM89.2209 40.9866C89.3073 41.1338 89.3525 41.2973 89.3526 41.4632V50.6902H98.5704V41.4632C98.5706 41.2973 98.6157 41.1338 98.7021 40.9866L98.8971 40.6456H89.026L89.2209 40.9866ZM98.0912 41.1128C98.0595 41.2275 98.0436 41.3451 98.0437 41.4632V50.223H89.8794V41.4632C89.8795 41.3451 89.8636 41.2275 89.8319 41.1128H98.0912ZM77.6328 40.9866C77.7192 41.1338 77.7644 41.2973 77.7645 41.4632V50.6902H86.9823V41.4632C86.9825 41.2973 87.0276 41.1338 87.114 40.9866L87.309 40.6456H77.4379L77.6328 40.9866ZM86.5031 41.1128C86.4714 41.2275 86.4555 41.3451 86.4556 41.4632V50.223H78.2912V41.4632C78.2914 41.3451 78.2755 41.2275 78.2438 41.1128H86.5031ZM190.222 52.0918H187.083C186.91 51.5544 186.544 51.0815 186.041 50.7444C185.539 50.4073 184.926 50.2243 184.296 50.223H182.584V41.4632C182.585 41.2751 182.545 41.0887 182.466 40.9142C182.764 40.7584 182.996 40.5197 183.127 40.2351C183.257 39.9506 183.278 39.6358 183.187 39.3396C183.095 39.0433 182.897 38.7819 182.621 38.5958C182.346 38.4096 182.009 38.3091 181.663 38.3096H75.7893C75.443 38.3091 75.1061 38.4096 74.8306 38.5958C74.5551 38.7819 74.3563 39.0433 74.265 39.3396C74.1736 39.6358 74.1947 39.9506 74.325 40.2351C74.4553 40.5197 74.6876 40.7584 74.9861 40.9142C74.9071 41.0887 74.8668 41.2751 74.8675 41.4632V50.223H73.1556C72.5255 50.2243 71.9129 50.4073 71.4103 50.7444C70.9077 51.0815 70.5423 51.5544 70.3692 52.0918H66.9665C66.3381 52.0926 65.7358 52.3144 65.2915 52.7085C64.8472 53.1025 64.5971 53.6368 64.5962 54.1941V177.532C64.5976 178.09 64.8477 178.624 65.2919 179.018C65.7362 179.412 66.3383 179.634 66.9665 179.635H190.222C190.85 179.634 191.453 179.412 191.897 179.018C192.341 178.624 192.591 178.09 192.592 177.532V54.1941C192.591 53.6368 192.341 53.1025 191.897 52.7085C191.453 52.3144 190.85 52.0926 190.222 52.0918ZM192.066 177.532C192.065 177.866 191.95 178.192 191.734 178.466C191.519 178.74 191.215 178.949 190.862 179.065C190.658 179.134 190.441 179.169 190.222 179.168H66.9665C66.7478 179.169 66.5308 179.134 66.3265 179.065C65.9736 178.949 65.6691 178.74 65.454 178.466C65.2389 178.192 65.1234 177.866 65.1229 177.532V54.1941C65.1235 53.7606 65.3179 53.345 65.6635 53.0384C66.0091 52.7319 66.4777 52.5594 66.9665 52.5589H70.7906L70.8328 52.3721C70.9435 51.8979 71.2348 51.4719 71.6578 51.1656C72.0807 50.8594 72.6096 50.6915 73.1556 50.6902H75.3942V41.4632C75.3943 41.2731 75.4526 41.0866 75.5628 40.9236L75.726 40.683L75.4284 40.5849C75.1958 40.5101 75.0005 40.3649 74.8767 40.1749C74.753 39.985 74.7088 39.7623 74.7519 39.5463C74.795 39.3302 74.9227 39.1346 75.1124 38.9938C75.3022 38.8531 75.5419 38.7762 75.7893 38.7768H181.663C181.91 38.7762 182.15 38.8531 182.339 38.9938C182.529 39.1346 182.657 39.3302 182.7 39.5463C182.743 39.7623 182.699 39.985 182.575 40.1749C182.451 40.3649 182.256 40.5101 182.023 40.5849L181.726 40.683L181.889 40.9236C181.999 41.0866 182.058 41.2731 182.058 41.4632V50.6902H184.296C184.842 50.6915 185.371 50.8593 185.794 51.1656C186.217 51.4718 186.508 51.8978 186.619 52.3721L186.661 52.5589H190.222C190.711 52.5594 191.179 52.7319 191.525 53.0384C191.871 53.345 192.065 53.7606 192.065 54.1941L192.066 177.532ZM77.4379 40.6456L77.6328 40.9866C77.7192 41.1338 77.7644 41.2973 77.7645 41.4632V50.6902H86.9823V41.4632C86.9825 41.2973 87.0276 41.1338 87.114 40.9866L87.309 40.6456H77.4379ZM86.4556 41.4632V50.223H78.2912V41.4632C78.2914 41.3451 78.2755 41.2275 78.2438 41.1128H86.5031C86.4714 41.2275 86.4555 41.3451 86.4556 41.4632ZM89.026 40.6456L89.2209 40.9866C89.3073 41.1338 89.3525 41.2973 89.3526 41.4632V50.6902H98.5704V41.4632C98.5706 41.2973 98.6157 41.1338 98.7021 40.9866L98.8971 40.6456H89.026ZM98.0437 41.4632V50.223H89.8794V41.4632C89.8795 41.3451 89.8636 41.2275 89.8319 41.1128H98.0912C98.0595 41.2275 98.0436 41.3451 98.0437 41.4632ZM100.614 40.6456L100.809 40.9866C100.895 41.1338 100.941 41.2973 100.941 41.4632V50.6902H110.159V41.4632C110.159 41.2973 110.204 41.1338 110.29 40.9866L110.485 40.6456H100.614ZM109.632 41.4632V50.223H101.467V41.4632C101.468 41.3451 101.452 41.2275 101.42 41.1128H109.679C109.648 41.2275 109.632 41.3451 109.632 41.4632ZM112.202 40.6456L112.397 40.9866C112.484 41.1338 112.529 41.2973 112.529 41.4632V50.6902H121.747V41.4632C121.747 41.2973 121.792 41.1338 121.878 40.9866L122.073 40.6456H112.202ZM121.22 41.4632V50.223H113.056V41.4632C113.056 41.3451 113.04 41.2275 113.008 41.1128H121.267C121.236 41.2275 121.22 41.3451 121.22 41.4632ZM123.79 40.6456L123.985 40.9866C124.072 41.1338 124.117 41.2973 124.117 41.4632V50.6902H133.335V41.4632C133.335 41.2973 133.38 41.1338 133.466 40.9866L133.661 40.6456H123.79ZM132.808 41.4632V50.223H124.644V41.4632C124.644 41.3451 124.628 41.2275 124.596 41.1128H132.856C132.824 41.2275 132.808 41.3451 132.808 41.4632ZM135.378 40.6456L135.573 40.9866C135.66 41.1338 135.705 41.2973 135.705 41.4632V50.6902H144.923V41.4632C144.923 41.2973 144.968 41.1338 145.055 40.9866L145.25 40.6456H135.378ZM144.396 41.4632V50.223H136.232V41.4632C136.232 41.3451 136.216 41.2275 136.184 41.1128H144.444C144.412 41.2275 144.396 41.3451 144.396 41.4632ZM146.967 40.6456L147.162 40.9866C147.248 41.1338 147.293 41.2973 147.293 41.4632V50.6902H156.511V41.4632C156.511 41.2973 156.556 41.1338 156.643 40.9866L156.838 40.6456H146.967ZM155.984 41.4632V50.223H147.82V41.4632C147.82 41.3451 147.804 41.2275 147.773 41.1128H156.032C156 41.2275 155.984 41.3451 155.984 41.4632ZM158.555 40.6456L158.75 40.9866C158.836 41.1338 158.881 41.2973 158.881 41.4632V50.6902H168.099V41.4632C168.099 41.2973 168.144 41.1338 168.231 40.9866L168.426 40.6456H158.555ZM167.572 41.4632V50.223H159.408V41.4632C159.408 41.3451 159.392 41.2275 159.361 41.1128H167.62C167.588 41.2275 167.572 41.3451 167.572 41.4632ZM170.143 40.6456L170.338 40.9866C170.424 41.1338 170.469 41.2973 170.469 41.4632V50.6902H179.687V41.4632C179.687 41.2973 179.733 41.1338 179.819 40.9866L180.014 40.6456H170.143ZM179.161 41.4632V50.223H170.996V41.4632C170.996 41.3451 170.98 41.2275 170.949 41.1128H179.208C179.176 41.2275 179.16 41.3451 179.161 41.4632ZM77.4379 40.6456L77.6328 40.9866C77.7192 41.1338 77.7644 41.2973 77.7645 41.4632V50.6902H86.9823V41.4632C86.9825 41.2973 87.0276 41.1338 87.114 40.9866L87.309 40.6456H77.4379ZM86.4556 41.4632V50.223H78.2912V41.4632C78.2914 41.3451 78.2755 41.2275 78.2438 41.1128H86.5031C86.4714 41.2275 86.4555 41.3451 86.4556 41.4632ZM89.026 40.6456L89.2209 40.9866C89.3073 41.1338 89.3525 41.2973 89.3526 41.4632V50.6902H98.5704V41.4632C98.5706 41.2973 98.6157 41.1338 98.7021 40.9866L98.8971 40.6456H89.026ZM98.0437 41.4632V50.223H89.8794V41.4632C89.8795 41.3451 89.8636 41.2275 89.8319 41.1128H98.0912C98.0595 41.2275 98.0436 41.3451 98.0437 41.4632ZM100.614 40.6456L100.809 40.9866C100.895 41.1338 100.941 41.2973 100.941 41.4632V50.6902H110.159V41.4632C110.159 41.2973 110.204 41.1338 110.29 40.9866L110.485 40.6456H100.614ZM109.632 41.4632V50.223H101.467V41.4632C101.468 41.3451 101.452 41.2275 101.42 41.1128H109.679C109.648 41.2275 109.632 41.3451 109.632 41.4632ZM112.202 40.6456L112.397 40.9866C112.484 41.1338 112.529 41.2973 112.529 41.4632V50.6902H121.747V41.4632C121.747 41.2973 121.792 41.1338 121.878 40.9866L122.073 40.6456H112.202ZM121.22 41.4632V50.223H113.056V41.4632C113.056 41.3451 113.04 41.2275 113.008 41.1128H121.267C121.236 41.2275 121.22 41.3451 121.22 41.4632ZM123.79 40.6456L123.985 40.9866C124.072 41.1338 124.117 41.2973 124.117 41.4632V50.6902H133.335V41.4632C133.335 41.2973 133.38 41.1338 133.466 40.9866L133.661 40.6456H123.79ZM132.808 41.4632V50.223H124.644V41.4632C124.644 41.3451 124.628 41.2275 124.596 41.1128H132.856C132.824 41.2275 132.808 41.3451 132.808 41.4632ZM135.378 40.6456L135.573 40.9866C135.66 41.1338 135.705 41.2973 135.705 41.4632V50.6902H144.923V41.4632C144.923 41.2973 144.968 41.1338 145.055 40.9866L145.25 40.6456H135.378ZM144.396 41.4632V50.223H136.232V41.4632C136.232 41.3451 136.216 41.2275 136.184 41.1128H144.444C144.412 41.2275 144.396 41.3451 144.396 41.4632ZM146.967 40.6456L147.162 40.9866C147.248 41.1338 147.293 41.2973 147.293 41.4632V50.6902H156.511V41.4632C156.511 41.2973 156.556 41.1338 156.643 40.9866L156.838 40.6456H146.967ZM155.984 41.4632V50.223H147.82V41.4632C147.82 41.3451 147.804 41.2275 147.773 41.1128H156.032C156 41.2275 155.984 41.3451 155.984 41.4632ZM158.555 40.6456L158.75 40.9866C158.836 41.1338 158.881 41.2973 158.881 41.4632V50.6902H168.099V41.4632C168.099 41.2973 168.144 41.1338 168.231 40.9866L168.426 40.6456H158.555ZM167.572 41.4632V50.223H159.408V41.4632C159.408 41.3451 159.392 41.2275 159.361 41.1128H167.62C167.588 41.2275 167.572 41.3451 167.572 41.4632ZM170.143 40.6456L170.338 40.9866C170.424 41.1338 170.469 41.2973 170.469 41.4632V50.6902H179.687V41.4632C179.687 41.2973 179.733 41.1338 179.819 40.9866L180.014 40.6456H170.143ZM179.161 41.4632V50.223H170.996V41.4632C170.996 41.3451 170.98 41.2275 170.949 41.1128H179.208C179.176 41.2275 179.16 41.3451 179.161 41.4632ZM77.4379 40.6456L77.6328 40.9866C77.7192 41.1338 77.7644 41.2973 77.7645 41.4632V50.6902H86.9823V41.4632C86.9825 41.2973 87.0276 41.1338 87.114 40.9866L87.309 40.6456H77.4379ZM86.4556 41.4632V50.223H78.2912V41.4632C78.2914 41.3451 78.2755 41.2275 78.2438 41.1128H86.5031C86.4714 41.2275 86.4555 41.3451 86.4556 41.4632ZM89.026 40.6456L89.2209 40.9866C89.3073 41.1338 89.3525 41.2973 89.3526 41.4632V50.6902H98.5704V41.4632C98.5706 41.2973 98.6157 41.1338 98.7021 40.9866L98.8971 40.6456H89.026ZM98.0437 41.4632V50.223H89.8794V41.4632C89.8795 41.3451 89.8636 41.2275 89.8319 41.1128H98.0912C98.0595 41.2275 98.0436 41.3451 98.0437 41.4632ZM100.614 40.6456L100.809 40.9866C100.895 41.1338 100.941 41.2973 100.941 41.4632V50.6902H110.159V41.4632C110.159 41.2973 110.204 41.1338 110.29 40.9866L110.485 40.6456H100.614ZM109.632 41.4632V50.223H101.467V41.4632C101.468 41.3451 101.452 41.2275 101.42 41.1128H109.679C109.648 41.2275 109.632 41.3451 109.632 41.4632ZM112.202 40.6456L112.397 40.9866C112.484 41.1338 112.529 41.2973 112.529 41.4632V50.6902H121.747V41.4632C121.747 41.2973 121.792 41.1338 121.878 40.9866L122.073 40.6456H112.202ZM121.22 41.4632V50.223H113.056V41.4632C113.056 41.3451 113.04 41.2275 113.008 41.1128H121.267C121.236 41.2275 121.22 41.3451 121.22 41.4632ZM123.79 40.6456L123.985 40.9866C124.072 41.1338 124.117 41.2973 124.117 41.4632V50.6902H133.335V41.4632C133.335 41.2973 133.38 41.1338 133.466 40.9866L133.661 40.6456H123.79ZM132.808 41.4632V50.223H124.644V41.4632C124.644 41.3451 124.628 41.2275 124.596 41.1128H132.856C132.824 41.2275 132.808 41.3451 132.808 41.4632ZM135.378 40.6456L135.573 40.9866C135.66 41.1338 135.705 41.2973 135.705 41.4632V50.6902H144.923V41.4632C144.923 41.2973 144.968 41.1338 145.055 40.9866L145.25 40.6456H135.378ZM144.396 41.4632V50.223H136.232V41.4632C136.232 41.3451 136.216 41.2275 136.184 41.1128H144.444C144.412 41.2275 144.396 41.3451 144.396 41.4632ZM146.967 40.6456L147.162 40.9866C147.248 41.1338 147.293 41.2973 147.293 41.4632V50.6902H156.511V41.4632C156.511 41.2973 156.556 41.1338 156.643 40.9866L156.838 40.6456H146.967ZM155.984 41.4632V50.223H147.82V41.4632C147.82 41.3451 147.804 41.2275 147.773 41.1128H156.032C156 41.2275 155.984 41.3451 155.984 41.4632ZM158.555 40.6456L158.75 40.9866C158.836 41.1338 158.881 41.2973 158.881 41.4632V50.6902H168.099V41.4632C168.099 41.2973 168.144 41.1338 168.231 40.9866L168.426 40.6456H158.555ZM167.572 41.4632V50.223H159.408V41.4632C159.408 41.3451 159.392 41.2275 159.361 41.1128H167.62C167.588 41.2275 167.572 41.3451 167.572 41.4632ZM170.143 40.6456L170.338 40.9866C170.424 41.1338 170.469 41.2973 170.469 41.4632V50.6902H179.687V41.4632C179.687 41.2973 179.733 41.1338 179.819 40.9866L180.014 40.6456H170.143ZM179.161 41.4632V50.223H170.996V41.4632C170.996 41.3451 170.98 41.2275 170.949 41.1128H179.208C179.176 41.2275 179.16 41.3451 179.161 41.4632ZM77.4379 40.6456L77.6328 40.9866C77.7192 41.1338 77.7644 41.2973 77.7645 41.4632V50.6902H86.9823V41.4632C86.9825 41.2973 87.0276 41.1338 87.114 40.9866L87.309 40.6456H77.4379ZM86.4556 41.4632V50.223H78.2912V41.4632C78.2914 41.3451 78.2755 41.2275 78.2438 41.1128H86.5031C86.4714 41.2275 86.4555 41.3451 86.4556 41.4632ZM89.026 40.6456L89.2209 40.9866C89.3073 41.1338 89.3525 41.2973 89.3526 41.4632V50.6902H98.5704V41.4632C98.5706 41.2973 98.6157 41.1338 98.7021 40.9866L98.8971 40.6456H89.026ZM98.0437 41.4632V50.223H89.8794V41.4632C89.8795 41.3451 89.8636 41.2275 89.8319 41.1128H98.0912C98.0595 41.2275 98.0436 41.3451 98.0437 41.4632ZM100.614 40.6456L100.809 40.9866C100.895 41.1338 100.941 41.2973 100.941 41.4632V50.6902H110.159V41.4632C110.159 41.2973 110.204 41.1338 110.29 40.9866L110.485 40.6456H100.614ZM109.632 41.4632V50.223H101.467V41.4632C101.468 41.3451 101.452 41.2275 101.42 41.1128H109.679C109.648 41.2275 109.632 41.3451 109.632 41.4632ZM112.202 40.6456L112.397 40.9866C112.484 41.1338 112.529 41.2973 112.529 41.4632V50.6902H121.747V41.4632C121.747 41.2973 121.792 41.1338 121.878 40.9866L122.073 40.6456H112.202ZM121.22 41.4632V50.223H113.056V41.4632C113.056 41.3451 113.04 41.2275 113.008 41.1128H121.267C121.236 41.2275 121.22 41.3451 121.22 41.4632ZM123.79 40.6456L123.985 40.9866C124.072 41.1338 124.117 41.2973 124.117 41.4632V50.6902H133.335V41.4632C133.335 41.2973 133.38 41.1338 133.466 40.9866L133.661 40.6456H123.79ZM132.808 41.4632V50.223H124.644V41.4632C124.644 41.3451 124.628 41.2275 124.596 41.1128H132.856C132.824 41.2275 132.808 41.3451 132.808 41.4632ZM135.378 40.6456L135.573 40.9866C135.66 41.1338 135.705 41.2973 135.705 41.4632V50.6902H144.923V41.4632C144.923 41.2973 144.968 41.1338 145.055 40.9866L145.25 40.6456H135.378ZM144.396 41.4632V50.223H136.232V41.4632C136.232 41.3451 136.216 41.2275 136.184 41.1128H144.444C144.412 41.2275 144.396 41.3451 144.396 41.4632ZM146.967 40.6456L147.162 40.9866C147.248 41.1338 147.293 41.2973 147.293 41.4632V50.6902H156.511V41.4632C156.511 41.2973 156.556 41.1338 156.643 40.9866L156.838 40.6456H146.967ZM155.984 41.4632V50.223H147.82V41.4632C147.82 41.3451 147.804 41.2275 147.773 41.1128H156.032C156 41.2275 155.984 41.3451 155.984 41.4632ZM158.555 40.6456L158.75 40.9866C158.836 41.1338 158.881 41.2973 158.881 41.4632V50.6902H168.099V41.4632C168.099 41.2973 168.144 41.1338 168.231 40.9866L168.426 40.6456H158.555ZM167.572 41.4632V50.223H159.408V41.4632C159.408 41.3451 159.392 41.2275 159.361 41.1128H167.62C167.588 41.2275 167.572 41.3451 167.572 41.4632ZM170.143 40.6456L170.338 40.9866C170.424 41.1338 170.469 41.2973 170.469 41.4632V50.6902H179.687V41.4632C179.687 41.2973 179.733 41.1338 179.819 40.9866L180.014 40.6456H170.143ZM179.161 41.4632V50.223H170.996V41.4632C170.996 41.3451 170.98 41.2275 170.949 41.1128H179.208C179.176 41.2275 179.16 41.3451 179.161 41.4632Z" fill="#3F3D56"/>
<path d="M108.75 81.5247H89.329C88.9199 81.5243 88.5278 81.38 88.2385 81.1235C87.9493 80.867 87.7866 80.5191 87.7861 80.1563V70.9798C87.7866 70.617 87.9493 70.2692 88.2385 70.0126C88.5278 69.7561 88.9199 69.6118 89.329 69.6114H108.75C109.159 69.6118 109.552 69.7561 109.841 70.0126C110.13 70.2692 110.293 70.617 110.293 70.9798V80.1563C110.293 80.5191 110.13 80.867 109.841 81.1235C109.552 81.38 109.159 81.5243 108.75 81.5247Z" fill="#E84118"/>
<path d="M138.305 81.5247H118.884C118.475 81.5243 118.082 81.38 117.793 81.1235C117.504 80.867 117.341 80.5191 117.341 80.1563V70.9798C117.341 70.617 117.504 70.2692 117.793 70.0126C118.082 69.7561 118.475 69.6118 118.884 69.6114H138.305C138.714 69.6118 139.106 69.7561 139.396 70.0126C139.685 70.2692 139.848 70.617 139.848 70.9798V80.1563C139.848 80.5191 139.685 80.867 139.396 81.1235C139.106 81.38 138.714 81.5243 138.305 81.5247Z" fill="#E84118"/>
<path d="M167.86 81.5247H148.438C148.029 81.5243 147.637 81.38 147.348 81.1235C147.059 80.867 146.896 80.5191 146.896 80.1563V70.9798C146.896 70.617 147.059 70.2692 147.348 70.0126C147.637 69.7561 148.029 69.6118 148.438 69.6114H167.86C168.269 69.6118 168.661 69.7561 168.95 70.0126C169.24 70.2692 169.402 70.617 169.403 70.9798V80.1563C169.402 80.5191 169.24 80.867 168.95 81.1235C168.661 81.38 168.269 81.5243 167.86 81.5247Z" fill="#E84118"/>
<path d="M108.75 112.126H89.329C88.9199 112.125 88.5278 111.981 88.2385 111.725C87.9493 111.468 87.7866 111.12 87.7861 110.757V101.581C87.7866 101.218 87.9493 100.87 88.2385 100.614C88.5278 100.357 88.9199 100.213 89.329 100.212H108.75C109.159 100.213 109.552 100.357 109.841 100.614C110.13 100.87 110.293 101.218 110.293 101.581V110.757C110.293 111.12 110.13 111.468 109.841 111.725C109.552 111.981 109.159 112.125 108.75 112.126Z" fill="#E84118"/>
<path d="M138.305 112.126H118.884C118.475 112.125 118.082 111.981 117.793 111.725C117.504 111.468 117.341 111.12 117.341 110.757V101.581C117.341 101.218 117.504 100.87 117.793 100.614C118.082 100.357 118.475 100.213 118.884 100.212H138.305C138.714 100.213 139.106 100.357 139.396 100.614C139.685 100.87 139.848 101.218 139.848 101.581V110.757C139.848 111.12 139.685 111.468 139.396 111.725C139.106 111.981 138.714 112.125 138.305 112.126Z" fill="#E84118"/>
<path d="M167.86 112.126H148.438C148.029 112.125 147.637 111.981 147.348 111.725C147.059 111.468 146.896 111.12 146.896 110.757V101.581C146.896 101.218 147.059 100.87 147.348 100.614C147.637 100.357 148.029 100.213 148.438 100.212H167.86C168.269 100.213 168.661 100.357 168.95 100.614C169.24 100.87 169.402 101.218 169.403 101.581V110.757C169.402 111.12 169.24 111.468 168.95 111.725C168.661 111.981 168.269 112.125 167.86 112.126Z" fill="#E84118"/>
<path d="M108.75 142.727H89.329C88.9199 142.726 88.5278 142.582 88.2385 142.325C87.9493 142.069 87.7866 141.721 87.7861 141.358V132.182C87.7866 131.819 87.9493 131.471 88.2385 131.215C88.5278 130.958 88.9199 130.814 89.329 130.813H108.75C109.159 130.814 109.552 130.958 109.841 131.215C110.13 131.471 110.293 131.819 110.293 132.182V141.358C110.293 141.721 110.13 142.069 109.841 142.325C109.552 142.582 109.159 142.726 108.75 142.727Z" fill="#E84118"/>
<path d="M138.305 142.727H118.884C118.475 142.726 118.082 142.582 117.793 142.325C117.504 142.069 117.341 141.721 117.341 141.358V132.182C117.341 131.819 117.504 131.471 117.793 131.215C118.082 130.958 118.475 130.814 118.884 130.813H138.305C138.714 130.814 139.106 130.958 139.396 131.215C139.685 131.471 139.848 131.819 139.848 132.182V141.358C139.848 141.721 139.685 142.069 139.396 142.325C139.106 142.582 138.714 142.726 138.305 142.727Z" fill="#E84118"/>
<path d="M167.86 142.727H148.438C148.029 142.726 147.637 142.582 147.348 142.325C147.059 142.069 146.896 141.721 146.896 141.358V132.182C146.896 131.819 147.059 131.471 147.348 131.215C147.637 130.958 148.029 130.814 148.438 130.813H167.86C168.269 130.814 168.661 130.958 168.95 131.215C169.24 131.471 169.402 131.819 169.403 132.182V141.358C169.402 141.721 169.24 142.069 168.95 142.325C168.661 142.582 168.269 142.726 167.86 142.727Z" fill="#E84118"/>
<path d="M105.606 82.7022H83.1073C82.5636 82.7016 82.0424 82.5098 81.6579 82.1688C81.2735 81.8278 81.0572 81.3655 81.0566 80.8833V70.2529C81.0572 69.7707 81.2735 69.3083 81.6579 68.9673C82.0424 68.6263 82.5636 68.4345 83.1073 68.434H105.606C106.15 68.4345 106.671 68.6263 107.055 68.9673C107.44 69.3083 107.656 69.7706 107.657 70.2529V80.8833C107.656 81.3655 107.44 81.8278 107.055 82.1688C106.671 82.5098 106.15 82.7017 105.606 82.7022ZM83.1073 68.9012C82.7032 68.9016 82.3159 69.0441 82.0302 69.2975C81.7445 69.5509 81.5838 69.8945 81.5834 70.2529V80.8833C81.5838 81.2417 81.7445 81.5852 82.0302 81.8386C82.3159 82.0921 82.7032 82.2346 83.1073 82.235H105.606C106.01 82.2346 106.397 82.0921 106.683 81.8387C106.969 81.5852 107.129 81.2417 107.13 80.8833V70.2529C107.129 69.8945 106.969 69.5509 106.683 69.2975C106.397 69.0441 106.01 68.9016 105.606 68.9012H83.1073Z" fill="#3F3D56"/>
<path d="M139.844 82.7022H117.345C116.801 82.7017 116.28 82.5098 115.896 82.1688C115.511 81.8278 115.295 81.3655 115.294 80.8833V70.2529C115.295 69.7706 115.511 69.3083 115.896 68.9673C116.28 68.6263 116.801 68.4345 117.345 68.434H139.844C140.387 68.4345 140.909 68.6263 141.293 68.9673C141.678 69.3083 141.894 69.7706 141.894 70.2529V80.8833C141.894 81.3655 141.678 81.8278 141.293 82.1688C140.909 82.5098 140.387 82.7016 139.844 82.7022ZM117.345 68.9012C116.941 68.9016 116.554 69.0441 116.268 69.2975C115.982 69.5509 115.822 69.8945 115.821 70.2529V80.8833C115.822 81.2417 115.982 81.5852 116.268 81.8387C116.554 82.0921 116.941 82.2346 117.345 82.235H139.844C140.248 82.2346 140.635 82.0921 140.921 81.8387C141.207 81.5852 141.367 81.2417 141.368 80.8833V70.2529C141.367 69.8945 141.207 69.5509 140.921 69.2975C140.635 69.0441 140.248 68.9016 139.844 68.9012H117.345Z" fill="#3F3D56"/>
<path d="M174.081 82.7022H151.582C151.039 82.7017 150.517 82.5098 150.133 82.1688C149.749 81.8278 149.532 81.3655 149.532 80.8833V70.2529C149.532 69.7706 149.749 69.3083 150.133 68.9673C150.517 68.6263 151.039 68.4345 151.582 68.434H174.081C174.625 68.4345 175.146 68.6263 175.53 68.9673C175.915 69.3083 176.131 69.7706 176.132 70.2529V80.8833C176.131 81.3655 175.915 81.8278 175.53 82.1688C175.146 82.5098 174.625 82.7016 174.081 82.7022ZM151.582 68.9012C151.178 68.9016 150.791 69.0441 150.505 69.2975C150.22 69.5509 150.059 69.8945 150.058 70.2529V80.8833C150.059 81.2417 150.22 81.5852 150.505 81.8387C150.791 82.0921 151.178 82.2346 151.582 82.235H174.081C174.485 82.2346 174.872 82.0921 175.158 81.8387C175.444 81.5852 175.605 81.2417 175.605 80.8833V70.2529C175.605 69.8945 175.444 69.5509 175.158 69.2975C174.872 69.0441 174.485 68.9016 174.081 68.9012H151.582Z" fill="#3F3D56"/>
<path d="M105.606 113.303H83.1073C82.5636 113.303 82.0424 113.111 81.6579 112.77C81.2735 112.429 81.0572 111.966 81.0566 111.484V100.854C81.0572 100.372 81.2735 99.9093 81.6579 99.5683C82.0424 99.2273 82.5636 99.0355 83.1073 99.0349H105.606C106.15 99.0355 106.671 99.2273 107.055 99.5683C107.44 99.9093 107.656 100.372 107.657 100.854V111.484C107.656 111.966 107.44 112.429 107.055 112.77C106.671 113.111 106.15 113.303 105.606 113.303ZM83.1073 99.5021C82.7032 99.5025 82.3159 99.6451 82.0302 99.8985C81.7445 100.152 81.5838 100.495 81.5834 100.854V111.484C81.5838 111.843 81.7445 112.186 82.0302 112.44C82.3159 112.693 82.7032 112.836 83.1073 112.836H105.606C106.01 112.836 106.397 112.693 106.683 112.44C106.969 112.186 107.129 111.843 107.13 111.484V100.854C107.129 100.495 106.969 100.152 106.683 99.8985C106.397 99.645 106.01 99.5025 105.606 99.5021H83.1073Z" fill="#3F3D56"/>
<path d="M139.844 113.303H117.345C116.801 113.303 116.28 113.111 115.896 112.77C115.511 112.429 115.295 111.966 115.294 111.484V100.854C115.295 100.372 115.511 99.9093 115.896 99.5683C116.28 99.2273 116.801 99.0355 117.345 99.0349H139.844C140.387 99.0355 140.909 99.2273 141.293 99.5683C141.678 99.9093 141.894 100.372 141.894 100.854V111.484C141.894 111.966 141.678 112.429 141.293 112.77C140.909 113.111 140.387 113.303 139.844 113.303ZM117.345 99.5021C116.941 99.5025 116.554 99.645 116.268 99.8985C115.982 100.152 115.822 100.495 115.821 100.854V111.484C115.822 111.843 115.982 112.186 116.268 112.44C116.554 112.693 116.941 112.836 117.345 112.836H139.844C140.248 112.836 140.635 112.693 140.921 112.44C141.207 112.186 141.367 111.843 141.368 111.484V100.854C141.367 100.495 141.207 100.152 140.921 99.8985C140.635 99.645 140.248 99.5025 139.844 99.5021H117.345Z" fill="#3F3D56"/>
<path d="M174.081 113.303H151.582C151.039 113.303 150.517 113.111 150.133 112.77C149.749 112.429 149.532 111.966 149.532 111.484V100.854C149.532 100.372 149.749 99.9093 150.133 99.5683C150.517 99.2273 151.039 99.0355 151.582 99.0349H174.081C174.625 99.0355 175.146 99.2273 175.53 99.5683C175.915 99.9093 176.131 100.372 176.132 100.854V111.484C176.131 111.966 175.915 112.429 175.53 112.77C175.146 113.111 174.625 113.303 174.081 113.303ZM151.582 99.5021C151.178 99.5025 150.791 99.645 150.505 99.8985C150.22 100.152 150.059 100.495 150.058 100.854V111.484C150.059 111.843 150.22 112.186 150.505 112.44C150.791 112.693 151.178 112.836 151.582 112.836H174.081C174.485 112.836 174.872 112.693 175.158 112.44C175.444 112.186 175.605 111.843 175.605 111.484V100.854C175.605 100.495 175.444 100.152 175.158 99.8985C174.872 99.645 174.485 99.5025 174.081 99.5021H151.582Z" fill="#3F3D56"/>
<path d="M105.606 143.904H83.1073C82.5636 143.904 82.0424 143.712 81.6579 143.371C81.2735 143.03 81.0572 142.568 81.0566 142.085V131.455C81.0572 130.973 81.2735 130.51 81.6579 130.169C82.0424 129.828 82.5636 129.637 83.1073 129.636H105.606C106.15 129.637 106.671 129.828 107.055 130.169C107.44 130.51 107.656 130.973 107.657 131.455V142.085C107.656 142.568 107.44 143.03 107.055 143.371C106.671 143.712 106.15 143.904 105.606 143.904ZM83.1073 130.103C82.7032 130.104 82.3159 130.246 82.0302 130.5C81.7445 130.753 81.5838 131.097 81.5834 131.455V142.085C81.5838 142.444 81.7445 142.787 82.0302 143.041C82.3159 143.294 82.7032 143.437 83.1073 143.437H105.606C106.01 143.437 106.397 143.294 106.683 143.041C106.969 142.787 107.129 142.444 107.13 142.085V131.455C107.129 131.097 106.969 130.753 106.683 130.5C106.397 130.246 106.01 130.104 105.606 130.103H83.1073Z" fill="#3F3D56"/>
<path d="M139.844 143.904H117.345C116.801 143.904 116.28 143.712 115.896 143.371C115.511 143.03 115.295 142.568 115.294 142.085V131.455C115.295 130.973 115.511 130.51 115.896 130.169C116.28 129.828 116.801 129.637 117.345 129.636H139.844C140.387 129.637 140.909 129.828 141.293 130.169C141.678 130.51 141.894 130.973 141.894 131.455V142.085C141.894 142.568 141.678 143.03 141.293 143.371C140.909 143.712 140.387 143.904 139.844 143.904ZM117.345 130.103C116.941 130.104 116.554 130.246 116.268 130.5C115.982 130.753 115.822 131.097 115.821 131.455V142.085C115.822 142.444 115.982 142.787 116.268 143.041C116.554 143.294 116.941 143.437 117.345 143.437H139.844C140.248 143.437 140.635 143.294 140.921 143.041C141.207 142.787 141.367 142.444 141.368 142.085V131.455C141.367 131.097 141.207 130.753 140.921 130.5C140.635 130.246 140.248 130.104 139.844 130.103H117.345Z" fill="#3F3D56"/>
<path d="M174.081 143.904H151.582C151.039 143.904 150.517 143.712 150.133 143.371C149.749 143.03 149.532 142.568 149.532 142.085V131.455C149.532 130.973 149.749 130.51 150.133 130.169C150.517 129.828 151.039 129.637 151.582 129.636H174.081C174.625 129.637 175.146 129.828 175.53 130.169C175.915 130.51 176.131 130.973 176.132 131.455V142.085C176.131 142.568 175.915 143.03 175.53 143.371C175.146 143.712 174.625 143.904 174.081 143.904ZM151.582 130.103C151.178 130.104 150.791 130.246 150.505 130.5C150.22 130.753 150.059 131.097 150.058 131.455V142.085C150.059 142.444 150.22 142.787 150.505 143.041C150.791 143.294 151.178 143.437 151.582 143.437H174.081C174.485 143.437 174.872 143.294 175.158 143.041C175.444 142.787 175.605 142.444 175.605 142.085V131.455C175.605 131.097 175.444 130.753 175.158 130.5C174.872 130.246 174.485 130.104 174.081 130.103H151.582Z" fill="#3F3D56"/>
<path d="M265.737 179.985H0.263366C0.193517 179.985 0.126529 179.961 0.077138 179.917C0.0277472 179.873 0 179.813 0 179.752C0 179.69 0.0277472 179.63 0.077138 179.586C0.126529 179.543 0.193517 179.518 0.263366 179.518H265.737C265.806 179.518 265.873 179.543 265.923 179.586C265.972 179.63 266 179.69 266 179.752C266 179.813 265.972 179.873 265.923 179.917C265.873 179.961 265.806 179.985 265.737 179.985Z" fill="#3F3D56"/>
<path d="M141.894 157.376C141.901 156.842 141.67 156.329 141.25 155.947C140.83 155.565 140.257 155.347 139.656 155.341H128.594V179.518H141.894V157.376Z" fill="#3F3D56"/>
<path d="M128.857 179.284H115.031V157.443C115.032 156.855 115.295 156.291 115.764 155.875C116.233 155.459 116.869 155.225 117.533 155.224H128.857V179.284ZM115.557 178.817H128.331V155.691H117.533C117.009 155.692 116.507 155.877 116.137 156.205C115.766 156.533 115.558 156.979 115.557 157.443V178.817Z" fill="#3F3D56"/>
<path d="M116.743 168.889C117.179 168.889 117.533 168.576 117.533 168.189C117.533 167.802 117.179 167.488 116.743 167.488C116.306 167.488 115.953 167.802 115.953 168.189C115.953 168.576 116.306 168.889 116.743 168.889Z" fill="#3F3D56"/>
</g>
<defs>
<clipPath id="clip0_1133_2844">
<rect width="266" height="180" fill="white"/>
</clipPath>
</defs>
</svg>
