<svg width="12" height="12" viewBox="0 0 12 12" fill="none" xmlns="http://www.w3.org/2000/svg">
<mask id="mask0_1279_3176" style="mask-type:alpha" maskUnits="userSpaceOnUse" x="0" y="0" width="12" height="12">
<rect width="12" height="12" fill="#D9D9D9"/>
</mask>
<g mask="url(#mask0_1279_3176)">
<path d="M6.00005 11C5.37505 11 4.78972 10.8814 4.24405 10.644C3.69805 10.4064 3.22305 10.0854 2.81905 9.68105C2.41472 9.27705 2.09372 8.80205 1.85605 8.25605C1.61872 7.71038 1.50005 7.12505 1.50005 6.50005C1.50005 5.87505 1.61872 5.28955 1.85605 4.74355C2.09372 4.19788 2.41472 3.72288 2.81905 3.31855C3.22305 2.91455 3.69805 2.59388 4.24405 2.35655C4.78972 2.11888 5.37505 2.00005 6.00005 2.00005C6.62505 2.00005 7.21055 2.11888 7.75655 2.35655C8.30222 2.59388 8.77722 2.91455 9.18155 3.31855C9.58555 3.72288 9.90638 4.19788 10.144 4.74355C10.3814 5.28955 10.5 5.87505 10.5 6.50005C10.5 7.12505 10.3814 7.71038 10.144 8.25605C9.90638 8.80205 9.58555 9.27705 9.18155 9.68105C8.77722 10.0854 8.30222 10.4064 7.75655 10.644C7.21055 10.8814 6.62505 11 6.00005 11ZM7.40005 8.60005L8.10005 7.90005L6.50005 6.30005V4.00005H5.50005V6.70005L7.40005 8.60005ZM2.80005 1.17505L3.50005 1.87505L1.37505 4.00005L0.675049 3.30005L2.80005 1.17505ZM9.20005 1.17505L11.325 3.30005L10.625 4.00005L8.50005 1.87505L9.20005 1.17505ZM6.00005 10C6.97505 10 7.80205 9.66038 8.48105 8.98105C9.16038 8.30205 9.50005 7.47505 9.50005 6.50005C9.50005 5.52505 9.16038 4.69788 8.48105 4.01855C7.80205 3.33955 6.97505 3.00005 6.00005 3.00005C5.02505 3.00005 4.19805 3.33955 3.51905 4.01855C2.83972 4.69788 2.50005 5.52505 2.50005 6.50005C2.50005 7.47505 2.83972 8.30205 3.51905 8.98105C4.19805 9.66038 5.02505 10 6.00005 10Z" fill="#E4E838"/>
</g>
</svg>
