<svg width="22" height="26" viewBox="0 0 22 26" fill="none" xmlns="http://www.w3.org/2000/svg">
<path d="M18.3937 13.7396C18.382 11.6093 19.3523 10.0014 21.3162 8.81723C20.2173 7.25578 18.5574 6.3967 16.3656 6.22836C14.2906 6.06584 12.0228 7.42992 11.1929 7.42992C10.3162 7.42992 8.30553 6.28641 6.72742 6.28641C3.46599 6.33865 0 8.86947 0 14.0182C0 15.539 0.280553 17.112 0.841658 18.7315C1.5898 20.8618 4.29012 26.086 7.10733 25.9989C8.58023 25.9641 9.62062 24.9599 11.5377 24.9599C13.3964 24.9599 14.3608 25.9989 16.0032 25.9989C18.8438 25.9583 21.2869 21.2101 22 19.074C18.1892 17.292 18.3937 13.8498 18.3937 13.7396ZM15.0855 4.20835C16.6812 2.32766 16.5351 0.61529 16.4883 0C15.0797 0.0812648 13.449 0.951959 12.5197 2.02582C11.4968 3.17513 10.8948 4.59726 11.0234 6.19934C12.5489 6.31543 13.94 5.53761 15.0855 4.20835Z" fill="black"/>
</svg>
