<svg width="10" height="12" viewBox="0 0 10 12" fill="none" xmlns="http://www.w3.org/2000/svg">
<path d="M5 6.66667C4.84259 6.66667 4.71074 6.61333 4.60444 6.50667C4.49778 6.40037 4.44444 6.26852 4.44444 6.11111C4.44444 5.9537 4.49778 5.82167 4.60444 5.715C4.71074 5.6087 4.84259 5.55556 5 5.55556C5.15741 5.55556 5.28944 5.6087 5.39611 5.715C5.50241 5.82167 5.55556 5.9537 5.55556 6.11111C5.55556 6.26852 5.50241 6.40037 5.39611 6.50667C5.28944 6.61333 5.15741 6.66667 5 6.66667ZM2.77778 6.66667C2.62037 6.66667 2.48833 6.61333 2.38167 6.50667C2.27537 6.40037 2.22222 6.26852 2.22222 6.11111C2.22222 5.9537 2.27537 5.82167 2.38167 5.715C2.48833 5.6087 2.62037 5.55556 2.77778 5.55556C2.93519 5.55556 3.06722 5.6087 3.17389 5.715C3.28019 5.82167 3.33333 5.9537 3.33333 6.11111C3.33333 6.26852 3.28019 6.40037 3.17389 6.50667C3.06722 6.61333 2.93519 6.66667 2.77778 6.66667ZM7.22222 6.66667C7.06482 6.66667 6.93296 6.61333 6.82667 6.50667C6.72 6.40037 6.66667 6.26852 6.66667 6.11111C6.66667 5.9537 6.72 5.82167 6.82667 5.715C6.93296 5.6087 7.06482 5.55556 7.22222 5.55556C7.37963 5.55556 7.51148 5.6087 7.61778 5.715C7.72444 5.82167 7.77778 5.9537 7.77778 6.11111C7.77778 6.26852 7.72444 6.40037 7.61778 6.50667C7.51148 6.61333 7.37963 6.66667 7.22222 6.66667ZM5 8.88889C4.84259 8.88889 4.71074 8.83556 4.60444 8.72889C4.49778 8.62259 4.44444 8.49074 4.44444 8.33333C4.44444 8.17593 4.49778 8.04407 4.60444 7.93778C4.71074 7.83111 4.84259 7.77778 5 7.77778C5.15741 7.77778 5.28944 7.83111 5.39611 7.93778C5.50241 8.04407 5.55556 8.17593 5.55556 8.33333C5.55556 8.49074 5.50241 8.62259 5.39611 8.72889C5.28944 8.83556 5.15741 8.88889 5 8.88889ZM2.77778 8.88889C2.62037 8.88889 2.48833 8.83556 2.38167 8.72889C2.27537 8.62259 2.22222 8.49074 2.22222 8.33333C2.22222 8.17593 2.27537 8.04407 2.38167 7.93778C2.48833 7.83111 2.62037 7.77778 2.77778 7.77778C2.93519 7.77778 3.06722 7.83111 3.17389 7.93778C3.28019 8.04407 3.33333 8.17593 3.33333 8.33333C3.33333 8.49074 3.28019 8.62259 3.17389 8.72889C3.06722 8.83556 2.93519 8.88889 2.77778 8.88889ZM7.22222 8.88889C7.06482 8.88889 6.93296 8.83556 6.82667 8.72889C6.72 8.62259 6.66667 8.49074 6.66667 8.33333C6.66667 8.17593 6.72 8.04407 6.82667 7.93778C6.93296 7.83111 7.06482 7.77778 7.22222 7.77778C7.37963 7.77778 7.51148 7.83111 7.61778 7.93778C7.72444 8.04407 7.77778 8.17593 7.77778 8.33333C7.77778 8.49074 7.72444 8.62259 7.61778 8.72889C7.51148 8.83556 7.37963 8.88889 7.22222 8.88889ZM1.11111 11.1111C0.805556 11.1111 0.543889 11.0024 0.326111 10.785C0.108704 10.5672 0 10.3056 0 10V2.22222C0 1.91667 0.108704 1.65519 0.326111 1.43778C0.543889 1.22 0.805556 1.11111 1.11111 1.11111H1.66667V0H2.77778V1.11111H7.22222V0H8.33333V1.11111H8.88889C9.19444 1.11111 9.45611 1.22 9.67389 1.43778C9.8913 1.65519 10 1.91667 10 2.22222V10C10 10.3056 9.8913 10.5672 9.67389 10.785C9.45611 11.0024 9.19444 11.1111 8.88889 11.1111H1.11111ZM1.11111 10H8.88889V4.44444H1.11111V10ZM1.11111 3.33333H8.88889V2.22222H1.11111V3.33333Z" fill="#7F67CA"/>
</svg>
