<svg width="124" height="124" viewBox="0 0 124 124" fill="none" xmlns="http://www.w3.org/2000/svg">
<g clip-path="url(#clip0_999_1901)">
<path d="M20.5671 43.1667C20.277 43.2002 19.9851 43.208 19.6939 43.19C19.6443 43.1838 19.5945 43.2002 19.5553 43.2356C19.5161 43.2711 19.4906 43.3228 19.4843 43.3796L18.9273 48.1704C18.8844 48.5182 18.7603 48.8462 18.568 49.1195C18.4094 49.3371 18.2915 49.5897 18.2217 49.8616C18.1518 50.1336 18.1315 50.4191 18.1619 50.7004V58.8386C18.1619 58.8386 18.126 59.9237 18.853 59.9237C19.7232 60.049 20.6037 60.049 21.4739 59.9237C21.4739 59.9237 22.056 59.7973 22.056 58.796V50.7829C22.1004 50.5033 22.0913 50.216 22.0292 49.9409C21.9672 49.6658 21.8537 49.4094 21.6967 49.1896C21.5108 48.9152 21.3906 48.5899 21.3481 48.246L20.7695 43.3549C20.763 43.2999 20.7384 43.2498 20.7008 43.2149C20.6632 43.1799 20.6154 43.1627 20.5671 43.1667Z" fill="white"/>
<path d="M20.1608 60.1548C19.721 60.1548 19.2816 60.1235 18.8452 60.061C18.7477 60.0636 18.6507 60.0431 18.5605 60.0007C18.4702 59.9584 18.3885 59.8951 18.3206 59.8148C18.0248 59.4624 18.0412 58.8589 18.0421 58.8333L18.042 50.7088C18.0111 50.4101 18.0337 50.1073 18.1083 49.8189C18.1829 49.5305 18.308 49.2626 18.4759 49.0315C18.6539 48.7778 18.7689 48.4737 18.8085 48.1512L19.3654 43.3614C19.3763 43.2693 19.418 43.1856 19.4817 43.1282C19.5454 43.0707 19.6261 43.0439 19.7068 43.0535C19.9896 43.0706 20.2732 43.0628 20.555 43.03L20.5583 43.0297C20.637 43.0232 20.7148 43.0512 20.7761 43.1081C20.8373 43.1651 20.8774 43.2466 20.8881 43.3362L21.4667 48.2276C21.5064 48.5475 21.6183 48.85 21.7911 49.1053C21.9576 49.3385 22.0781 49.6103 22.1445 49.902C22.2109 50.1936 22.2215 50.4983 22.1756 50.7951V58.796C22.1756 59.8983 21.5028 60.0572 21.496 60.0586C21.0531 60.1226 20.6072 60.1548 20.1608 60.1548ZM19.6775 43.3266C19.6597 43.3256 19.6422 43.3323 19.6284 43.3453C19.6146 43.3583 19.6056 43.3767 19.603 43.3969L19.0459 48.1886C19.0001 48.5613 18.8671 48.9128 18.661 49.2058C18.5129 49.4092 18.4028 49.6453 18.3373 49.8995C18.2719 50.1536 18.2526 50.4205 18.2806 50.6835L18.2815 50.7004V58.8386C18.2813 58.8487 18.2686 59.3576 18.4938 59.6249C18.5404 59.6793 18.5964 59.7218 18.6583 59.7496C18.7202 59.7774 18.7865 59.7899 18.8529 59.7863L18.8679 59.7874C19.7281 59.9112 20.5985 59.9112 21.4588 59.7874C21.4702 59.7842 21.9361 59.6623 21.9361 58.796L21.938 50.7583C21.9795 50.4983 21.9711 50.2311 21.9134 49.9752C21.8557 49.7193 21.75 49.4809 21.6039 49.2766C21.4043 48.9827 21.2752 48.634 21.2294 48.2653L20.6507 43.3733C20.6482 43.3532 20.6392 43.335 20.6256 43.3221C20.6119 43.3092 20.5945 43.3026 20.5769 43.3036C20.2813 43.3375 19.984 43.3454 19.6874 43.3272C19.6841 43.3268 19.6808 43.3266 19.6775 43.3266Z" fill="#3F3D56"/>
<path d="M19.6878 50.846H20.5706C20.9217 50.846 21.2583 51.0059 21.5066 51.2906C21.7548 51.5752 21.8942 51.9612 21.8942 52.3638V56.1726C21.8942 56.5751 21.7548 56.9611 21.5066 57.2458C21.2583 57.5304 20.9217 57.6903 20.5706 57.6903H19.6878C19.3368 57.6903 19.0001 57.5304 18.7519 57.2458C18.5037 56.9611 18.3643 56.5751 18.3643 56.1726V52.3638C18.3643 52.1645 18.3985 51.9671 18.465 51.783C18.5315 51.5988 18.629 51.4315 18.7519 51.2906C18.8748 51.1496 19.0207 51.0378 19.1813 50.9616C19.3419 50.8853 19.514 50.846 19.6878 50.846Z" fill="#E84118"/>
<path d="M3.45803 120.801H6.33613L7.70536 108.071L3.45752 108.071L3.45803 120.801Z" fill="#9F616A"/>
<path d="M2.72412 119.723L8.39214 119.723H8.39237C9.35034 119.723 10.2691 120.16 10.9464 120.936C11.6238 121.713 12.0044 122.767 12.0045 123.865V124L2.72429 124L2.72412 119.723Z" fill="#2F2E41"/>
<path d="M1.6487 75.3335C1.6487 75.3335 0.401354 76.9503 2.46677 83.2528L2.10297 117.811L8.79634 117.661L10.2676 100.804L12.9464 76.2046L1.6487 75.3335Z" fill="#2F2E41"/>
<path d="M15.242 80.1113L15.1688 80.0985C6.60608 78.601 0.144538 77.1654 0.0802684 77.1511L0 77.1333L2.24464 70.8729C2.22691 70.2187 1.74102 51.8488 2.67116 46.571C3.5716 41.4617 7.81596 40.6244 8.29962 40.5456L8.78527 38.7004L14.9208 42.3614L15.9909 46.5846L16.2083 58.1591L15.242 80.1113Z" fill="#3F3D56"/>
<path d="M18.9374 56.2884C18.6611 56.2883 18.3877 56.3538 18.1346 56.4808C17.8814 56.6077 17.6539 56.7934 17.4664 57.0261H7.15354L3.37598 57.9481L3.99619 63.4335L17.434 60.1196C17.6565 60.4077 17.9384 60.6273 18.2539 60.7584C18.5695 60.8895 18.9086 60.9278 19.2404 60.8699C19.5722 60.812 19.886 60.6598 20.1533 60.4271C20.4206 60.1943 20.6327 59.8885 20.7704 59.5376C20.9081 59.1867 20.967 58.8018 20.9416 58.418C20.9162 58.0343 20.8074 57.664 20.6251 57.3409C20.4429 57.0178 20.1929 56.7522 19.8981 56.5683C19.6032 56.3845 19.273 56.2882 18.9374 56.2884Z" fill="#9F616A"/>
<path d="M19.0268 36.6269C20.3434 33.865 19.4582 30.402 17.0496 28.8922C14.641 27.3824 11.6211 28.3975 10.3044 31.1594C8.98778 33.9213 9.87297 37.3842 12.2816 38.894C14.6902 40.4038 17.7101 39.3888 19.0268 36.6269Z" fill="#9F616A"/>
<path d="M9.99101 29.3368L9.75006 28.7807L10.9625 28.09C10.9625 28.09 12.3 25.5945 14.7202 26.2958C17.1405 26.997 18.2294 27.4167 18.2294 27.4167L19.4388 28.1145L18.8318 28.807L19.9207 29.2267L19.1932 29.6412L20.0396 30.1991L19.584 33.0588C19.584 33.0588 18.8272 30.8898 17.3723 31.7187C15.9174 32.5476 13.2562 31.2902 13.2562 31.2902L10.9441 36.4211C10.9441 36.4211 10.4672 34.6224 9.61675 35.102C9.61675 35.102 7.44416 31.1345 9.99101 29.3368Z" fill="#2F2E41"/>
<path d="M4.0623 64.4617L2.88293 60.439L2.59766 47.0295L3.10016 45.127C3.28103 44.4422 3.5806 43.8064 3.98092 43.2575C4.38123 42.7087 4.87405 42.2582 5.42984 41.933C5.98564 41.6078 6.59296 41.4146 7.21542 41.365C7.83788 41.3155 8.46267 41.4105 9.05233 41.6444C9.642 41.8784 10.1844 42.2464 10.6471 42.7265C11.1097 43.2065 11.4831 43.7888 11.7448 44.4383C12.0065 45.0878 12.1512 45.7912 12.1701 46.5064C12.1891 47.2215 12.0819 47.9337 11.8551 48.6003L9.16171 56.5145L9.29862 56.8192L15.1338 56.765L17.2066 61.0433L4.0623 64.4617Z" fill="#3F3D56"/>
<path d="M62.4447 62.8088C62.6625 62.6407 62.8454 62.4198 62.9807 62.1617C63.116 61.9037 63.2002 61.6148 63.2276 61.3153C63.255 61.0159 63.2247 60.7132 63.139 60.4286C63.0533 60.144 62.9143 59.8845 62.7316 59.6682L65.6079 53.1351L62.3135 53.5733L60.0872 59.71C59.7906 60.0859 59.6247 60.5735 59.6207 61.0804C59.6167 61.5873 59.775 62.0782 60.0656 62.4602C60.3562 62.8422 60.7589 63.0886 61.1974 63.1529C61.6359 63.2171 62.0797 63.0947 62.4447 62.8088Z" fill="#FFB7B7"/>
<path d="M85.5119 109.086L82.9197 109.086L81.6865 97.6206L85.5123 97.621L85.5119 109.086Z" fill="#FFB7B7"/>
<path d="M86.1732 111.967L77.8149 111.967V111.846C77.815 110.856 78.1578 109.907 78.7679 109.208C79.378 108.508 80.2054 108.115 81.0682 108.115H81.0684L86.1733 108.115L86.1732 111.967Z" fill="#2F2E41"/>
<path d="M71.3457 109.086L68.7534 109.086L67.5203 97.6206L71.3462 97.621L71.3457 109.086Z" fill="#FFB7B7"/>
<path d="M71.3726 111.967L63.0144 111.967V111.846C63.0145 110.856 63.3572 109.907 63.9673 109.208C64.5774 108.508 65.4049 108.115 66.2677 108.115H66.2679L71.3728 108.115L71.3726 111.967Z" fill="#2F2E41"/>
<path d="M71.1334 60.6631L68.5961 67.3657L66.5032 105.891L71.789 105.649L73.2327 87.2835L77.6862 70.9263L80.2465 89.162L81.3038 105.164L85.6775 105.381L87.4205 60.6631H71.1334Z" fill="#2F2E41"/>
<path d="M83.8161 27.589L76.4623 27.7999L72.145 30.3414L71.908 49.0919L69.2153 62.0376C69.2153 62.0376 86.0395 63.3654 88.3653 61.4258L85.6166 46.6363L89.3032 30.653L83.8161 27.589Z" fill="#E84118"/>
<path d="M73.2807 30.6522L72.5961 30.122C72.5961 30.122 69.76 31.0968 68.9217 35.4332C68.9217 35.4332 68.2803 37.6089 67.9988 39.1047C67.676 40.8204 60.5474 56.5796 60.5474 56.5796L64.8154 57.9837L72.6401 43.4733L73.2807 30.6522Z" fill="#E84118"/>
<path d="M89.1881 65.2132C89.0192 64.9827 88.8964 64.7125 88.8285 64.4217C88.7605 64.1309 88.749 63.8265 88.7947 63.5301C88.8404 63.2336 88.9423 62.9522 89.0931 62.7058C89.2439 62.4593 89.44 62.2538 89.6675 62.1036L88.4739 54.9143L91.5352 56.3772L92.1994 62.98C92.394 63.4351 92.4363 63.9563 92.3182 64.4448C92.2002 64.9333 91.9299 65.3551 91.5588 65.6304C91.1876 65.9056 90.7412 66.0152 90.3043 65.9383C89.8674 65.8615 89.4702 65.6035 89.1881 65.2132Z" fill="#FFB7B7"/>
<path d="M88.1968 30.877L88.9823 30.5838C88.9823 30.5838 91.4741 32.4176 91.237 36.851C91.237 36.851 91.3304 39.1451 91.2412 40.6719C91.1389 42.4231 92.5098 59.8255 92.5098 59.8255H88.0697L86.1667 44.0662L88.1968 30.877Z" fill="#E84118"/>
<path d="M85.6215 19.7223C85.6215 20.8784 85.3225 22.0086 84.7623 22.9699C84.2022 23.9311 83.4061 24.6804 82.4746 25.1228C81.5431 25.5652 80.5181 25.681 79.5292 25.4555C78.5404 25.2299 77.632 24.6732 76.9191 23.8557C76.2062 23.0382 75.7207 21.9966 75.524 20.8627C75.3273 19.7288 75.4282 18.5534 75.8141 17.4853C76.1999 16.4172 76.8533 15.5042 77.6916 14.8619C78.5299 14.2196 79.5155 13.8768 80.5237 13.8768C81.8724 13.8729 83.1671 14.4835 84.1231 15.5743C85.0791 16.6651 85.6181 18.1467 85.6215 19.6932C85.6215 19.7029 85.6215 19.7126 85.6215 19.7223Z" fill="#FFB7B7"/>
<path d="M75.4429 11.8707C76.0401 10.3983 77.1957 10.6894 78.2064 11.1885C79.4863 10.863 80.7035 9.88835 82.0825 10.4647C83.4409 12.7302 88.0016 12.0637 87.0313 15.7519C87.03 16.6357 88.4816 16.1213 88.2281 17.5687C88.9971 20.3543 85.4527 25.6297 83.4179 24.5188C83.9211 23.4612 85.0707 21.0591 83.3271 20.8208C79.5764 24.8226 82.9401 13.2005 78.2275 16.5804C76.6671 18.2179 74.5309 13.5086 75.4429 11.8707Z" fill="#2F2E41"/>
<path d="M90.0805 65.7961C90.3233 65.8521 90.5738 65.8464 90.8145 65.7793C91.0552 65.7122 91.2801 65.5855 91.4734 65.4079C91.6667 65.2304 91.8237 65.0065 91.9334 64.7518C92.043 64.4972 92.1027 64.2181 92.1081 63.9341L104.908 50.1193L102.028 47.4849L90.3299 61.9277C89.9134 61.9489 89.5181 62.1446 89.2189 62.4776C88.9198 62.8107 88.7375 63.258 88.7068 63.7349C88.676 64.2117 88.7989 64.6849 89.0521 65.0648C89.3053 65.4447 89.6712 65.7049 90.0805 65.7961Z" fill="#9F616A"/>
<path d="M103.094 52.3523L100.604 49.0059C100.533 48.9107 100.481 48.7991 100.451 48.6787C100.421 48.5583 100.415 48.4319 100.431 48.3082C100.448 48.1845 100.487 48.0663 100.547 47.9618C100.607 47.8572 100.686 47.7687 100.779 47.7023L104.021 45.3751C104.448 44.9621 105 44.76 105.557 44.8133C106.113 44.8665 106.629 45.1707 106.99 45.6591C107.351 46.1476 107.529 46.7803 107.484 47.4187C107.439 48.0571 107.175 48.649 106.75 49.0645L104.245 52.3596C104.173 52.4539 104.084 52.5294 103.985 52.5809C103.885 52.6324 103.777 52.6587 103.668 52.658C103.559 52.6573 103.451 52.6296 103.352 52.5769C103.253 52.5241 103.165 52.4475 103.094 52.3523Z" fill="#CBCBCB"/>
<path d="M96.3978 120.521L93.2682 120.521L91.7793 106.679L96.3983 106.68L96.3978 120.521Z" fill="#9F616A"/>
<path d="M97.196 124L87.105 124V123.853C87.1051 122.659 87.5189 121.513 88.2555 120.669C88.992 119.824 89.991 119.349 91.0327 119.349H91.0329L97.1962 119.35L97.196 124Z" fill="#2F2E41"/>
<path d="M121.414 120.521L118.285 120.521L116.796 106.679L121.415 106.68L121.414 120.521Z" fill="#9F616A"/>
<path d="M122.212 124L112.121 124V123.853C112.121 122.659 112.535 121.513 113.272 120.669C114.008 119.824 115.007 119.349 116.049 119.349H116.049L122.213 119.35L122.212 124Z" fill="#2F2E41"/>
<path d="M112.996 59.6897L116.151 46.325L112.058 43.6872H106.346L104.124 46.4129C104.124 46.4129 100.412 49.3744 101.311 52.6556L102.76 60.1293L100.543 71.9993L89.3744 89.7604L86.7305 107.206L97.138 110.335L108.392 84.9245L113.849 113.061L124 112.475L120.502 78.3601C120.502 78.3601 119.505 67.9673 114.278 61.4783L112.996 59.6897Z" fill="#2F2E41"/>
<path d="M119.511 71.5147C119.687 71.3148 119.823 71.0731 119.908 70.8067C119.994 70.5402 120.028 70.2554 120.007 69.9724C119.986 69.6894 119.912 69.4151 119.788 69.1687C119.665 68.9223 119.497 68.7099 119.294 68.5464L116.846 49.6114L113.333 50.8834L116.85 69.1199C116.633 69.5282 116.554 70.0135 116.628 70.484C116.703 70.9545 116.925 71.3774 117.253 71.6726C117.581 71.9678 117.992 72.1148 118.408 72.0857C118.824 72.0566 119.217 71.8534 119.511 71.5147Z" fill="#9F616A"/>
<path d="M117.451 52.5831L113.64 53.087C113.532 53.1014 113.422 53.0887 113.318 53.05C113.214 53.0113 113.119 52.9473 113.039 52.8626C112.958 52.7778 112.895 52.6741 112.853 52.5587C112.81 52.4433 112.79 52.3188 112.794 52.1937L112.917 47.8102C112.857 47.1736 113.018 46.5353 113.367 46.0354C113.716 45.5354 114.224 45.2145 114.779 45.143C115.334 45.0715 115.891 45.2553 116.328 45.654C116.765 46.0527 117.046 46.6339 117.11 47.2701L118.098 51.4924C118.126 51.6133 118.131 51.7398 118.113 51.8632C118.095 51.9866 118.054 52.1041 117.992 52.2076C117.931 52.3111 117.851 52.3982 117.757 52.463C117.664 52.5278 117.56 52.5688 117.451 52.5831Z" fill="#CBCBCB"/>
<path d="M102.814 39.8865V34.2554C102.814 32.2542 103.507 30.3349 104.741 28.9198C105.975 27.5047 107.649 26.7097 109.394 26.7097C111.14 26.7097 112.813 27.5047 114.047 28.9198C115.282 30.3349 115.975 32.2542 115.975 34.2554V39.8865C115.975 40.1553 115.881 40.4129 115.716 40.6029C115.55 40.7929 115.325 40.8998 115.091 40.9001H103.698C103.464 40.8998 103.239 40.7929 103.073 40.6029C102.907 40.4129 102.814 40.1553 102.814 39.8865Z" fill="#2F2E41"/>
<path d="M110.356 40.0911C112.694 38.6255 113.554 35.2641 112.276 32.5832C110.998 29.9022 108.066 28.917 105.728 30.3825C103.39 31.848 102.531 35.2094 103.809 37.8904C105.087 40.5713 108.018 41.5566 110.356 40.0911Z" fill="#9F616A"/>
<path d="M101.257 34.7059C101.259 33.1234 101.808 31.6062 102.784 30.4872C103.76 29.3681 105.083 28.7387 106.463 28.7369H107.445C108.825 28.7387 110.148 29.3681 111.124 30.4872C112.1 31.6062 112.649 33.1234 112.65 34.7059V34.8185H110.575L109.867 32.5454L109.725 34.8185H108.652L108.295 33.6716L108.224 34.8185H101.257V34.7059Z" fill="#2F2E41"/>
<path d="M107.568 41.5334C107.47 41.3821 107.412 41.2023 107.4 41.0147C107.387 40.8271 107.422 40.6394 107.498 40.4731C108.539 38.2031 109.996 34.0086 108.062 31.4218L107.923 31.2359H113.539V40.9034L108.437 41.9355C108.386 41.9459 108.333 41.9512 108.281 41.9513C108.142 41.9513 108.004 41.9134 107.88 41.8408C107.756 41.7681 107.649 41.6628 107.568 41.5334Z" fill="#2F2E41"/>
<path d="M55.9541 46.6812C55.8829 46.7651 55.8176 46.8554 55.7588 46.9511L46.6092 46.6944L45.5418 44.4579L42.3877 45.8639L43.9417 50.0338C44.0673 50.3707 44.2847 50.6518 44.5615 50.8349C44.8382 51.018 45.1592 51.0932 45.4764 51.0493L55.8137 49.6174C56.0575 49.9713 56.3896 50.2318 56.7657 50.3641C57.1418 50.4964 57.5441 50.4943 57.9191 50.358C58.2941 50.2218 58.6241 49.9578 58.865 49.6013C59.106 49.2447 59.2466 48.8125 59.2682 48.3621C59.2897 47.9116 59.1912 47.4644 58.9856 47.0798C58.7801 46.6951 58.4773 46.3914 58.1175 46.2089C57.7577 46.0264 57.358 45.9739 56.9716 46.0583C56.5851 46.1426 56.2302 46.3599 55.9541 46.6812Z" fill="#FFB7B7"/>
<path d="M26.1279 110.398H29.1364L30.5676 97.092L26.1274 97.0922L26.1279 110.398Z" fill="#FFB7B7"/>
<path d="M25.3606 109.272L31.2853 109.272H31.2855C32.2869 109.272 33.2472 109.728 33.9553 110.54C34.6633 111.352 35.0611 112.453 35.0612 113.601V113.742L25.3608 113.742L25.3606 109.272Z" fill="#2F2E41"/>
<path d="M53.4455 110.321L56.212 108.966L52.9697 96.0849L48.8867 98.0853L53.4455 110.321Z" fill="#FFB7B7"/>
<path d="M52.354 109.631L57.8023 106.962L57.8026 106.962C58.7234 106.511 59.7628 106.498 60.6921 106.926C61.6214 107.354 62.3645 108.187 62.7579 109.243L62.8061 109.372L53.8856 113.742L52.354 109.631Z" fill="#2F2E41"/>
<path d="M40.7509 49.5636L40.9684 53.6061L34.6095 54.3865L27.9556 55.2029L29.914 49.0647L40.7509 49.5636Z" fill="#FFB7B7"/>
<path d="M40.9743 51.0141C40.9023 50.9817 33.7198 47.778 29.308 50.3975L29.1995 50.462L28.3194 45.4945L27.8179 34.8145L31.0812 33.0463L31.9797 30.7385L38.0997 30.3232L39.3573 32.3009L43.6391 33.91L41.08 51.0621L40.9743 51.0141Z" fill="#E4E4E4"/>
<path d="M41.1992 41.374L41.9562 34.5537L43.6798 33.9521L43.7089 33.9644C43.7487 33.9812 44.6854 34.3923 44.9418 35.8794C45.188 37.3068 47.0417 46.1894 47.0603 46.279L47.0789 46.3678L42.7236 48.366L41.1992 41.374Z" fill="#E4E4E4"/>
<path d="M51.2049 107.983L57.0025 106.619L47.7362 77.2995L44.5649 67.299C44.5649 67.299 42.5534 59.2807 41.6447 56.1777L41.0962 52.0142L28.1135 53.662C28.1135 53.662 24.4875 59.7683 25.589 69.7212L25.0908 107.131L30.8884 107.472L35.7446 69.7424L44.2676 90.4252C44.2676 90.4252 46.9539 99.2513 48.8759 101.164L51.2049 107.983Z" fill="#2F2E41"/>
<path d="M33.3198 55.0505C33.2177 55.0477 33.1156 55.0542 33.0144 55.0698L26.9577 47.2018L27.6622 44.7836L24.6186 43.0873L23.0085 47.2293C22.8784 47.5639 22.8465 47.9379 22.9176 48.295C22.9886 48.6522 23.1588 48.9733 23.4026 49.2102L31.3467 56.9288C31.2861 57.3745 31.3453 57.8308 31.5164 58.237C31.6875 58.6432 31.9624 58.98 32.3045 59.2027C32.6466 59.4254 33.0398 59.5234 33.4316 59.4836C33.8235 59.4438 34.1955 59.2682 34.4982 58.9801C34.8009 58.6919 35.0199 58.3049 35.1261 57.8706C35.2323 57.4363 35.2207 56.9751 35.0927 56.5485C34.9648 56.122 34.7267 55.7501 34.41 55.4826C34.0933 55.215 33.713 55.0643 33.3198 55.0505Z" fill="#FFB7B7"/>
<path d="M24.0703 44.253L26.4381 36.5192C26.7042 35.6075 27.0377 35.0537 27.4292 34.873C27.5064 34.8332 27.5899 34.8122 27.6745 34.8112C27.759 34.8103 27.8429 34.8296 27.9206 34.8677L28.9824 36.4059L29.9678 41.1527L27.4412 47.9675L24.0703 44.253Z" fill="#E4E4E4"/>
<path d="M39.7429 28.7228H29.3482C29.1344 28.7225 28.9294 28.625 28.7782 28.4516C28.627 28.2783 28.542 28.0432 28.5417 27.798V22.6603C28.5417 20.8344 29.1743 19.0833 30.3002 17.7922C31.4262 16.5011 32.9533 15.7758 34.5456 15.7758C36.1379 15.7758 37.665 16.5011 38.7909 17.7922C39.9168 19.0833 40.5494 20.8344 40.5494 22.6603V27.798C40.5491 28.0432 40.4641 28.2783 40.3129 28.4516C40.1617 28.625 39.9567 28.7225 39.7429 28.7228Z" fill="#2F2E41"/>
<path d="M35.7792 28.6032C38.2103 28.6032 40.181 26.3434 40.181 23.5557C40.181 20.7681 38.2103 18.5082 35.7792 18.5082C33.3482 18.5082 31.3774 20.7681 31.3774 23.5557C31.3774 26.3434 33.3482 28.6032 35.7792 28.6032Z" fill="#FFB7B7"/>
<path d="M41.9696 23.1741H35.6135L35.5483 22.1277L35.2225 23.1741H34.2438L34.1146 21.1001L33.4687 23.1741H31.575V23.0713C31.5764 21.6275 32.0772 20.2432 32.9675 19.2223C33.8579 18.2013 35.065 17.627 36.3242 17.6254H37.2203C38.4795 17.627 39.6867 18.2013 40.577 19.2222C41.4674 20.2432 41.9682 21.6275 41.9696 23.0713L41.9696 23.1741Z" fill="#2F2E41"/>
<path d="M35.5616 29.6818C35.5137 29.6818 35.466 29.6769 35.4189 29.6674L30.7646 28.7257V19.9054H35.888L35.7612 20.075C33.9964 22.4351 35.326 26.2621 36.2756 28.3332C36.3456 28.4849 36.3768 28.6561 36.3656 28.8273C36.3544 28.9984 36.3013 29.1625 36.2124 29.3005C36.138 29.4186 36.0402 29.5147 35.927 29.581C35.8139 29.6473 35.6886 29.6818 35.5616 29.6818Z" fill="#2F2E41"/>
<path d="M91.3137 50.8833C91.0236 50.9168 90.7316 50.9246 90.4405 50.9066C90.3909 50.9004 90.3411 50.9168 90.3019 50.9522C90.2627 50.9877 90.2372 51.0394 90.2309 51.0962L89.6739 55.887C89.631 56.2348 89.5069 56.5627 89.3145 56.8361C89.156 57.0536 89.0381 57.3062 88.9683 57.5782C88.8984 57.8502 88.8781 58.1357 88.9085 58.417V66.5551C88.9085 66.5551 88.8725 67.6402 89.5996 67.6402C90.4698 67.7656 91.3503 67.7656 92.2204 67.6402C92.2204 67.6402 92.8026 67.5139 92.8026 66.5126V58.4994C92.847 58.2199 92.8378 57.9326 92.7758 57.6575C92.7137 57.3823 92.6003 57.126 92.4432 56.9062C92.2574 56.6318 92.1372 56.3065 92.0947 55.9626L91.5161 51.0714C91.5095 51.0164 91.485 50.9664 91.4474 50.9314C91.4098 50.8965 91.362 50.8793 91.3137 50.8833Z" fill="white"/>
<path d="M90.9073 67.8714C90.4675 67.8714 90.0282 67.8401 89.5918 67.7776C89.4943 67.7802 89.3973 67.7597 89.3071 67.7173C89.2168 67.675 89.1351 67.6117 89.0672 67.5314C88.7713 67.179 88.7878 66.5755 88.7887 66.5499L88.7886 58.4254C88.7577 58.1267 88.7802 57.8239 88.8548 57.5355C88.9295 57.2471 89.0545 56.9792 89.2225 56.7481C89.4005 56.4944 89.5155 56.1903 89.5551 55.8678L90.112 51.078C90.1229 50.9859 90.1646 50.9022 90.2283 50.8447C90.292 50.7873 90.3727 50.7605 90.4534 50.7701C90.7362 50.7872 91.0198 50.7794 91.3016 50.7466L91.3049 50.7463C91.3836 50.7398 91.4614 50.7678 91.5227 50.8247C91.5839 50.8817 91.624 50.9632 91.6347 51.0528L92.2133 55.9441C92.253 56.2641 92.3648 56.5666 92.5377 56.8218C92.7042 57.0551 92.8247 57.3269 92.8911 57.6185C92.9575 57.9102 92.9681 58.2149 92.9222 58.5117V66.5126C92.9222 67.6149 92.2494 67.7737 92.2426 67.7752C91.7997 67.8392 91.3537 67.8713 90.9073 67.8714ZM90.4241 51.0432C90.4063 51.0422 90.3888 51.0489 90.375 51.0619C90.3612 51.0749 90.3522 51.0933 90.3496 51.1135L89.7925 55.9052C89.7467 56.2779 89.6137 56.6294 89.4076 56.9224C89.2595 57.1258 89.1494 57.3619 89.0839 57.6161C89.0185 57.8702 88.9992 58.1371 89.0272 58.4001L89.0281 58.417V66.5551C89.0279 66.5653 89.0152 67.0742 89.2404 67.3415C89.2869 67.3959 89.343 67.4383 89.4049 67.4662C89.4668 67.494 89.5331 67.5065 89.5995 67.5029L89.6144 67.504C90.4747 67.6278 91.3451 67.6278 92.2054 67.504C92.2167 67.5008 92.6827 67.3789 92.6827 66.5126L92.6846 58.4748C92.7261 58.2149 92.7177 57.9476 92.66 57.6918C92.6022 57.4359 92.4966 57.1975 92.3504 56.9932C92.1509 56.6993 92.0218 56.3506 91.976 55.9818L91.3973 51.0899C91.3948 51.0698 91.3858 51.0515 91.3721 51.0387C91.3585 51.0258 91.3411 51.0192 91.3235 51.0202C91.0279 51.0541 90.7305 51.062 90.4339 51.0438C90.4306 51.0434 90.4274 51.0432 90.4241 51.0432Z" fill="#3F3D56"/>
<path d="M90.4344 58.5627H91.3172C91.6683 58.5627 92.0049 58.7226 92.2531 59.0072C92.5014 59.2918 92.6408 59.6779 92.6408 60.0804V63.8892C92.6408 64.2917 92.5013 64.6777 92.2531 64.9624C92.0049 65.247 91.6682 65.4069 91.3172 65.4069H90.4344C90.0834 65.4069 89.7467 65.247 89.4985 64.9624C89.2503 64.6777 89.1108 64.2917 89.1108 63.8892V60.0804C89.1108 59.6779 89.2503 59.2918 89.4985 59.0072C89.7467 58.7226 90.0834 58.5627 90.4344 58.5627Z" fill="#E84118"/>
<path d="M61.3564 44.2847C61.0663 44.3182 60.7744 44.326 60.4832 44.308C60.4336 44.3018 60.3838 44.3182 60.3446 44.3536C60.3054 44.3891 60.2799 44.4408 60.2736 44.4976L59.7166 49.2884C59.6738 49.6362 59.5496 49.9641 59.3573 50.2375C59.1987 50.455 59.0809 50.7076 59.011 50.9796C58.9411 51.2516 58.9208 51.5371 58.9512 51.8184V59.9565C58.9512 59.9565 58.9153 61.0416 59.6423 61.0416C60.5125 61.167 61.393 61.167 62.2632 61.0416C62.2632 61.0416 62.8453 60.9153 62.8453 59.914V51.9008C62.8897 51.6213 62.8806 51.334 62.8185 51.0589C62.7565 50.7837 62.643 50.5274 62.486 50.3076C62.3001 50.0332 62.1799 49.7079 62.1374 49.364L61.5588 44.4728C61.5523 44.4178 61.5277 44.3678 61.4901 44.3328C61.4525 44.2979 61.4047 44.2807 61.3564 44.2847Z" fill="white"/>
<path d="M60.9501 61.2728C60.5103 61.2728 60.0709 61.2414 59.6345 61.1789C59.537 61.1816 59.44 61.1611 59.3498 61.1187C59.2595 61.0763 59.1779 61.013 59.11 60.9327C58.8141 60.5804 58.8305 59.9768 58.8314 59.9513L58.8313 51.8268C58.8004 51.5281 58.823 51.2252 58.8976 50.9369C58.9722 50.6485 59.0973 50.3805 59.2652 50.1494C59.4432 49.8958 59.5582 49.5916 59.5978 49.2692L60.1547 44.4794C60.1656 44.3872 60.2073 44.3036 60.271 44.2461C60.3347 44.1886 60.4155 44.1619 60.4961 44.1715C60.7789 44.1886 61.0625 44.1807 61.3443 44.148L61.3476 44.1477C61.4263 44.1411 61.5041 44.1692 61.5654 44.2261C61.6266 44.283 61.6667 44.3646 61.6774 44.4542L62.256 49.3455C62.2957 49.6654 62.4076 49.968 62.5804 50.2232C62.7469 50.4565 62.8674 50.7283 62.9338 51.0199C63.0002 51.3116 63.0108 51.6162 62.965 51.913V59.9139C62.965 61.0162 62.2921 61.1751 62.2853 61.1766C61.8424 61.2406 61.3965 61.2727 60.9501 61.2728ZM60.4668 44.4446C60.449 44.4436 60.4315 44.4502 60.4177 44.4632C60.4039 44.4762 60.3949 44.4946 60.3923 44.5148L59.8352 49.3065C59.7894 49.6792 59.6564 50.0308 59.4503 50.3237C59.3022 50.5272 59.1921 50.7633 59.1267 51.0174C59.0612 51.2716 59.0419 51.5384 59.0699 51.8015L59.0709 51.8184V59.9565C59.0706 59.9666 59.0579 60.4755 59.2831 60.7429C59.3297 60.7972 59.3857 60.8397 59.4476 60.8675C59.5095 60.8953 59.5758 60.9079 59.6422 60.9043L59.6572 60.9054C60.5174 61.0292 61.3878 61.0292 62.2481 60.9054C62.2595 60.9021 62.7254 60.7803 62.7254 59.9139L62.7273 51.8762C62.7688 51.6162 62.7604 51.349 62.7027 51.0931C62.645 50.8373 62.5393 50.5989 62.3932 50.3946C62.1936 50.1006 62.0645 49.752 62.0187 49.3832L61.44 44.4912C61.4375 44.4712 61.4285 44.4529 61.4149 44.44C61.4012 44.4271 61.3838 44.4206 61.3662 44.4216C61.0706 44.4555 60.7733 44.4634 60.4767 44.4452C60.4734 44.4448 60.4701 44.4446 60.4668 44.4446Z" fill="#3F3D56"/>
<path d="M60.4771 51.964H61.3599C61.711 51.964 62.0476 52.1239 62.2959 52.4086C62.5441 52.6932 62.6835 53.0792 62.6835 53.4818V57.2905C62.6835 57.6931 62.5441 58.0791 62.2959 58.3637C62.0476 58.6484 61.711 58.8083 61.3599 58.8083H60.4771C60.1261 58.8083 59.7895 58.6484 59.5412 58.3637C59.293 58.0791 59.1536 57.6931 59.1536 57.2905V53.4818C59.1536 53.0792 59.293 52.6932 59.5412 52.4086C59.7895 52.1239 60.1261 51.964 60.4771 51.964Z" fill="#E84118"/>
<path d="M56.2788 37.2979C55.9887 37.3314 55.6967 37.3392 55.4056 37.3212C55.3559 37.315 55.3062 37.3314 55.267 37.3668C55.2278 37.4023 55.2023 37.454 55.196 37.5108L54.639 42.3016C54.5961 42.6494 54.4719 42.9774 54.2796 43.2507C54.1211 43.4683 54.0032 43.7208 53.9334 43.9928C53.8635 44.2648 53.8431 44.5503 53.8736 44.8316V52.9698C53.8736 52.9698 53.8376 54.0548 54.5647 54.0548C55.4349 54.1802 56.3153 54.1802 57.1855 54.0548C57.1855 54.0548 57.7677 53.9285 57.7677 52.9272V44.9141C57.8121 44.6345 57.8029 44.3472 57.7409 44.0721C57.6788 43.7969 57.5654 43.5406 57.4083 43.3208C57.2224 43.0464 57.1023 42.7211 57.0598 42.3772L56.4812 37.486C56.4746 37.4311 56.4501 37.381 56.4125 37.346C56.3749 37.3111 56.3271 37.2939 56.2788 37.2979Z" fill="white"/>
<path d="M55.8727 54.286C55.4329 54.286 54.9935 54.2547 54.5571 54.1922C54.4596 54.1948 54.3627 54.1743 54.2724 54.1319C54.1821 54.0896 54.1005 54.0263 54.0326 53.946C53.7367 53.5936 53.7531 52.9901 53.754 52.9645L53.7539 44.84C53.723 44.5413 53.7456 44.2385 53.8202 43.9501C53.8948 43.6617 54.0199 43.3938 54.1878 43.1627C54.3659 42.909 54.4808 42.6049 54.5205 42.2824L55.0773 37.4926C55.0882 37.4005 55.1299 37.3168 55.1936 37.2593C55.2573 37.2019 55.3381 37.1751 55.4187 37.1847C55.7015 37.2018 55.9851 37.194 56.2669 37.1612L56.2703 37.1609C56.3489 37.1544 56.4267 37.1824 56.488 37.2393C56.5493 37.2963 56.5893 37.3778 56.6 37.4674L57.1786 42.3588C57.2184 42.6787 57.3302 42.9812 57.503 43.2365C57.6695 43.4697 57.79 43.7415 57.8564 44.0332C57.9228 44.3248 57.9334 44.6295 57.8876 44.9263V52.9272C57.8876 54.0295 57.2147 54.1884 57.2079 54.1898C56.765 54.2538 56.3191 54.286 55.8727 54.286ZM55.3894 37.4578C55.3716 37.4568 55.3541 37.4635 55.3403 37.4765C55.3266 37.4895 55.3175 37.5079 55.3149 37.5281L54.7578 42.3198C54.712 42.6925 54.579 43.044 54.373 43.337C54.2248 43.5404 54.1147 43.7765 54.0493 44.0307C53.9838 44.2848 53.9645 44.5517 53.9926 44.8147L53.9935 44.8316V52.9698C53.9932 52.9799 53.9805 53.4888 54.2057 53.7561C54.2523 53.8105 54.3083 53.853 54.3702 53.8808C54.4321 53.9086 54.4984 53.9211 54.5648 53.9175L54.5798 53.9186C55.44 54.0424 56.3104 54.0424 57.1707 53.9186C57.1821 53.9154 57.648 53.7935 57.648 52.9272L57.6499 44.8894C57.6914 44.6295 57.683 44.3623 57.6253 44.1064C57.5676 43.8505 57.4619 43.6121 57.3158 43.4078C57.1162 43.1139 56.9871 42.7652 56.9413 42.3964L56.3626 37.5045C56.3601 37.4844 56.3511 37.4662 56.3375 37.4533C56.3238 37.4404 56.3065 37.4338 56.2888 37.4348C55.9932 37.4687 55.6959 37.4766 55.3993 37.4584C55.396 37.458 55.3927 37.4578 55.3894 37.4578Z" fill="#3F3D56"/>
<path d="M55.3998 44.9772H56.2825C56.6336 44.9772 56.9702 45.1371 57.2185 45.4218C57.4667 45.7064 57.6061 46.0924 57.6061 46.495V50.3038C57.6061 50.7063 57.4667 51.0923 57.2185 51.377C56.9702 51.6616 56.6336 51.8215 56.2825 51.8215H55.3998C55.0487 51.8215 54.7121 51.6616 54.4638 51.377C54.2156 51.0923 54.0762 50.7063 54.0762 50.3038V46.495C54.0762 46.0924 54.2156 45.7064 54.4638 45.4218C54.7121 45.1371 55.0487 44.9772 55.3998 44.9772Z" fill="#E84118"/>
<path d="M9.50982 13.7795C11.8467 13.7795 13.7411 11.6072 13.7411 8.92755C13.7411 6.24791 11.8467 4.07562 9.50982 4.07562C7.17296 4.07562 5.27856 6.24791 5.27856 8.92755C5.27856 11.6072 7.17296 13.7795 9.50982 13.7795Z" fill="#F0F0F0"/>
<path d="M106.998 9.70386C109.335 9.70386 111.229 7.53158 111.229 4.85193C111.229 2.17228 109.335 0 106.998 0C104.661 0 102.767 2.17228 102.767 4.85193C102.767 7.53158 104.661 9.70386 106.998 9.70386Z" fill="#F0F0F0"/>
<path d="M58.5924 21.9307C60.2749 21.9307 61.6389 20.3667 61.6389 18.4373C61.6389 16.508 60.2749 14.9439 58.5924 14.9439C56.9099 14.9439 55.5459 16.508 55.5459 18.4373C55.5459 20.3667 56.9099 21.9307 58.5924 21.9307Z" fill="#F0F0F0"/>
</g>
<defs>
<clipPath id="clip0_999_1901">
<rect width="124" height="124" fill="white"/>
</clipPath>
</defs>
</svg>
