<svg width="246" height="183" viewBox="0 0 246 183" fill="none" xmlns="http://www.w3.org/2000/svg">
<g clip-path="url(#clip0_112_734)">
<path d="M199.085 116.442C199.305 116.463 199.525 116.414 199.717 116.3C199.909 116.187 200.063 116.015 200.157 115.808C200.252 115.6 200.283 115.368 200.246 115.142C200.209 114.916 200.106 114.707 199.951 114.544C199.929 114.431 199.913 114.349 199.891 114.236C199.902 114.212 199.913 114.188 199.924 114.165C200.17 113.631 200.563 113.185 201.053 112.882C201.543 112.58 202.108 112.434 202.677 112.464C203.247 112.494 203.795 112.697 204.253 113.049C204.711 113.401 205.059 113.886 205.253 114.443C206.027 116.664 207.039 118.901 207.209 121.218C207.283 122.242 207.186 123.272 206.922 124.262C209.177 119.725 210.466 114.738 210.702 109.639C210.76 108.359 210.748 107.077 210.668 105.799C210.602 104.751 210.491 103.708 210.336 102.67C209.489 97.0408 207.367 91.7002 204.145 87.0871C202.531 86.0692 201.257 84.5623 200.493 82.7694C200.217 82.1248 200.031 81.4421 199.943 80.7423C200.128 80.7768 200.318 80.8019 200.504 80.8236C200.562 80.8296 200.623 80.8357 200.681 80.8417L200.703 80.8438C200.908 80.8633 201.114 80.8209 201.296 80.7217C201.478 80.6225 201.629 80.4708 201.73 80.2848C201.831 80.0988 201.878 79.8864 201.866 79.6733C201.853 79.4601 201.781 79.2553 201.659 79.0834C201.583 78.9765 201.507 78.8696 201.431 78.7628C201.316 78.5979 201.197 78.4361 201.082 78.2713C201.068 78.2555 201.056 78.2389 201.044 78.2216C200.911 78.0336 200.778 77.8488 200.646 77.6608C200.921 77.259 201.283 76.9287 201.702 76.6957C203.152 75.9057 205.073 76.5942 206.033 77.969C206.997 79.3439 207.106 81.2127 206.677 82.8516C206.264 84.2439 205.626 85.5531 204.791 86.7232C204.863 86.8286 204.938 86.931 205.01 87.0365C206.325 88.972 207.455 91.0367 208.383 93.201C208.241 90.8197 208.645 88.4373 209.563 86.2498C210.485 84.2144 212.117 82.5415 213.565 80.8134C215.305 78.7376 218.633 79.841 218.8 82.587C218.801 82.6136 218.803 82.6402 218.805 82.6667C218.596 82.7759 218.391 82.8926 218.191 83.0168C217.939 83.1745 217.738 83.4077 217.616 83.6856C217.494 83.9635 217.455 84.2733 217.505 84.5744C217.556 84.8755 217.692 85.1538 217.898 85.3728C218.103 85.5919 218.367 85.7415 218.656 85.802L218.685 85.8082C218.579 86.5649 218.417 87.3121 218.201 88.0434C217.58 90.0839 216.559 91.9691 215.203 93.581C213.847 95.1928 212.185 96.4965 210.32 97.4102C210.198 97.468 210.079 97.526 209.957 97.5806C210.849 100.652 211.352 103.831 211.454 107.037C211.508 108.929 211.415 110.822 211.175 112.697L211.188 112.631C211.673 110.556 212.834 108.718 214.475 107.429C216.909 105.543 220.255 104.966 222.857 103.482C223.134 103.315 223.451 103.235 223.77 103.25C224.09 103.264 224.398 103.373 224.66 103.564C224.922 103.755 225.126 104.02 225.247 104.327C225.369 104.634 225.403 104.97 225.347 105.297C225.342 105.32 225.338 105.344 225.333 105.367C224.949 105.508 224.573 105.674 224.209 105.864C224 105.973 223.796 106.089 223.595 106.214C223.343 106.371 223.143 106.604 223.021 106.882C222.898 107.16 222.86 107.47 222.91 107.771C222.96 108.072 223.097 108.351 223.302 108.57C223.507 108.789 223.772 108.938 224.06 108.999L224.09 109.005C224.111 109.009 224.129 109.013 224.15 109.018C223.434 110.583 222.464 112.009 221.282 113.234C219.823 114.714 218.088 115.869 216.184 116.629C214.28 117.389 212.246 117.737 210.207 117.652L210.204 117.652C209.539 120.12 208.629 122.51 207.488 124.783L198.944 124.371C198.917 124.271 198.894 124.167 198.871 124.068C199.66 124.157 200.456 124.147 201.242 124.036C200.644 123.198 200.047 122.353 199.449 121.515C199.436 121.5 199.423 121.483 199.411 121.466C199.108 121.037 198.802 120.611 198.499 120.182L198.499 120.182C198.539 118.914 198.735 117.658 199.084 116.442L199.085 116.442Z" fill="#F2F2F2"/>
<path d="M26.9326 39.7556C26.7144 39.7909 26.491 39.7556 26.2927 39.6546C26.0944 39.5537 25.9308 39.3919 25.8241 39.1912C25.7174 38.9905 25.6726 38.7606 25.696 38.5327C25.7193 38.3047 25.8096 38.0897 25.9547 37.9168C25.97 37.8024 25.981 37.7202 25.9963 37.6057C25.9841 37.5826 25.9718 37.5595 25.9595 37.5363C25.6818 37.0196 25.2632 36.5995 24.7562 36.3289C24.2492 36.0583 23.6765 35.9493 23.1099 36.0154C22.5434 36.0816 22.0084 36.3201 21.572 36.7008C21.1356 37.0816 20.8174 37.5878 20.6573 38.1557C20.017 40.4224 19.1401 42.7197 19.1084 45.0435C19.0949 46.0707 19.2531 47.0925 19.576 48.0635C17.0549 43.6799 15.4713 38.7849 14.9326 33.7103C14.7987 32.4368 14.7335 31.1564 14.7373 29.8753C14.7414 28.825 14.7899 27.7771 14.8828 26.7317C15.3934 21.0586 17.1932 15.5921 20.1344 10.7812C21.6846 9.66182 22.867 8.07607 23.5222 6.23767C23.7601 5.57656 23.9045 4.8832 23.951 4.17914C23.7677 4.22544 23.5804 4.26258 23.3959 4.29621C23.3383 4.3059 23.2777 4.31596 23.2201 4.32566L23.1983 4.32915C22.995 4.36173 22.787 4.33262 22.5992 4.24532C22.4115 4.15802 22.252 4.01625 22.1401 3.83708C22.0281 3.65791 21.9685 3.44897 21.9683 3.23543C21.9681 3.02189 22.0274 2.81284 22.139 2.63346C22.2085 2.52186 22.2781 2.41031 22.3478 2.2988C22.4531 2.12686 22.5618 1.95774 22.6671 1.78582C22.6796 1.76921 22.6912 1.75186 22.7018 1.73387C22.8231 1.53773 22.9447 1.34476 23.066 1.14861C22.7669 0.765235 22.3865 0.458753 21.9545 0.25306C20.46 -0.442432 18.5837 0.36795 17.707 1.80167C16.8273 3.23571 16.8292 5.10801 17.3555 6.71622C17.8501 8.07937 18.5646 9.3452 19.4685 10.4595C19.4029 10.5693 19.3339 10.6763 19.2684 10.7862C18.0703 12.8024 17.0656 14.9356 16.2685 17.1553C16.2689 14.7694 15.7235 12.4175 14.6774 10.293C13.636 8.32062 11.9075 6.75557 10.3588 5.12363C8.49858 3.16342 5.24296 4.47812 5.23974 7.22958C5.23971 7.25622 5.23975 7.28285 5.23985 7.30945C5.4545 7.40505 5.66564 7.5084 5.87327 7.6195C6.13429 7.76078 6.34811 7.98061 6.48671 8.25017C6.62531 8.51974 6.68222 8.82647 6.65 9.13019C6.61777 9.4339 6.49791 9.72043 6.30612 9.95223C6.11433 10.184 5.85955 10.3503 5.57516 10.4292L5.54604 10.4373C5.69737 11.1857 5.90329 11.9211 6.16203 12.6372C6.90359 14.6339 8.03456 16.4501 9.48405 17.9719C10.9335 19.4937 12.6703 20.6883 14.5854 21.4807C14.7109 21.5306 14.8333 21.5808 14.9585 21.6274C14.2512 24.7504 13.9382 27.9555 14.0272 31.1622C14.0856 33.0534 14.2912 34.9367 14.642 36.7935L14.6259 36.7281C14.0174 34.688 12.7492 32.9284 11.0355 31.7464C8.49333 30.0201 5.11954 29.6596 2.43433 28.3445C2.14808 28.1964 1.827 28.1363 1.50896 28.1714C1.19091 28.2065 0.889168 28.3353 0.639316 28.5425C0.389463 28.7498 0.201921 29.0269 0.0988113 29.3411C-0.00429851 29.6554 -0.0186775 29.9937 0.057372 30.3161C0.0631851 30.339 0.069059 30.3619 0.0749894 30.3848C0.466915 30.5011 0.851478 30.6426 1.22645 30.8085C1.4411 30.9042 1.65224 31.0075 1.85987 31.1186C2.12089 31.2599 2.33471 31.4797 2.47331 31.7493C2.6119 32.0188 2.66882 32.3256 2.63659 32.6293C2.60437 32.933 2.48451 33.2195 2.29272 33.4513C2.10093 33.6831 1.84615 33.8494 1.56176 33.9283L1.53262 33.9364C1.51162 33.942 1.49366 33.9472 1.4727 33.9528C2.28049 35.4696 3.3338 36.8308 4.58649 37.9768C6.13067 39.3608 7.93093 40.4028 9.87688 41.039C11.8228 41.6751 13.8735 41.8921 15.9031 41.6764L15.9061 41.6761C16.7169 44.0972 17.7679 46.4243 19.0422 48.6199L27.5453 47.6599C27.5655 47.5584 27.5823 47.4541 27.5995 47.3529C26.8178 47.4931 26.0225 47.5335 25.2314 47.4731C25.7781 46.5983 26.3241 45.7173 26.8707 44.8425C26.8832 44.8259 26.8948 44.8086 26.9054 44.7906C27.1823 44.3433 27.4626 43.8987 27.7395 43.4513L27.7396 43.4508C27.6246 42.1883 27.3534 40.9464 26.9329 39.7558L26.9326 39.7556Z" fill="#F2F2F2"/>
<path d="M144.41 36.4849C144.83 36.6051 145.221 36.8196 145.553 37.1133C145.886 37.4071 146.152 37.7729 146.333 38.185C146.515 38.5971 146.607 39.0454 146.603 39.4985C146.6 39.9516 146.5 40.3983 146.312 40.8073L150.875 46.0729L148.469 49.7315L142.126 42.2015C141.485 41.8283 140.998 41.224 140.758 40.5032C140.517 39.7823 140.54 38.995 140.821 38.2903C141.103 37.5857 141.624 37.0127 142.285 36.6799C142.946 36.3472 143.702 36.2778 144.41 36.4849V36.4849Z" fill="#A0616A"/>
<path d="M187.127 49.4147C186.716 48.7198 186.177 48.1159 185.54 47.6379C184.903 47.1598 184.182 46.8169 183.417 46.6288C182.653 46.4407 181.86 46.4112 181.084 46.5419C180.308 46.6726 179.565 46.9609 178.897 47.3904L163.891 57.0374L147.703 42.7551L143.676 46.6472L161.558 70.7297L184.8 58.1533C184.258 58.4468 187.783 50.522 187.127 49.4147Z" fill="#CCCCCC"/>
<path d="M157.399 81.4916C157.401 89.1844 155.942 96.8022 153.106 103.91C150.271 111.017 146.114 117.475 140.873 122.915C135.632 128.355 129.411 132.669 122.563 135.613C115.715 138.556 108.376 140.07 100.965 140.068C69.7972 140.068 44.5303 113.842 44.5303 81.4916C44.5249 75.1989 45.4968 68.9465 47.4085 62.9748C51.1617 51.3123 58.3521 41.1695 67.9628 33.9806C77.5736 26.7918 89.1184 22.9208 100.965 22.9149C111.181 22.9112 121.207 25.7874 129.972 31.2362C138.737 36.6851 145.912 44.5023 150.73 53.8531C151.925 56.1602 152.967 58.5489 153.85 61.0028C153.972 61.3445 154.091 61.6861 154.207 62.0311V62.0344C154.725 63.5508 155.18 65.0955 155.574 66.6684C156.79 71.5084 157.403 76.4899 157.399 81.4916V81.4916Z" fill="#3F3D56"/>
<path d="M94.7903 41.9706C92.2542 40.5471 89.4383 39.7435 86.5575 39.6212C83.6767 39.4988 80.807 40.061 78.1673 41.2647C75.8431 42.3146 73.3958 44.198 72.6205 47.599C75.7563 45.6781 79.8155 48.7131 80.6225 53.5819L80.4341 53.6358C80.0079 57.0081 80.9593 60.6797 82.8013 62.7708C83.0431 60.5987 84.4191 59.1205 85.7724 58.197C87.1258 57.2736 88.6229 56.6028 89.6559 55.0155C90.8805 53.1338 91.1915 50.3837 91.678 47.8749C92.1644 45.3662 93.0874 42.6697 94.7903 41.9706Z" fill="white"/>
<path d="M77.2371 70.668C76.3686 72.0217 75.2086 72.8711 74.1677 73.9287C73.13 74.9896 72.1423 76.4215 71.9354 78.2601C71.8037 79.4382 72.0075 80.6357 71.9793 81.8268C71.9511 83.0179 71.5686 84.3586 70.7879 84.6548C69.5558 85.1168 68.6152 82.7413 67.3486 82.5753C66.3421 82.4451 65.4361 84.0885 65.7277 85.5139C66.0192 86.9393 67.3893 87.5706 68.1763 86.6399C68.888 87.8797 68.3863 90.1285 67.3172 90.5092C67.2043 91.2902 67.0915 92.068 66.9818 92.849C64.2792 90.8866 61.5484 88.8918 59.2503 86.0183C56.6943 82.8495 55.1091 78.9603 54.6979 74.8497C54.4001 71.5466 54.8421 67.7684 53.3811 65.2269C52.2116 63.193 50.205 62.7438 48.3992 62.8708C48.07 62.8936 47.7377 62.9326 47.4084 62.9749C48.4735 59.6548 49.8261 56.4416 51.4497 53.3748C51.8172 53.2111 52.1586 52.9906 52.4624 52.7207C54.1429 51.2401 54.8891 48.2429 56.253 46.1699C56.3408 46.0364 56.4317 45.9063 56.5257 45.7794C57.9209 43.8887 59.7895 42.9156 61.5954 42.0109C65.5929 39.9966 69.7063 37.9561 73.9263 38.236L72.7255 38.3564C71.3241 42.4307 69.9216 46.5051 68.518 50.5794C68.3048 51.2042 68.0895 51.8301 67.8722 52.4571C67.0758 54.7741 66.2544 57.2409 66.3767 59.8345C66.4488 61.3705 66.9629 63.0107 67.9412 63.5379C68.8535 64.026 69.8505 63.4272 70.7315 62.8349C71.1046 62.5876 71.4746 62.3403 71.8477 62.0897C73.1864 61.1948 74.6694 60.2771 76.0834 60.8759C77.3782 61.4226 78.3344 63.2482 78.5163 65.2171C78.683 67.1309 78.2331 69.0481 77.2371 70.668V70.668Z" fill="white"/>
<path d="M85.1993 98.4845C81.2894 95.9857 77.3794 93.4869 73.4695 90.9881L73.5358 90.8107C71.1048 91.7717 70.0955 96.2571 70.4973 99.9251C70.899 103.593 72.2613 106.872 72.9495 110.446C73.8775 115.337 73.5272 120.397 71.9351 125.1C77.0765 119.112 81.6266 112.604 85.5171 105.674C86.0605 104.801 86.4747 103.847 86.7456 102.846C86.994 101.781 86.9558 100.501 86.4584 99.6471C86.1383 99.1569 85.7056 98.7573 85.1993 98.4845V98.4845Z" fill="white"/>
<path d="M69.768 53.0239C69.3528 53.9929 69.1931 55.2849 69.5699 56.2874C69.9546 57.3113 70.7681 57.774 71.517 58.1593L73.6774 59.2708C74.3962 59.6406 75.1709 60.0141 75.9036 59.7099C76.7873 59.3429 77.4 57.9049 77.2415 56.5699C77.0728 55.1492 76.2101 54.172 75.4122 53.3399C74.2956 52.1753 73.179 51.0108 72.0625 49.8463L71.4332 50.6463C70.7525 51.3353 70.1895 52.1393 69.768 53.0239V53.0239Z" fill="white"/>
<path d="M145.817 68.211C146.789 68.4485 147.761 68.6861 148.733 68.9236C148.564 72.3309 146.937 75.4843 144.755 76.6265C143.845 77.1016 142.833 77.2773 142.08 78.1658C141.4 78.9728 141.055 80.2289 140.738 81.4298C140.183 83.5255 139.629 85.6213 139.074 87.717C138.478 89.9754 137.713 92.4845 136.164 93.2981C134.835 93.9977 133.314 93.1418 132.292 91.7067C131.27 90.2716 130.646 88.3418 130.041 86.4609C130.079 88.511 129.16 90.5222 127.859 91.2348C126.555 91.9475 124.968 91.3032 124.097 89.7119C123.47 88.5696 123.209 87.0629 122.595 85.9044C121.98 84.7459 120.692 84.082 120.021 85.1689C119.579 85.8914 119.635 86.9978 119.416 87.9155C119.074 89.3408 118.039 90.2358 117.014 90.3139C115.992 90.392 114.995 89.7802 114.139 88.9503C112.374 87.2321 111.073 84.5051 110.568 81.4753C110.345 80.1248 110.283 78.6539 110.668 77.388C111.054 76.1221 111.985 75.1458 112.91 75.3866C113.518 74.0523 112.317 72.282 111.236 72.4382C110.151 72.5944 109.301 73.8018 108.411 74.7293C107.524 75.6567 106.282 76.3303 105.389 75.4094C105.395 76.2652 104.724 76.8315 104.144 76.7599C103.567 76.6916 103.053 76.2099 102.523 75.8682C100.476 74.5437 97.8765 75.4224 96.4218 77.9282C97.331 73.9124 98.6635 69.3044 101.457 68.3606C102.598 67.9734 103.843 68.2923 104.921 67.6219C106.831 66.4341 107.216 61.9465 105.567 60.0948C105.777 61.8456 105.737 63.8893 104.846 65.0869C103.956 66.2844 102.087 65.5034 102.2 63.7331C101.943 64.9534 100.664 65.1389 100.074 64.2017C99.4818 63.2645 99.5319 61.7317 99.952 60.6122C100.372 59.4928 101.087 58.689 101.78 57.9177C103.269 56.2613 104.78 54.5853 106.505 53.544C108.232 52.5026 110.226 52.1512 111.957 53.186C112.869 53.7327 113.672 54.6439 114.603 55.1256C115.534 55.6104 116.716 55.5486 117.334 54.4161C118.027 53.1535 117.701 51.279 117.958 49.7007C118.419 46.9118 121.106 45.6068 122.595 47.4487C121.482 47.1526 120.331 48.5194 120.193 50.1758C120.052 51.8322 120.858 53.505 121.936 54.0061C123.749 54.8392 125.523 52.7434 126.893 50.8039C128.323 48.7732 129.755 46.7437 131.188 44.7152C131.417 44.3698 131.674 44.0454 131.957 43.7454C132.406 43.2911 133.004 43.0309 133.631 43.0176C134.258 43.0043 134.867 43.2389 135.333 43.6738C136.782 44.9007 137.462 47.4162 138.65 49.1475C140.375 51.663 142.955 52.2748 145.357 52.763C147.147 53.1242 148.938 53.4876 150.73 53.8531C151.925 56.1602 152.967 58.5489 153.85 61.0028C150.815 62.3403 148.015 64.8428 145.817 68.211Z" fill="white"/>
<path d="M151.605 107.366C150.262 110.197 148.7 112.91 146.934 115.479C145.805 114.978 144.592 115.873 143.535 116.712C142.431 117.591 141.105 118.447 139.973 117.646C138.816 116.826 138.443 114.532 138.81 112.713C139.177 110.897 140.092 109.452 140.98 108.079C141.92 106.621 142.927 105.108 144.234 104.542C145.545 103.975 147.228 104.776 147.611 106.709L148.539 106.676C148.018 105.934 148.291 104.398 148.99 104.128C149.796 103.813 150.495 104.961 150.972 105.977C151.185 106.436 151.401 106.898 151.605 107.366Z" fill="white"/>
<path d="M116.062 93.6205C114.068 93.7507 112.487 91.2018 111.438 88.6944C110.388 86.1869 109.43 83.3194 107.63 82.043C106.601 81.3137 105.429 81.2137 104.313 80.8603C103.198 80.5069 102.03 79.7757 101.497 78.2865L100.232 77.7559C98.5604 78.7312 96.8673 79.7243 95.4274 81.3115C93.8123 83.0921 92.8064 85.3747 92.5647 87.8074C92.323 90.4363 93.2156 93.3677 94.8834 94.3552C96.2012 95.1356 97.7355 94.6437 99.0704 95.3581C100.738 96.2506 101.728 98.8433 102.103 101.403C102.478 103.963 102.383 106.624 102.651 109.213C102.919 111.802 103.658 114.496 105.188 115.822C107.102 117.483 109.91 116.103 110.769 113.081C111.19 111.598 111.176 109.925 111.491 108.387C112.045 105.676 113.543 103.666 114.73 101.443C115.917 99.2197 116.852 96.2004 116.062 93.6205Z" fill="white"/>
<path d="M96.3511 66.9904C96.5371 67.1682 96.7107 67.3594 96.8705 67.5628C97.036 67.8588 97.1204 68.1961 97.1148 68.5383C97.1092 68.8805 97.0137 69.2147 96.8386 69.5047C97.0789 69.4905 97.3137 69.4247 97.5283 69.3115C97.7428 69.1983 97.9324 69.0402 98.0851 68.8471C98.4492 68.4167 98.7694 67.9485 99.0408 67.4498C99.2443 67.1055 99.4606 66.6399 99.3226 66.2309C99.2283 65.9517 99.0055 65.8327 98.8493 65.6227C98.6017 65.29 98.5403 64.7615 98.4121 64.3048C98.1354 63.3184 97.4723 62.5931 96.7525 62.4894L96.8525 62.5092C96.5518 62.6161 96.3419 63.1117 96.4084 63.5576C96.4689 63.9637 96.7203 64.3009 96.6953 64.7151C96.6594 65.3106 96.0859 65.5901 96.0505 66.1858C96.0449 66.4846 96.1529 66.7736 96.3511 66.9904V66.9904Z" fill="white"/>
<path d="M92.9335 56.8696C92.9364 56.8688 92.9394 56.8686 92.9424 56.8678C93.0035 56.8098 93.0601 56.7468 93.1118 56.6796L92.9335 56.8696Z" fill="#E6E6E6"/>
<path d="M93.5318 59.6651C93.9728 59.3708 94.2191 58.5566 94.0733 57.8752C93.9284 57.198 93.4155 56.7427 92.9424 56.8678C92.8052 57.0122 92.6348 57.118 92.4474 57.1753C92.2599 57.2326 92.0615 57.2395 91.8708 57.1953C91.5783 57.1171 91.2572 56.9159 91.0035 57.1446C90.8584 57.3154 90.7569 57.5212 90.7081 57.7433C90.6143 58.0424 90.5204 58.3416 90.4265 58.6407C90.3819 58.7478 90.3703 58.8665 90.3932 58.9808C90.4112 59.0265 90.4402 59.0667 90.4775 59.0975C90.5147 59.1282 90.559 59.1485 90.606 59.1564C91.1694 59.3288 91.7327 59.5012 92.296 59.6735C92.7065 59.7991 93.1498 59.9202 93.5318 59.6651Z" fill="white"/>
<path d="M136.059 98.2603C135.798 97.8178 135.538 97.3753 135.277 96.9328C135.022 96.4203 134.672 95.9646 134.248 95.5912C134.155 95.5101 134.047 95.4493 133.931 95.4121C133.815 95.375 133.692 95.3623 133.571 95.3749C133.45 95.3875 133.333 95.425 133.226 95.4854C133.119 95.5457 133.025 95.6276 132.949 95.7262L132.981 95.979C133.575 96.7519 134.203 97.6105 134.353 98.7577C134.413 99.2099 134.392 99.678 134.444 100.132C134.496 100.586 134.644 101.057 134.926 101.253C135.336 101.538 135.818 101.118 136.11 100.607C136.371 100.187 136.488 99.6876 136.442 99.19C136.377 98.8561 136.246 98.5397 136.059 98.2603V98.2603Z" fill="white"/>
<path d="M147.648 81.3603C147.723 80.8477 147.798 80.3351 147.874 79.8225C147.996 79.2594 148.011 78.6771 147.919 78.108C147.897 77.9837 147.853 77.865 147.787 77.7589C147.721 77.6528 147.635 77.5615 147.535 77.4902C147.435 77.419 147.322 77.3693 147.202 77.3441C147.083 77.3188 146.961 77.3186 146.841 77.3433L146.709 77.5579C146.683 78.546 146.631 79.6226 146.034 80.6009C145.799 80.9865 145.493 81.3308 145.251 81.7131C145.009 82.0954 144.83 82.5546 144.925 82.8932C145.062 83.3848 145.691 83.3859 146.231 83.1896C146.691 83.0426 147.091 82.739 147.364 82.3278C147.522 82.0288 147.618 81.6995 147.648 81.3603V81.3603Z" fill="#E6E6E6"/>
<path d="M140.144 98.8362C140.271 98.4564 140.087 98.0206 140.048 97.6007C140.03 97.0584 140.168 96.5228 140.446 96.0631C140.722 95.6295 140.931 95.1538 141.066 94.6533C141.122 94.4252 141.112 94.1848 141.036 93.9629C140.95 93.7619 140.741 93.6702 140.621 93.8294L140.877 94.0007C140.531 93.9366 140.176 93.9544 139.837 94.0529C139.644 94.1297 139.472 94.2535 139.335 94.4141C139.197 94.5746 139.1 94.7671 139.049 94.9752C139.007 95.2997 138.938 95.6199 138.842 95.9321C138.69 96.2582 138.394 96.3667 138.208 96.653C138.081 96.9067 138.017 97.1893 138.021 97.4751C138.026 97.7609 138.099 98.0411 138.234 98.2904C138.467 98.6981 138.839 99.0011 139.275 99.1406C139.588 99.2571 140 99.2632 140.144 98.8362Z" fill="white"/>
<path d="M147.418 101.114C147.531 101.42 147.683 101.709 147.869 101.973C148.217 102.337 148.69 102.113 149.113 102.025C149.496 101.962 149.889 102.008 150.249 102.158C150.609 102.308 150.924 102.556 151.159 102.877C150.995 102.029 150.638 101.234 150.116 100.559C149.595 99.8837 148.926 99.3484 148.164 98.9977C147.168 98.5763 146.119 98.5356 145.083 98.4977L144.904 98.5453C145.36 99.9227 146.791 99.8919 147.418 101.114Z" fill="white"/>
<path d="M116.608 103.932L116.611 103.938C116.628 103.903 116.645 103.868 116.662 103.834L116.608 103.932Z" fill="#E6E6E6"/>
<path d="M115.504 106.149C115.264 106.602 115.057 107.074 114.885 107.56C114.658 108.348 114.508 109.157 114.436 109.976C114.38 110.441 114.363 111.036 114.644 111.263C114.725 111.318 114.822 111.342 114.918 111.328C115.014 111.315 115.102 111.265 115.166 111.189C115.322 111.018 115.449 110.821 115.544 110.606C116.096 109.619 116.525 108.563 116.82 107.463C117.088 106.304 117.086 104.941 116.611 103.938C116.242 104.675 115.873 105.412 115.504 106.149Z" fill="white"/>
<path d="M104.858 47.0789C105.033 47.2567 105.255 47.3774 105.496 47.4262C105.736 47.4749 105.985 47.4495 106.212 47.3532C106.682 47.14 107.113 46.8445 107.486 46.4796C107.795 46.2423 108.057 45.9454 108.258 45.6051C108.369 45.4018 108.44 45.1778 108.467 44.946C108.494 44.7141 108.477 44.479 108.416 44.2541C108.242 43.7244 107.799 43.5469 107.409 43.4266C106.783 43.2342 106.158 43.0417 105.533 42.8493L105.985 42.4261C105.52 42.1669 105.005 42.648 104.714 43.2437C104.528 43.6326 104.398 44.048 104.328 44.4765C104.173 45.4114 104.325 46.5247 104.858 47.0789Z" fill="#E6E6E6"/>
<path d="M115.897 43.2322C116.073 43.4339 116.317 43.5584 116.578 43.5805C116.84 43.6025 117.1 43.5205 117.305 43.3511C117.482 43.2133 117.629 43.0385 117.736 42.8379C117.843 42.6373 117.908 42.4155 117.928 42.187C117.972 41.6765 117.729 41.1091 117.381 41.065L117.461 40.5871C116.792 40.4616 115.969 40.4365 115.61 41.2799C115.489 41.6029 115.452 41.9533 115.502 42.2959C115.553 42.6385 115.689 42.9614 115.897 43.2322Z" fill="#E6E6E6"/>
<path d="M114.423 17.8149C110.5 17.3556 106.563 18.5325 103.476 21.0866C100.39 23.6408 98.4073 27.3629 97.9648 31.4342C97.0435 39.9123 101.347 58.3227 109.192 65.9438C112.886 51.3423 125.831 42.6816 127.544 34.8974C129.374 26.5797 122.591 18.7712 114.423 17.8149Z" fill="#E84118"/>
<path d="M111.71 36.6625C114.391 36.6625 116.564 34.4068 116.564 31.6243C116.564 28.8418 114.391 26.5861 111.71 26.5861C109.029 26.5861 106.856 28.8418 106.856 31.6243C106.856 34.4068 109.029 36.6625 111.71 36.6625Z" fill="white"/>
<path d="M106.606 73.2082C108.362 73.2082 109.785 71.7307 109.785 69.9082C109.785 68.0858 108.362 66.6083 106.606 66.6083C104.85 66.6083 103.427 68.0858 103.427 69.9082C103.427 71.7307 104.85 73.2082 106.606 73.2082Z" fill="#E84118"/>
<path opacity="0.2" d="M115.726 28.0147C116.272 28.3555 116.749 28.8046 117.128 29.3365C117.507 29.8684 117.781 30.4725 117.936 31.1145C118.09 31.7564 118.121 32.4236 118.026 33.078C117.932 33.7323 117.715 34.361 117.386 34.9281C117.058 35.4952 116.625 35.9896 116.113 36.3832C115.601 36.7767 115.018 37.0616 114.4 37.2217C113.151 37.5449 111.829 37.3398 110.726 36.6516C111.851 36.9114 113.028 36.7471 114.047 36.1881C115.066 35.6292 115.86 34.7121 116.287 33.6009C116.715 32.4898 116.747 31.2571 116.378 30.1236C116.01 28.9901 115.264 28.0298 114.276 27.4144C114.787 27.532 115.277 27.7348 115.726 28.0147V28.0147Z" fill="#231F20"/>
<path opacity="0.2" d="M127.563 34.9136C125.85 42.6978 112.905 51.3586 109.211 65.9601C108.473 65.2364 107.788 64.4572 107.161 63.6286C111.312 49.9036 123.451 41.5639 125.106 34.043C126.587 27.3116 122.426 20.9144 116.456 18.212C123.683 20.0976 129.24 27.2913 127.563 34.9136Z" fill="#231F20"/>
<path d="M68.9362 37.4731C65.9906 37.1282 63.0337 38.012 60.7159 39.9301C58.3981 41.8481 56.9093 44.6433 56.577 47.7008C55.8851 54.0675 59.1166 67.8931 65.0084 73.6163C67.7825 62.6511 77.5036 56.1471 78.7898 50.3015C80.1643 44.0552 75.0701 38.1913 68.9362 37.4731Z" fill="#E84118"/>
<path d="M66.899 51.6271C68.9122 51.6271 70.5442 49.9331 70.5442 47.8436C70.5442 45.754 68.9122 44.0601 66.899 44.0601C64.8859 44.0601 63.2539 45.754 63.2539 47.8436C63.2539 49.9331 64.8859 51.6271 66.899 51.6271Z" fill="white"/>
<path d="M63.0663 79.0716C64.3849 79.0716 65.4538 77.9621 65.4538 76.5935C65.4538 75.2248 64.3849 74.1154 63.0663 74.1154C61.7477 74.1154 60.6788 75.2248 60.6788 76.5935C60.6788 77.9621 61.7477 79.0716 63.0663 79.0716Z" fill="#E84118"/>
<path opacity="0.2" d="M69.915 45.1329C70.3253 45.3888 70.683 45.7261 70.9677 46.1255C71.2525 46.5249 71.4586 46.9786 71.5744 47.4607C71.6902 47.9428 71.7134 48.4438 71.6426 48.9352C71.5718 49.4266 71.4085 49.8987 71.162 50.3246C70.9154 50.7505 70.5905 51.1218 70.2057 51.4173C69.8209 51.7128 69.3838 51.9268 68.9193 52.047C68.4549 52.1671 67.9721 52.1912 67.4987 52.1178C67.0253 52.0443 66.5705 51.8748 66.1602 51.6189C67.005 51.8139 67.8892 51.6906 68.6544 51.2708C69.4197 50.8511 70.016 50.1623 70.3367 49.3279C70.6574 48.4935 70.6816 47.5678 70.4048 46.7166C70.1281 45.8654 69.5685 45.1442 68.8263 44.6821C69.2102 44.7704 69.5779 44.9226 69.915 45.1329Z" fill="#231F20"/>
<path opacity="0.2" d="M78.8041 50.3137C77.5179 56.1594 67.7968 62.6633 65.0227 73.6285C64.4686 73.0851 63.954 72.4999 63.483 71.8777C66.6004 61.5707 75.7164 55.3078 76.9591 49.6599C78.0714 44.6049 74.947 39.8008 70.4637 37.7714C75.8907 39.1874 80.0637 44.5896 78.8041 50.3137Z" fill="#231F20"/>
<path d="M183.058 174.533H179.055L177.151 158.509L183.058 158.51L183.058 174.533Z" fill="#A0616A"/>
<path d="M185.211 182.42H182.371L181.864 179.637L180.565 182.42H173.033C172.672 182.42 172.321 182.301 172.03 182.078C171.739 181.856 171.524 181.544 171.417 181.186C171.309 180.828 171.315 180.444 171.433 180.09C171.55 179.736 171.774 179.43 172.071 179.217L178.086 174.905V172.091L184.413 172.483L185.211 182.42Z" fill="#2F2E41"/>
<path d="M167.556 174.533H163.554L161.65 158.509L167.557 158.51L167.556 174.533Z" fill="#A0616A"/>
<path d="M169.709 182.42H166.869L166.362 179.637L165.064 182.42H157.532C157.171 182.42 156.819 182.301 156.528 182.078C156.237 181.856 156.023 181.544 155.915 181.186C155.808 180.828 155.813 180.444 155.931 180.09C156.049 179.736 156.273 179.43 156.57 179.217L162.585 174.905V172.091L168.911 172.483L169.709 182.42Z" fill="#2F2E41"/>
<path d="M152.351 132.228C153.117 133.42 161.449 166.201 161.449 166.201L168.837 167.075L167.96 158.827L166.62 144.232L164.544 134.489C164.544 134.489 171.874 117.175 172.337 115.796L172.667 114.806L174.957 136.377C175.229 137.148 175.347 137.967 175.305 138.786C175.236 140.134 176.538 160.405 176.538 160.405L177.164 167.675L183.494 168.588L186.062 156.009C188.206 151.923 186.977 137.403 186.1 136.051C185.223 134.7 185.572 125.288 185.572 125.288C186.692 124.879 193.369 101.243 190.029 101.383C190.244 100.123 190.412 98.998 190.412 98.998L184.614 94.1447L170.105 90.2296L166.444 88.4051C166.444 88.4051 159.906 100.954 159.971 101.578C160.061 102.368 159.887 103.167 159.477 103.839L152.876 126.77C152.876 126.77 151.578 131.023 152.351 132.228Z" fill="#2F2E41"/>
<path d="M188.805 50.1725L186.496 45.0855L178.64 45.3989L176.077 50.6911C176.077 50.6911 168.754 59.7705 168.517 62.7228C168.219 66.4359 170.696 84.6339 168.219 83.4543C168.219 83.4543 162.377 90.571 165.834 90.571C169.29 90.571 184.925 100.759 185.951 101.904C186.977 103.05 191.557 103.793 191.173 101.401C190.789 99.0091 188.805 86.0739 188.805 86.0739L194.176 65.7344C195.722 61.3432 196.203 56.4175 192.709 53.4678L188.805 50.1725Z" fill="#CCCCCC"/>
<path d="M159.704 35.2002C158.653 34.7672 157.53 34.5533 156.399 34.5707C155.269 34.5881 154.153 34.8364 153.115 35.3015C152.077 35.7667 151.137 36.4394 150.35 37.2815C149.562 38.1235 148.942 39.1183 148.525 40.209C146.771 44.7963 146.48 55.7509 149.745 61.2412C153.942 53.6729 162.435 50.8783 164.529 46.8031C166.767 42.4486 164.123 37.0211 159.704 35.2002Z" fill="#E84118"/>
<path d="M156.169 45.3955C157.72 45.3955 158.977 44.0906 158.977 42.481C158.977 40.8714 157.72 39.5666 156.169 39.5666C154.619 39.5666 153.362 40.8714 153.362 42.481C153.362 44.0906 154.619 45.3955 156.169 45.3955Z" fill="white"/>
<path d="M147.721 64.9556C148.737 64.9556 149.56 64.1009 149.56 63.0467C149.56 61.9924 148.737 61.1378 147.721 61.1378C146.705 61.1378 145.882 61.9924 145.882 63.0467C145.882 64.1009 146.705 64.9556 147.721 64.9556Z" fill="#E84118"/>
<path opacity="0.2" d="M158.939 41.099C159.454 41.6572 159.733 42.4045 159.717 43.1768C159.701 43.949 159.39 44.6831 158.853 45.2175C158.316 45.752 157.596 46.0432 156.852 46.0272C156.108 46.0112 155.4 45.6893 154.885 45.1322C155.475 45.4544 156.156 45.5482 156.807 45.3968C157.457 45.2454 158.035 44.8586 158.436 44.3056C158.837 43.7527 159.035 43.0697 158.995 42.379C158.955 41.6882 158.679 41.0347 158.218 40.5355C158.486 40.6817 158.73 40.872 158.939 41.099Z" fill="#231F20"/>
<path opacity="0.2" d="M164.537 46.8152C162.443 50.8903 153.95 53.685 149.753 61.2533C149.447 60.7331 149.178 60.1901 148.949 59.6288C153.274 52.6218 161.27 49.8794 163.293 45.942C165.105 42.418 163.718 38.1915 160.781 35.7423C164.539 37.9336 166.588 42.8247 164.537 46.8152Z" fill="#231F20"/>
<path d="M146.892 62.3894C147.32 62.2979 147.762 62.3048 148.186 62.4097C148.611 62.5146 149.008 62.7148 149.35 62.9963C149.692 63.2778 149.971 63.6337 150.166 64.039C150.361 64.4442 150.468 64.889 150.48 65.3419L156.85 67.8799L156.308 72.2741L147.361 68.5588C146.627 68.5287 145.928 68.2201 145.399 67.6914C144.869 67.1627 144.544 66.4506 144.487 65.6901C144.429 64.9297 144.642 64.1736 145.085 63.5653C145.529 62.9569 146.172 62.5385 146.892 62.3894L146.892 62.3894Z" fill="#A0616A"/>
<path d="M191.402 53.3341C190.731 52.9091 189.986 52.6257 189.21 52.5002C188.433 52.3747 187.641 52.4095 186.877 52.6027C186.114 52.7958 185.394 53.1435 184.761 53.6258C184.127 54.1081 183.591 54.7155 183.184 55.4132L174.041 71.0853L153.368 65.9991L151.485 71.3659L177.958 84.3821L191.366 62.2158C193.374 59.2876 194.357 55.2068 191.402 53.3341Z" fill="#CCCCCC"/>
<path d="M191.743 34.1274C191.744 35.6379 191.387 37.1255 190.704 38.4595C190.022 39.7935 189.034 40.9332 187.828 41.7785C186.622 42.6238 185.234 43.1489 183.787 43.3077C182.34 43.4665 180.877 43.2541 179.528 42.6891C178.178 42.1242 176.983 41.2241 176.046 40.0677C175.11 38.9113 174.462 37.534 174.158 36.0567C173.854 34.5795 173.905 33.0474 174.304 31.5951C174.704 30.1427 175.442 28.8145 176.451 27.7269L176.494 27.6827C176.565 27.6051 176.636 27.5276 176.711 27.4538C176.712 27.4538 176.712 27.4537 176.712 27.4535C176.713 27.4533 176.713 27.453 176.714 27.4527C176.714 27.4523 176.714 27.4519 176.714 27.4515C176.715 27.451 176.715 27.4506 176.715 27.4501C176.807 27.3615 176.9 27.2729 176.996 27.188C178.28 26.019 179.862 25.259 181.552 24.9991C183.242 24.7392 184.969 24.9904 186.525 25.7226C188.081 26.4548 189.401 27.637 190.326 29.1276C191.252 30.6182 191.744 32.3541 191.743 34.1274V34.1274Z" fill="#2F2E41"/>
<path d="M180.662 44.0005C184.78 44.0005 188.117 40.5361 188.117 36.2625C188.117 31.9889 184.78 28.5245 180.662 28.5245C176.545 28.5245 173.207 31.9889 173.207 36.2625C173.207 40.5361 176.545 44.0005 180.662 44.0005Z" fill="#9E616A"/>
<path d="M188.579 38.4692L187.344 38.2428C186.653 38.1126 186.018 37.7667 185.522 37.2515C185.027 36.7363 184.694 36.0763 184.57 35.3597L183.365 37.4563L183.312 37.4745C180.44 38.4641 177.452 38.1681 174.18 36.5708C173.244 36.1101 172.336 35.5906 171.461 35.0152L171.397 34.9734L171.392 34.8947C171.225 32.3774 171.769 30.2744 172.924 28.9731C173.368 28.4835 173.906 28.0968 174.504 27.8382C175.102 27.5796 175.745 27.455 176.392 27.4725C176.439 27.4601 176.481 27.4358 176.516 27.402C176.532 27.3893 176.549 27.3768 176.565 27.3648V27.3518L176.651 27.31C176.835 27.2202 177.022 27.1343 177.21 27.0557C178.685 26.463 180.291 26.3143 181.844 26.6267C183.397 26.9392 184.834 27.7 185.989 28.8219C188.285 31.0974 189.338 34.9161 188.61 38.3246L188.579 38.4692Z" fill="#2F2E41"/>
<path d="M204.303 45.0621C201.766 43.703 205.029 38.7701 204.373 35.8861C203.718 33.002 198.996 32.0743 198.696 29.1275C198.395 26.1807 197.687 23.1414 195.814 20.9053C194.617 19.4765 192.853 18.4217 191.037 18.6006C190.422 18.6612 189.827 18.8585 189.293 19.1791C188.759 19.4997 188.297 19.9361 187.94 20.4586C187.583 20.981 187.338 21.5773 187.223 22.2067C187.107 22.8361 187.124 23.4839 187.272 24.1059C186.755 23.3454 185.417 23.5103 185.086 24.3753C184.791 25.1443 185.442 26.0758 186.207 26.1438C187.209 27.428 188.356 28.7907 189.926 29.0498C190.176 29.1094 190.435 29.1092 190.685 29.0493C190.935 28.9895 191.169 28.8714 191.369 28.7041C191.738 28.336 191.767 27.6002 191.329 27.3252C193.301 28.1384 194.457 30.3518 194.75 32.5336C195.043 34.7154 194.638 36.9229 194.371 39.1082C194.104 41.2935 193.989 43.5924 194.815 45.6217C195.79 48.0194 198.036 49.7379 200.486 50.289C202.937 50.8401 205.547 50.3015 207.765 49.088C209.983 47.8744 211.833 46.0218 213.344 43.9448C210.741 45.8633 207.14 46.582 204.303 45.0621Z" fill="#2F2E41"/>
<path d="M188.262 38.2542C188.262 38.2542 186.053 29.698 176.587 27.7232C176.576 27.7196 176.54 27.7048 176.494 27.6827C176.466 27.6642 176.43 27.6457 176.395 27.6273C176.501 27.5645 176.604 27.5092 176.711 27.4538C176.712 27.4538 176.712 27.4537 176.712 27.4535C176.713 27.4533 176.713 27.4531 176.714 27.4527C176.714 27.4524 176.714 27.4519 176.714 27.4515C176.715 27.451 176.715 27.4506 176.715 27.4501C176.807 27.3615 176.9 27.2729 176.996 27.188L177.266 27.1991C177.266 27.1991 186.764 25.6377 188.262 38.2542Z" fill="#FD6584"/>
<path opacity="0.2" d="M183.317 65.7086L177.971 72.1382L169.136 69.4304L178.767 74.0371L183.317 65.7086Z" fill="black"/>
<path d="M215.409 182.905L133.206 183C133.112 183 133.022 182.961 132.955 182.892C132.889 182.823 132.852 182.729 132.852 182.632C132.852 182.534 132.889 182.44 132.955 182.371C133.022 182.302 133.112 182.263 133.206 182.263L215.409 182.168C215.503 182.168 215.594 182.207 215.66 182.276C215.727 182.345 215.764 182.439 215.764 182.536C215.764 182.634 215.727 182.728 215.66 182.797C215.594 182.866 215.503 182.905 215.409 182.905V182.905Z" fill="#CACACA"/>
<path d="M219.017 125.649C215.168 125.649 210.949 125.498 206.361 125.196C182.627 123.632 151.885 118.193 119.797 109.882C87.7094 101.571 58.1094 91.3801 36.4502 81.1875C25.8994 76.2222 17.8017 71.5222 12.3823 67.2177C6.6446 62.6608 4.13484 58.6887 4.92247 55.4122C6.45713 49.0291 20.0458 47.6326 31.1751 47.5852L31.1789 48.5135C15.8954 48.5786 6.87897 51.1085 5.79031 55.6371C4.40356 61.4048 15.7133 70.4093 36.8195 80.342C58.4311 90.5122 87.9766 100.683 120.014 108.981C152.051 117.279 182.736 122.708 206.418 124.269C229.544 125.794 243.605 123.361 244.991 117.593C246.142 112.804 238.553 105.749 223.62 97.7281L224.031 96.9038C234.881 102.732 247.476 111.091 245.859 117.817C245.071 121.094 241.058 123.376 233.93 124.601C229.867 125.299 224.877 125.649 219.017 125.649Z" fill="#E84118"/>
</g>
<defs>
<clipPath id="clip0_112_734">
<rect width="246" height="183" fill="white"/>
</clipPath>
</defs>
</svg>
