<svg width="26" height="24" viewBox="0 0 26 24" fill="none" xmlns="http://www.w3.org/2000/svg">
<path fill-rule="evenodd" clip-rule="evenodd" d="M24.5651 24C25.3575 24 26 23.4069 26 22.6754V1.32457C26 0.592862 25.3574 0 24.5651 0H1.43496C0.642272 0 0 0.592952 0 1.32457V22.6753C0 23.4069 0.642272 23.9999 1.43496 23.9999H24.5651V24ZM17.9396 24V14.7059H21.3192L21.8252 11.0838H17.9395V8.77127C17.9395 7.72259 18.2549 7.00797 19.8841 7.00797L21.962 7.00707V3.7675C21.6026 3.72344 20.3691 3.6248 18.9342 3.6248C15.9383 3.6248 13.8873 5.31274 13.8873 8.41266V11.0838H10.4991V14.7059H13.8873V23.9999H17.9396V24Z" fill="#0F2E68"/>
</svg>
