<svg width="203" height="166" viewBox="0 0 203 166" fill="none" xmlns="http://www.w3.org/2000/svg">
<g clip-path="url(#clip0_1133_2724)">
<path d="M0 84.6022V1.36603C0.00037695 1.00386 0.137402 0.656635 0.381014 0.400542C0.624625 0.14445 0.954926 0.000403892 1.29944 7.62939e-06H114.872C115.217 0.000403892 115.547 0.14445 115.791 0.400542C116.034 0.656635 116.172 1.00386 116.172 1.36603V84.6022C116.172 84.9643 116.034 85.3116 115.791 85.5676C115.547 85.8237 115.217 85.9678 114.872 85.9682H1.29944C0.954926 85.9678 0.624625 85.8237 0.381014 85.5676C0.137402 85.3116 0.000375525 84.9643 0 84.6022Z" fill="white"/>
<path d="M0 84.6022V1.36603C0.00037695 1.00386 0.137402 0.656635 0.381014 0.400542C0.624625 0.14445 0.954926 0.000403892 1.29944 7.62939e-06H114.872C115.217 0.000403892 115.547 0.14445 115.791 0.400542C116.034 0.656635 116.172 1.00386 116.172 1.36603V84.6022C116.172 84.9643 116.034 85.3116 115.791 85.5676C115.547 85.8237 115.217 85.9678 114.872 85.9682H1.29944C0.954926 85.9678 0.624625 85.8237 0.381014 85.5676C0.137402 85.3116 0.000375525 84.9643 0 84.6022ZM1.29944 0.546437C1.09273 0.546675 0.894551 0.633101 0.748384 0.786757C0.602217 0.940412 0.520004 1.14875 0.519778 1.36605V84.6022C0.520004 84.8195 0.602217 85.0278 0.748384 85.1815C0.894551 85.3351 1.09273 85.4215 1.29944 85.4218H114.872C115.079 85.4215 115.277 85.3351 115.423 85.1815C115.57 85.0278 115.652 84.8195 115.652 84.6022V1.36603C115.652 1.14873 115.57 0.94039 115.423 0.786735C115.277 0.63308 115.079 0.546654 114.872 0.546416L1.29944 0.546437Z" fill="#E6E6E6"/>
<path d="M48.2049 8.46902C48.4752 8.47367 48.7329 8.58981 48.9225 8.79241C49.1121 8.995 49.2184 9.26781 49.2184 9.55201C49.2184 9.83621 49.1121 10.109 48.9225 10.3116C48.7329 10.5142 48.4752 10.6303 48.2049 10.635H22.3744C22.2391 10.6373 22.1047 10.6116 21.9789 10.5594C21.853 10.5071 21.7382 10.4293 21.641 10.3304C21.5437 10.2315 21.466 10.1134 21.4122 9.98288C21.3584 9.85238 21.3295 9.71201 21.3273 9.56979C21.3251 9.42757 21.3495 9.28628 21.3992 9.15399C21.449 9.02171 21.523 8.90101 21.6171 8.7988C21.7112 8.69658 21.8235 8.61485 21.9476 8.55826C22.0718 8.50168 22.2053 8.47136 22.3406 8.46902C22.3519 8.46882 22.3631 8.46882 22.3744 8.46902H48.2049Z" fill="#E4E4E4"/>
<path d="M16.5165 8.16746C16.5353 8.18725 16.5503 8.21074 16.5605 8.23659C16.5707 8.26245 16.5759 8.29016 16.5759 8.31814C16.5759 8.34613 16.5707 8.37384 16.5605 8.39969C16.5503 8.42555 16.5354 8.44904 16.5165 8.46883L15.6463 9.38369H17.7922C17.8459 9.38372 17.8974 9.40611 17.9353 9.44597C17.9733 9.48582 17.9947 9.53989 17.9949 9.59631C17.995 9.65272 17.9738 9.70689 17.936 9.74693C17.8982 9.78697 17.8468 9.80962 17.7932 9.80991H15.6463L16.5165 10.7248C16.5354 10.7445 16.5503 10.768 16.5605 10.7939C16.5707 10.8197 16.576 10.8474 16.576 10.8754C16.5761 10.9034 16.5708 10.9311 16.5607 10.957C16.5505 10.9828 16.5356 11.0063 16.5168 11.0261C16.498 11.0459 16.4756 11.0617 16.4511 11.0724C16.4265 11.0831 16.4001 11.0887 16.3735 11.0887C16.3469 11.0887 16.3205 11.0832 16.2959 11.0726C16.2713 11.0619 16.2489 11.0462 16.2301 11.0264L16.2298 11.0261L15.0135 9.74748C14.9947 9.72769 14.9797 9.7042 14.9695 9.67834C14.9593 9.65248 14.9541 9.62477 14.9541 9.59678C14.9541 9.56879 14.9593 9.54108 14.9695 9.51522C14.9797 9.48937 14.9947 9.46587 15.0135 9.44608L16.2298 8.16744C16.2678 8.12747 16.3194 8.10502 16.3732 8.10502C16.4269 8.10502 16.4785 8.1275 16.5165 8.16746Z" fill="#E6E6E6"/>
<path d="M54.0732 8.16746C54.0544 8.18725 54.0395 8.21074 54.0293 8.2366C54.0191 8.26245 54.0138 8.29016 54.0138 8.31815C54.0138 8.34613 54.0191 8.37384 54.0293 8.39969C54.0395 8.42555 54.0544 8.44904 54.0732 8.46883L54.9435 9.38369H52.7975C52.7709 9.38355 52.7444 9.38894 52.7197 9.39955C52.695 9.41016 52.6726 9.42579 52.6537 9.44554C52.6347 9.46529 52.6197 9.48878 52.6094 9.51465C52.5991 9.54052 52.5938 9.56827 52.5938 9.5963C52.5937 9.62434 52.5989 9.65211 52.6091 9.67803C52.6192 9.70395 52.6342 9.72751 52.653 9.74735C52.6718 9.76719 52.6942 9.78293 52.7189 9.79367C52.7435 9.8044 52.7699 9.80992 52.7966 9.80991H54.9435L54.0732 10.7248C54.0352 10.7647 54.0138 10.8189 54.0137 10.8754C54.0137 10.9319 54.035 10.9861 54.073 11.0261C54.1109 11.0661 54.1625 11.0886 54.2163 11.0887C54.27 11.0887 54.3216 11.0663 54.3597 11.0264L54.3599 11.0261L55.5763 9.74748C55.5951 9.72769 55.61 9.7042 55.6202 9.67834C55.6304 9.65248 55.6356 9.62477 55.6356 9.59678C55.6356 9.56879 55.6304 9.54108 55.6202 9.51522C55.61 9.48937 55.5951 9.46587 55.5763 9.44608L54.3599 8.16744C54.3219 8.12747 54.2704 8.10502 54.2166 8.10502C54.1628 8.10502 54.1112 8.1275 54.0732 8.16746Z" fill="#E6E6E6"/>
<path d="M48.2049 72.1752C48.4752 72.1799 48.7329 72.296 48.9225 72.4986C49.1121 72.7012 49.2184 72.974 49.2184 73.2582C49.2184 73.5424 49.1121 73.8152 48.9225 74.0178C48.7329 74.2204 48.4752 74.3365 48.2049 74.3412H22.3744C22.2391 74.3435 22.1047 74.3178 21.9789 74.2655C21.853 74.2133 21.7382 74.1355 21.641 74.0365C21.5437 73.9376 21.466 73.8196 21.4122 73.6891C21.3584 73.5586 21.3295 73.4182 21.3273 73.276C21.3251 73.1337 21.3495 72.9925 21.3992 72.8602C21.449 72.7279 21.523 72.6072 21.6171 72.505C21.7112 72.4028 21.8235 72.321 21.9476 72.2644C22.0718 72.2079 22.2053 72.1775 22.3406 72.1752C22.3519 72.175 22.3631 72.175 22.3744 72.1752H48.2049Z" fill="#E4E4E4"/>
<path d="M104.306 31.0583C104.576 31.0629 104.834 31.1791 105.024 31.3817C105.213 31.5842 105.319 31.8571 105.319 32.1412C105.319 32.4254 105.213 32.6983 105.024 32.9009C104.834 33.1034 104.576 33.2196 104.306 33.2242H78.4755C78.3402 33.2266 78.2058 33.2009 78.08 33.1486C77.9541 33.0963 77.8393 33.0185 77.7421 32.9196C77.6448 32.8207 77.5671 32.7026 77.5132 32.5721C77.4594 32.4416 77.4306 32.3013 77.4284 32.159C77.4261 32.0168 77.4506 31.8755 77.5003 31.7432C77.55 31.6109 77.624 31.4903 77.7181 31.388C77.8122 31.2858 77.9246 31.2041 78.0487 31.1475C78.1728 31.0909 78.3064 31.0606 78.4416 31.0583C78.4529 31.0581 78.4642 31.0581 78.4755 31.0583H104.306Z" fill="#E4E4E4"/>
<path d="M104.306 38.7137C104.576 38.7184 104.834 38.8345 105.024 39.0371C105.213 39.2397 105.319 39.5125 105.319 39.7967C105.319 40.0809 105.213 40.3537 105.024 40.5563C104.834 40.7589 104.576 40.875 104.306 40.8797H78.4755C78.3402 40.882 78.2058 40.8563 78.08 40.8041C77.9541 40.7518 77.8393 40.674 77.7421 40.5751C77.6448 40.4762 77.5671 40.3581 77.5132 40.2276C77.4594 40.0971 77.4306 39.9567 77.4284 39.8145C77.4261 39.6723 77.4506 39.531 77.5003 39.3987C77.55 39.2664 77.624 39.1457 77.7181 39.0435C77.8122 38.9413 77.9246 38.8595 78.0487 38.803C78.1728 38.7464 78.3064 38.7161 78.4416 38.7137C78.4529 38.7135 78.4642 38.7135 78.4755 38.7137H104.306Z" fill="#E4E4E4"/>
<path d="M104.306 46.3692C104.576 46.3738 104.834 46.49 105.024 46.6926C105.213 46.8952 105.319 47.168 105.319 47.4522C105.319 47.7364 105.213 48.0092 105.024 48.2118C104.834 48.4144 104.576 48.5305 104.306 48.5351H78.4755C78.2022 48.5399 77.9384 48.4303 77.7421 48.2305C77.5457 48.0308 77.4328 47.7572 77.4284 47.4699C77.4239 47.1827 77.5281 46.9054 77.7181 46.699C77.9082 46.4925 78.1684 46.3739 78.4416 46.3692C78.4529 46.369 78.4642 46.369 78.4755 46.3692H104.306Z" fill="#E4E4E4"/>
<path d="M87.2856 58.2038C87.2856 57.4704 87.4925 56.7535 87.8801 56.1437C88.2677 55.5339 88.8186 55.0587 89.4631 54.778C90.1077 54.4973 90.8169 54.4239 91.5011 54.567C92.1853 54.7101 92.8138 55.0632 93.3071 55.5818C93.8004 56.1004 94.1364 56.7611 94.2725 57.4804C94.4086 58.1997 94.3388 58.9452 94.0718 59.6228C93.8048 60.3003 93.3527 60.8795 92.7726 61.2869C92.1926 61.6943 91.5106 61.9118 90.813 61.9118C89.8774 61.9118 88.9803 61.5212 88.3188 60.8258C87.6573 60.1304 87.2856 59.1872 87.2856 58.2038Z" fill="#F50057"/>
<path d="M89.4214 57.838H90.4652V56.7407C90.465 56.6437 90.5015 56.5506 90.5667 56.4819C90.6318 56.4131 90.7203 56.3744 90.8125 56.3743C90.9048 56.3741 90.9934 56.4125 91.0588 56.481C91.1241 56.5495 91.1609 56.6424 91.1611 56.7394V57.838H92.2049C92.2972 57.838 92.3857 57.8765 92.451 57.9451C92.5162 58.0137 92.5529 58.1068 92.5529 58.2038C92.5529 58.3008 92.5162 58.3938 92.451 58.4624C92.3857 58.531 92.2972 58.5696 92.2049 58.5696H91.1611V59.6669C91.1611 59.7639 91.1244 59.8569 91.0592 59.9255C90.9939 59.9941 90.9054 60.0327 90.8131 60.0327C90.7209 60.0327 90.6323 59.9941 90.5671 59.9255C90.5018 59.8569 90.4652 59.7639 90.4652 59.6669V58.5696H89.4214C89.3757 58.5696 89.3304 58.5603 89.2881 58.542C89.2459 58.5237 89.2075 58.4968 89.1751 58.4629C89.1428 58.429 89.1171 58.3887 89.0995 58.3444C89.0819 58.3 89.0728 58.2525 89.0728 58.2045C89.0727 58.1564 89.0816 58.1089 89.099 58.0644C89.1164 58.02 89.1419 57.9797 89.1742 57.9456C89.2064 57.9116 89.2448 57.8846 89.2869 57.8661C89.3291 57.8477 89.3743 57.8381 89.42 57.838L89.4214 57.838Z" fill="white"/>
<path d="M58.6231 21.4533L16.2427 57.9605L16.4623 58.2422L58.8427 21.735L58.6231 21.4533Z" fill="#E6E6E6"/>
<path d="M16.4684 21.4466L16.248 21.7277L58.6175 58.4311L58.8378 58.15L16.4684 21.4466Z" fill="#E6E6E6"/>
<path d="M15.6572 57.3728V22.2206C15.6576 21.8826 15.7855 21.5585 16.0129 21.3195C16.2402 21.0805 16.5485 20.946 16.87 20.9456H58.1057C58.4273 20.946 58.7355 21.0805 58.9629 21.3195C59.1903 21.5585 59.3182 21.8826 59.3185 22.2206V57.3728C59.3182 57.7109 59.1903 58.0349 58.9629 58.2739C58.7355 58.5129 58.4273 58.6474 58.1057 58.6478H16.87C16.5485 58.6474 16.2402 58.5129 16.0129 58.2739C15.7855 58.0349 15.6576 57.7108 15.6572 57.3728ZM16.87 21.3099C16.6404 21.3102 16.4202 21.4062 16.2578 21.577C16.0954 21.7477 16.004 21.9791 16.0037 22.2206V57.3728C16.004 57.6143 16.0954 57.8457 16.2578 58.0165C16.4202 58.1872 16.6404 58.2832 16.87 58.2835H58.1057C58.3354 58.2832 58.5556 58.1872 58.718 58.0165C58.8804 57.8457 58.9717 57.6143 58.972 57.3728V22.2206C58.9717 21.9792 58.8804 21.7477 58.718 21.577C58.5556 21.4062 58.3354 21.3102 58.1057 21.3099L16.87 21.3099Z" fill="#3F3D56"/>
<path d="M11.271 63.7476V28.5954C11.2714 28.2573 11.3993 27.9333 11.6266 27.6943C11.854 27.4552 12.1623 27.3208 12.4838 27.3204H53.7195C54.041 27.3208 54.3493 27.4553 54.5767 27.6943C54.804 27.9333 54.9319 28.2573 54.9323 28.5954V63.7476C54.9319 64.0856 54.804 64.4097 54.5767 64.6487C54.3493 64.8877 54.041 65.0221 53.7195 65.0225H12.4838C12.1623 65.0221 11.854 64.8877 11.6267 64.6487C11.3993 64.4097 11.2714 64.0856 11.271 63.7476Z" fill="#F50057"/>
<path d="M28.3975 56.3711H49.4494C49.4758 56.3714 49.5021 56.3692 49.5281 56.3645L39.5715 38.2347C39.5107 38.1218 39.4225 38.0278 39.3159 37.9625C39.2093 37.8971 39.0881 37.8627 38.9647 37.8627C38.8413 37.8627 38.7201 37.8971 38.6135 37.9625C38.5069 38.0278 38.4187 38.1218 38.358 38.2347L31.6758 50.4012L31.3557 50.9834L28.3975 56.3711Z" fill="white"/>
<path opacity="0.2" d="M28.3975 56.3708H35.5849L32.0564 50.9834L31.8026 50.5952L31.6756 50.4013L31.3554 50.9834L28.3975 56.3708Z" fill="black"/>
<path d="M16.6758 56.3711H34.884L31.3556 50.9834L31.1017 50.5953L26.5038 43.5741C26.4225 43.4668 26.3207 43.3787 26.2049 43.3155C26.0891 43.2523 25.962 43.2154 25.8317 43.2072C25.7015 43.1991 25.5711 43.2198 25.449 43.268C25.3269 43.3163 25.2157 43.391 25.1229 43.4873C25.0991 43.5147 25.0769 43.5437 25.0566 43.5741L16.6758 56.3711Z" fill="white"/>
<path d="M30.3989 42.5287C32.1213 42.5287 33.5176 41.0609 33.5176 39.2503C33.5176 37.4397 32.1213 35.9718 30.3989 35.9718C28.6765 35.9718 27.2803 37.4397 27.2803 39.2503C27.2803 41.0609 28.6765 42.5287 30.3989 42.5287Z" fill="white"/>
<path d="M52.6799 29.8703H48.8682V33.8773H52.6799V29.8703Z" fill="#3F3D56"/>
<path d="M159.588 162.414L156.563 162.414L155.124 150.15L159.588 150.15L159.588 162.414Z" fill="#A0616A"/>
<path d="M160.359 165.496L150.606 165.496V165.366C150.606 164.308 151.006 163.293 151.718 162.544C152.43 161.796 153.395 161.376 154.402 161.376L160.359 161.376L160.359 165.496Z" fill="#2F2E41"/>
<path d="M183.623 159.803L180.729 160.727L175.961 149.432L180.233 148.069L183.623 159.803Z" fill="#A0616A"/>
<path d="M185.213 162.517L175.882 165.496L175.846 165.372C175.553 164.359 175.655 163.266 176.13 162.332C176.604 161.399 177.412 160.702 178.375 160.394L184.075 158.574L185.213 162.517Z" fill="#2F2E41"/>
<path d="M203 165.419H123.058V166H203V165.419Z" fill="#CACACA"/>
<path d="M153.539 46.8746C157.013 46.8746 159.83 43.9133 159.83 40.2603C159.83 36.6073 157.013 33.646 153.539 33.646C150.064 33.646 147.247 36.6073 147.247 40.2603C147.247 43.9133 150.064 46.8746 153.539 46.8746Z" fill="#A0616A"/>
<path d="M182.325 149.943L176.117 152.741L161.748 117.123L160.595 156.75L154.387 156.377L147.468 94.2793L148 90.7362L171.505 96.2371L171.859 116.19L182.325 149.943Z" fill="#2F2E41"/>
<path d="M146.404 38.3356C146.404 38.3356 150.484 34.4195 151.726 36.0979C152.968 37.7762 153.322 38.1491 154.032 38.1491C154.741 38.1491 156.515 40.2004 156.515 40.2004C156.515 40.2004 157.402 38.3356 158.467 39.8274C159.531 41.3193 159.708 43.557 159.708 43.557C159.708 43.557 163.611 34.0466 156.693 32.1818C149.775 30.317 144.808 36.0979 146.404 38.3356Z" fill="#2F2E41"/>
<path d="M173.101 99.2209C169.731 97.6694 169.632 98.8871 164.764 100.899C158.634 101.699 154.736 101.802 152.79 99.1277C151.994 93.8186 151.341 88.7278 150.938 83.8868C150.855 82.8891 150.783 81.9014 150.722 80.9236C150.012 69.5354 150.882 59.6352 154.83 51.6688L161.926 46.0745L164.241 47.8404C169.77 52.0586 168.91 58.5387 169.644 65.679L173.101 99.2209Z" fill="#E6E6E6"/>
<path opacity="0.2" d="M161.469 63.8832C161.469 63.8832 171.949 78.2421 164.463 84.7688C156.977 91.2956 152.79 95.3981 152.79 95.3981C152.79 95.3981 153.234 67.2398 161.469 63.8832Z" fill="black"/>
<path opacity="0.2" d="M157.402 78.2421L150.938 83.8868C150.855 82.8891 150.783 81.9014 150.722 80.9236L155.096 60.3401L157.402 78.2421Z" fill="black"/>
<path d="M149.838 99.523C150.209 99.3244 150.534 99.0427 150.791 98.6977C151.047 98.3527 151.228 97.9529 151.321 97.5263C151.415 97.0998 151.418 96.657 151.331 96.229C151.244 95.801 151.068 95.3983 150.817 95.0492L154.107 89.1463L151.182 86.17L146.648 94.5746C146.118 95.057 145.775 95.727 145.684 96.4576C145.592 97.1882 145.759 97.9286 146.152 98.5386C146.546 99.1485 147.138 99.5856 147.817 99.7671C148.497 99.9485 149.216 99.8617 149.838 99.523Z" fill="#A0616A"/>
<path d="M152.701 95.3049L147.557 91.0159L154.298 73.1139L154.451 54.4537C154.458 53.5826 154.72 52.7349 155.201 52.0253C155.681 51.3158 156.358 50.7787 157.139 50.4869C157.744 50.2606 158.392 50.1893 159.029 50.2789C159.666 50.3686 160.273 50.6166 160.801 51.0024C161.328 51.3882 161.761 51.9006 162.062 52.4972C162.364 53.0938 162.525 53.7574 162.534 54.4329L162.813 76.0975L152.701 95.3049Z" fill="#E6E6E6"/>
</g>
<defs>
<clipPath id="clip0_1133_2724">
<rect width="203" height="166" fill="white"/>
</clipPath>
</defs>
</svg>
