<svg width="208" height="144" viewBox="0 0 208 144" fill="none" xmlns="http://www.w3.org/2000/svg">
<g clip-path="url(#clip0_1133_1877)">
<path d="M74.6095 82.8733C81.7377 69.8107 95.3349 59.7807 109.729 60.7469C99.1114 72.7746 92.9202 88.3269 92.2506 104.652C92.0142 110.949 92.3807 117.978 88.3673 122.693C85.8701 125.627 82.053 127.048 78.3 127.346C74.5469 127.644 70.7946 126.938 67.0916 126.234L66.1933 126.522C65.8513 111.5 67.4813 95.936 74.6095 82.8733Z" fill="#F0F0F0"/>
<path d="M109.75 61.0614C99.1064 66.3993 90.0305 75.3141 84.459 86.1865C83.2545 88.5371 82.2289 91.0308 81.7816 93.6674C81.334 96.3052 81.6466 98.8161 82.5115 101.321C83.3022 103.612 84.3655 105.859 84.608 108.31C84.8635 110.893 83.9511 113.309 82.3088 115.225C80.2993 117.571 77.6008 119.024 74.9143 120.35C71.9316 121.822 68.8111 123.302 66.6984 126.049C66.4425 126.382 65.9616 125.949 66.2172 125.616C69.8928 120.837 76.1845 119.938 80.5475 116.088C82.5834 114.291 84.1118 111.844 84.0154 108.978C83.931 106.471 82.8364 104.152 82.0166 101.84C81.1558 99.4127 80.7265 96.972 81.0352 94.3839C81.351 91.7364 82.2851 89.1957 83.4266 86.8234C86.0011 81.4731 89.5244 76.5612 93.5606 72.3152C98.1992 67.4345 103.605 63.4164 109.545 60.4347C109.912 60.2503 110.116 60.8782 109.75 61.0614Z" fill="white"/>
<path d="M86.0906 82.553C84.4589 81.31 83.3044 79.5033 82.8333 77.4555C82.3622 75.4077 82.6052 73.2521 83.519 71.3737C83.7051 70.9943 84.2798 71.2778 84.0934 71.6577C83.2395 73.4052 83.0133 75.4132 83.4557 77.3192C83.8981 79.2252 84.98 80.9037 86.506 82.0517C86.8374 82.3016 86.4201 82.8014 86.0906 82.553Z" fill="white"/>
<path d="M81.9638 100.215C86.0526 99.5928 89.766 97.3879 92.3635 94.04C92.6206 93.7081 93.1015 94.1412 92.8447 94.4727C90.1354 97.9513 86.2666 100.238 82.0103 100.876C81.6046 100.936 81.5602 100.275 81.9638 100.215Z" fill="white"/>
<path d="M98.5131 68.2494C99.0483 68.8674 99.7224 69.3372 100.475 69.6167C101.227 69.8962 102.035 69.9766 102.825 69.8507C103.229 69.7849 103.273 70.4457 102.871 70.5111C101.998 70.646 101.106 70.5561 100.274 70.2492C99.4422 69.9423 98.6949 69.4279 98.0977 68.7507C98.0363 68.6918 97.9987 68.6107 97.9926 68.524C97.9865 68.4372 98.0123 68.3513 98.0648 68.2837C98.1201 68.2176 98.1982 68.1769 98.2822 68.1705C98.3661 68.1641 98.4491 68.1924 98.5131 68.2494Z" fill="white"/>
<path d="M138.368 101.955C138.117 102.003 137.865 102.052 137.611 102.106C134.231 102.777 130.909 103.734 127.678 104.966C127.427 105.057 127.174 105.153 126.925 105.252C119.171 108.306 112.029 112.834 105.862 118.605C103.41 120.904 101.129 123.394 99.0395 126.053C96.154 129.725 93.3059 133.947 89.5352 136.341C89.1445 136.596 88.7391 136.825 88.3212 137.027L66.5997 127.641C66.5606 127.594 66.5192 127.552 66.4799 127.504L65.5962 127.171C65.6948 127.026 65.8 126.878 65.8986 126.733C65.9554 126.648 66.0171 126.566 66.0739 126.482C66.1134 126.426 66.153 126.371 66.1856 126.318C66.1986 126.3 66.2119 126.281 66.2229 126.268C66.2555 126.215 66.291 126.17 66.3215 126.123C66.9075 125.293 67.5001 124.466 68.0993 123.642C68.1014 123.637 68.1014 123.637 68.1083 123.634C72.6894 117.366 77.8131 111.441 83.6371 106.515C83.8123 106.367 83.9894 106.213 84.1746 106.07C86.8116 103.864 89.6172 101.887 92.5634 100.158C94.1796 99.2167 95.8405 98.3611 97.5397 97.5947C101.934 95.6231 106.598 94.3838 111.362 93.9222C120.859 93.0035 130.532 95.2591 137.816 101.474C138.002 101.633 138.184 101.79 138.368 101.955Z" fill="#F0F0F0"/>
<path d="M138.205 102.221C126.621 99.807 114.222 101.233 103.49 106.419C101.17 107.54 98.9096 108.888 97.0286 110.713C95.1467 112.538 93.9451 114.739 93.1877 117.282C92.4953 119.607 92.0454 122.068 90.8226 124.177C89.5337 126.4 87.4093 127.756 84.9901 128.257C82.0302 128.869 79.0355 128.337 76.1243 127.71C72.892 127.015 69.5453 126.239 66.2707 127.108C65.8739 127.213 65.7404 126.565 66.1365 126.46C71.8338 124.949 77.3767 128.178 83.0856 127.84C85.7494 127.683 88.3838 126.688 89.9637 124.338C91.3452 122.284 91.8112 119.746 92.4927 117.386C93.2084 114.908 94.2763 112.69 96.0185 110.817C97.8008 108.901 100.015 107.458 102.298 106.28C107.445 103.623 113.097 101.911 118.774 101.052C125.298 100.065 131.937 100.247 138.402 101.591C138.803 101.675 138.602 102.304 138.205 102.221Z" fill="white"/>
<path d="M106.893 104.542C106.309 102.526 106.431 100.359 107.239 98.4285C108.046 96.498 109.486 94.9293 111.301 94.0026C111.669 93.8164 111.964 94.4032 111.596 94.5896C109.904 95.4493 108.563 96.9107 107.814 98.71C107.066 100.509 106.96 102.528 107.515 104.402C107.635 104.809 107.013 104.947 106.893 104.542Z" fill="white"/>
<path d="M93.3899 116.055C97.0143 118.123 101.254 118.691 105.262 117.647C105.66 117.544 105.793 118.191 105.397 118.295C101.223 119.373 96.8125 118.772 93.0454 116.612C92.6865 116.406 93.0329 115.85 93.3899 116.055Z" fill="white"/>
<path d="M125.078 100.912C125.149 101.741 125.415 102.539 125.855 103.234C126.294 103.929 126.892 104.5 127.595 104.895C127.957 105.096 127.61 105.651 127.251 105.451C126.476 105.011 125.816 104.38 125.329 103.614C124.842 102.847 124.542 101.967 124.457 101.052C124.442 100.966 124.459 100.878 124.504 100.805C124.549 100.732 124.62 100.679 124.701 100.658C124.783 100.64 124.869 100.657 124.94 100.704C125.01 100.752 125.06 100.827 125.078 100.912Z" fill="white"/>
<path d="M96.99 117.44C93.9479 102.117 90.1454 97.0082 90.1454 97.0082L88.6927 95.8347L86.9457 94.421L86.9542 94.2393L86.5398 94.0926L86.4425 94.0138L86.283 93.8862L86.2573 93.915L86.2032 93.9734L78.298 91.1741L68.2689 87.6253L63.6249 81.337C62.8685 80.3128 61.8947 79.4851 60.7799 78.9186C59.6651 78.3521 58.4394 78.0623 57.1991 78.0719L42.3673 78.1862C40.3619 78.2017 38.4346 78.9981 36.9642 80.4188L27.2156 89.8389L12.0253 97.3965L11.9996 97.3697L11.8401 97.4884L9.49309 98.6575L9.58994 99.1827L8.13727 100.275C8.13727 100.275 4.33472 105.028 1.29267 119.286C0.518803 122.914 0.137879 130.696 0.000386384 140.285C-0.00651988 140.77 0.0792182 141.252 0.252613 141.702C0.426008 142.153 0.683602 142.563 1.01042 142.908C1.33723 143.254 1.72674 143.528 2.15631 143.716C2.58588 143.903 3.04693 144 3.51265 144H84.647L94.7736 144C95.239 144 95.6997 143.903 96.129 143.716C96.5583 143.529 96.9476 143.255 97.2744 142.909C97.6012 142.564 97.8588 142.155 98.0325 141.705C98.2061 141.255 98.2923 140.774 98.2859 140.289C98.1516 129.854 97.7709 121.374 96.99 117.44Z" fill="#3F3D56"/>
<path d="M107.4 13.3626C104.243 13.3626 101.216 14.6689 98.9841 16.9941C96.752 19.3194 95.498 22.473 95.498 25.7614C95.498 29.0498 96.752 32.2034 98.9841 34.5286C101.216 36.8539 104.243 38.1602 107.4 38.1602H196.098C199.255 38.1602 202.282 36.8539 204.514 34.5286C206.746 32.2034 208 29.0498 208 25.7614C208 22.473 206.746 19.3194 204.514 16.9941C202.282 14.6689 199.255 13.3626 196.098 13.3626H107.4Z" fill="#E5E5E5"/>
<path d="M107.4 15.8719C104.882 15.8719 102.468 16.9138 100.687 18.7685C98.9069 20.6231 97.9067 23.1386 97.9067 25.7614C97.9067 28.3843 98.9069 30.8997 100.687 32.7543C102.468 34.609 104.882 35.6509 107.4 35.6509H196.098C198.616 35.6509 201.031 34.609 202.811 32.7543C204.591 30.8997 205.591 28.3843 205.591 25.7614C205.591 23.1386 204.591 20.6231 202.811 18.7685C201.031 16.9138 198.616 15.8719 196.098 15.8719H107.4Z" fill="white"/>
<path d="M52.1122 72.2674C62.8436 72.2674 71.5432 63.2047 71.5432 52.0254C71.5432 40.846 62.8436 31.7833 52.1122 31.7833C41.3807 31.7833 32.6812 40.846 32.6812 52.0254C32.6812 63.2047 41.3807 72.2674 52.1122 72.2674Z" fill="#9E616A"/>
<path d="M47.1414 71.2762C47.0584 71.0858 46.9756 70.8948 46.8931 70.7031C46.9249 70.7041 46.9564 70.7089 46.9882 70.7098L47.1414 71.2762Z" fill="#2F2E41"/>
<path d="M32.1413 32.7038C33.124 31.8871 34.2726 31.1357 35.5292 31.1779C36.7856 31.2201 38.0598 32.4023 37.7995 33.6835C40.1074 29.4266 43.7809 26.1525 48.1752 24.436C52.5695 22.7195 57.4038 22.6702 61.8295 24.2968C64.9524 25.4446 68.0149 27.7408 68.7323 31.1087C68.9164 31.9732 68.956 32.9212 69.4742 33.6232C70.1275 34.5084 71.3775 34.7086 72.4068 34.3972C72.4171 34.3941 72.4274 34.3909 72.4376 34.3877C72.6115 34.3259 72.7992 34.3198 72.9765 34.3703C73.1537 34.4208 73.3123 34.5255 73.4318 34.6709C73.5513 34.8163 73.6261 34.9957 73.6467 35.186C73.6672 35.3762 73.6325 35.5684 73.547 35.7379L72.6634 37.4546C73.7772 37.7132 74.9346 37.6876 76.0369 37.3798C76.22 37.3298 76.4135 37.34 76.5908 37.4091C76.7681 37.4781 76.9206 37.6027 77.0273 37.7655C77.134 37.9284 77.1897 38.1217 77.1868 38.3189C77.1839 38.5161 77.1224 38.7075 77.011 38.8669C74.0973 43.0341 69.2296 45.7251 64.2622 45.6935C60.7317 45.671 57.1648 44.4035 53.7288 45.2493C52.3996 45.5764 51.1575 46.2095 50.0937 47.102C49.03 47.9945 48.1715 49.1237 47.5813 50.4069C46.9912 51.6901 46.6843 53.0946 46.6831 54.5175C46.682 55.9404 46.9867 57.3455 47.5748 58.6297C46.5192 57.4269 44.4787 57.7117 43.399 58.8909C42.3193 60.0702 42.0398 61.8303 42.1486 63.456C42.3149 65.9425 43.2501 68.2855 44.236 70.5658C35.9703 70.2948 28.1522 64.2545 25.5207 56.0848C22.8781 47.881 25.6476 38.1002 32.1413 32.7038Z" fill="#2F2E41"/>
<path opacity="0.2" d="M19.125 112.813L24.575 143.703L27.8451 144L19.125 112.813Z" fill="black"/>
<path opacity="0.2" d="M79.1576 110.484L73.7076 143.681L70.4375 144L79.1576 110.484Z" fill="black"/>
<path d="M36.7895 22.3079C35.7446 22.7625 34.6542 22.2643 34.1969 21.1235C33.7327 19.9652 34.1663 18.7895 35.228 18.3276C36.2898 17.8658 37.3607 18.3651 37.8325 19.5421C38.2972 20.7013 37.8683 21.8387 36.7895 22.3079ZM34.7878 16.0478L33.957 16.4092C33.7494 16.4984 33.5173 16.5032 33.3065 16.4227C33.0957 16.3422 32.9216 16.1821 32.8186 15.9743L32.7775 15.8905C31.8835 14.2109 31.7811 12.1697 32.4749 9.82655C33.1175 7.72467 33.3844 6.24642 32.8476 4.90721C32.227 3.35883 30.9017 2.8738 29.2116 3.57642C28.5561 3.86155 28.3476 3.85701 27.8317 4.39008C27.7195 4.50745 27.5858 4.60008 27.4385 4.66244C27.2911 4.7248 27.1333 4.75561 26.9743 4.75305C26.8206 4.75117 26.6688 4.71706 26.5281 4.65276C26.3873 4.58846 26.2604 4.49528 26.1549 4.37879C25.9518 4.1543 25.8379 3.85785 25.8364 3.54932C25.8349 3.24079 25.9459 2.94316 26.1469 2.71654C27.0139 1.77104 28.0597 1.02303 29.2182 0.519706C32.8494 -1.05985 34.6774 1.27214 35.5139 3.35905C36.3321 5.4003 35.8718 7.29423 35.1323 9.74705C34.5126 11.7852 34.5487 13.2954 35.2526 14.7971C35.3035 14.9106 35.3317 15.0337 35.3358 15.1589C35.3398 15.2841 35.3195 15.4088 35.2761 15.5256C35.2327 15.6424 35.1671 15.7489 35.0831 15.8386C34.9992 15.9284 34.8988 15.9995 34.7878 16.0478Z" fill="#F50057"/>
<path d="M126.992 31.6748H109.344C109.288 31.6752 109.233 31.664 109.181 31.6419C109.129 31.6198 109.082 31.5873 109.042 31.5461C109.002 31.505 108.971 31.456 108.949 31.4021C108.928 31.3482 108.917 31.2903 108.917 31.2319C108.917 31.1735 108.928 31.1157 108.949 31.0618C108.971 31.0079 109.002 30.9589 109.042 30.9178C109.082 30.8766 109.129 30.844 109.181 30.822C109.233 30.7999 109.288 30.7887 109.344 30.7891H126.992C127.104 30.7899 127.212 30.8369 127.291 30.9199C127.37 31.0028 127.414 31.115 127.414 31.2319C127.414 31.3489 127.37 31.461 127.291 31.544C127.212 31.627 127.104 31.674 126.992 31.6748Z" fill="#F50057"/>
<path d="M149.379 31.8224H131.732C131.676 31.8228 131.62 31.8116 131.568 31.7895C131.516 31.7675 131.469 31.7349 131.429 31.6937C131.389 31.6526 131.358 31.6036 131.336 31.5497C131.315 31.4958 131.304 31.438 131.304 31.3796C131.304 31.3212 131.315 31.2633 131.336 31.2094C131.358 31.1555 131.389 31.1065 131.429 31.0654C131.469 31.0242 131.516 30.9917 131.568 30.9696C131.62 30.9475 131.676 30.9363 131.732 30.9367H149.379C149.435 30.9363 149.491 30.9475 149.543 30.9696C149.595 30.9917 149.642 31.0242 149.682 31.0654C149.722 31.1065 149.753 31.1555 149.775 31.2094C149.796 31.2633 149.807 31.3212 149.807 31.3796C149.807 31.438 149.796 31.4958 149.775 31.5497C149.753 31.6036 149.722 31.6526 149.682 31.6937C149.642 31.7349 149.595 31.7675 149.543 31.7895C149.491 31.8116 149.435 31.8228 149.379 31.8224Z" fill="#F50057"/>
<path d="M171.766 31.97H154.118C154.006 31.9692 153.899 31.9222 153.82 31.8392C153.741 31.7563 153.696 31.6441 153.696 31.5272C153.696 31.4102 153.741 31.2981 153.82 31.2151C153.899 31.1322 154.006 31.0852 154.118 31.0844H171.766C171.822 31.084 171.878 31.0951 171.93 31.1172C171.982 31.1393 172.029 31.1718 172.069 31.213C172.108 31.2541 172.14 31.3031 172.161 31.357C172.183 31.4109 172.194 31.4688 172.194 31.5272C172.194 31.5856 172.183 31.6434 172.161 31.6973C172.14 31.7513 172.108 31.8002 172.069 31.8414C172.029 31.8825 171.982 31.9151 171.93 31.9371C171.878 31.9592 171.822 31.9704 171.766 31.97Z" fill="#F50057"/>
<path d="M194.153 32.1176H176.506C176.393 32.1168 176.286 32.0698 176.207 31.9868C176.128 31.9038 176.083 31.7917 176.083 31.6747C176.083 31.5578 176.128 31.4456 176.207 31.3627C176.286 31.2797 176.393 31.2327 176.506 31.2319H194.153C194.266 31.2327 194.373 31.2797 194.452 31.3627C194.531 31.4456 194.576 31.5578 194.576 31.6747C194.576 31.7917 194.531 31.9038 194.452 31.9868C194.373 32.0698 194.266 32.1168 194.153 32.1176Z" fill="#F50057"/>
<path d="M118.13 27.5995C119.941 27.5995 121.409 26.0697 121.409 24.1827C121.409 22.2956 119.941 20.7658 118.13 20.7658C116.318 20.7658 114.85 22.2956 114.85 24.1827C114.85 26.0697 116.318 27.5995 118.13 27.5995Z" fill="#F50057"/>
<path d="M140.652 27.5995C142.463 27.5995 143.932 26.0697 143.932 24.1827C143.932 22.2956 142.463 20.7658 140.652 20.7658C138.841 20.7658 137.372 22.2956 137.372 24.1827C137.372 26.0697 138.841 27.5995 140.652 27.5995Z" fill="#F50057"/>
<path d="M163.174 27.5995C164.985 27.5995 166.454 26.0697 166.454 24.1827C166.454 22.2956 164.985 20.7658 163.174 20.7658C161.363 20.7658 159.894 22.2956 159.894 24.1827C159.894 26.0697 161.363 27.5995 163.174 27.5995Z" fill="#F50057"/>
<path d="M185.696 27.5995C187.508 27.5995 188.976 26.0697 188.976 24.1827C188.976 22.2956 187.508 20.7658 185.696 20.7658C183.885 20.7658 182.417 22.2956 182.417 24.1827C182.417 26.0697 183.885 27.5995 185.696 27.5995Z" fill="#F50057"/>
</g>
<defs>
<clipPath id="clip0_1133_1877">
<rect width="208" height="144" fill="white"/>
</clipPath>
</defs>
</svg>
