<svg width="27" height="27" viewBox="0 0 27 27" fill="none" xmlns="http://www.w3.org/2000/svg">
<g clip-path="url(#clip0_75_606)">
<path d="M26.3691 13.7526C26.3691 12.6464 26.2793 11.8392 26.0851 11.0021H13.4536V15.9948H20.868C20.7186 17.2356 19.9114 19.1042 18.1175 20.3598L18.0924 20.5269L22.0862 23.6209L22.3629 23.6485C24.9041 21.3016 26.3691 17.8484 26.3691 13.7526Z" fill="#4285F4"/>
<path d="M13.4536 26.9073C17.0861 26.9073 20.1355 25.7113 22.3629 23.6485L18.1175 20.3598C16.9815 21.152 15.4567 21.7051 13.4536 21.7051C9.89592 21.7051 6.87635 19.3583 5.79996 16.1145L5.64218 16.1279L1.48934 19.3418L1.43503 19.4928C3.64738 23.8876 8.19173 26.9073 13.4536 26.9073Z" fill="#34A853"/>
<path d="M5.79995 16.1145C5.51593 15.2774 5.35156 14.3804 5.35156 13.4536C5.35156 12.5268 5.51593 11.6299 5.78501 10.7928L5.77748 10.6145L1.5726 7.34895L1.43502 7.41439C0.523202 9.23813 0 11.2861 0 13.4536C0 15.6212 0.523202 17.669 1.43502 19.4928L5.79995 16.1145Z" fill="#FBBC05"/>
<path d="M13.4536 5.20203C15.9799 5.20203 17.684 6.29327 18.6557 7.20519L22.4526 3.49794C20.1207 1.33042 17.0861 0 13.4536 0C8.19173 0 3.64738 3.01957 1.43503 7.41439L5.78502 10.7928C6.87635 7.54897 9.89592 5.20203 13.4536 5.20203Z" fill="#EB4335"/>
</g>
<defs>
<clipPath id="clip0_75_606">
<rect width="27" height="27" fill="white"/>
</clipPath>
</defs>
</svg>
