<svg width="8" height="12" viewBox="0 0 8 12" fill="none" xmlns="http://www.w3.org/2000/svg">
<path d="M3.35021 12V10.5667C2.76132 10.4333 2.2531 10.1778 1.82555 9.8C1.39754 9.42222 1.08354 8.88889 0.883545 8.2L2.11688 7.7C2.28355 8.23333 2.53088 8.63889 2.85888 8.91667C3.18643 9.19444 3.61688 9.33333 4.15021 9.33333C4.60577 9.33333 4.99199 9.23067 5.30888 9.02533C5.62532 8.81956 5.78355 8.5 5.78355 8.06667C5.78355 7.67778 5.66132 7.36933 5.41688 7.14133C5.17243 6.91378 4.60577 6.65556 3.71688 6.36667C2.76132 6.06667 2.10577 5.70844 1.75021 5.292C1.39466 4.87511 1.21688 4.36667 1.21688 3.76667C1.21688 3.04444 1.45021 2.48333 1.91688 2.08333C2.38355 1.68333 2.86132 1.45556 3.35021 1.4V0H4.68354V1.4C5.2391 1.48889 5.69755 1.69156 6.05888 2.008C6.41977 2.32489 6.68355 2.71111 6.85021 3.16667L5.61688 3.7C5.48355 3.34444 5.29466 3.07778 5.05021 2.9C4.80577 2.72222 4.47243 2.63333 4.05021 2.63333C3.56132 2.63333 3.1891 2.74178 2.93354 2.95867C2.67799 3.17511 2.55021 3.44444 2.55021 3.76667C2.55021 4.13333 2.71688 4.42222 3.05021 4.63333C3.38354 4.84444 3.96132 5.06667 4.78355 5.3C5.55021 5.52222 6.13088 5.87489 6.52555 6.358C6.91977 6.84156 7.11688 7.4 7.11688 8.03333C7.11688 8.82222 6.88355 9.42222 6.41688 9.83333C5.95021 10.2444 5.37243 10.5 4.68354 10.6V12H3.35021Z" fill="#23C220"/>
</svg>
