<svg width="30" height="30" viewBox="0 0 30 30" fill="none" xmlns="http://www.w3.org/2000/svg">
<path d="M10.5356 3.42859C7.08439 3.42859 4.28564 6.22734 4.28564 9.67859V19.6786C4.28564 23.1298 7.08439 25.9286 10.5356 25.9286H20.5356C23.9869 25.9286 26.7856 23.1298 26.7856 19.6786V9.67859C26.7856 6.22734 23.9869 3.42859 20.5356 3.42859H10.5356ZM23.0356 5.92859C23.7256 5.92859 24.2856 6.48859 24.2856 7.17859C24.2856 7.86859 23.7256 8.42859 23.0356 8.42859C22.3456 8.42859 21.7856 7.86859 21.7856 7.17859C21.7856 6.48859 22.3456 5.92859 23.0356 5.92859ZM15.5356 8.42859C18.9869 8.42859 21.7856 11.2273 21.7856 14.6786C21.7856 18.1298 18.9869 20.9286 15.5356 20.9286C12.0844 20.9286 9.28564 18.1298 9.28564 14.6786C9.28564 11.2273 12.0844 8.42859 15.5356 8.42859ZM15.5356 10.9286C14.5411 10.9286 13.5873 11.3237 12.884 12.0269C12.1807 12.7302 11.7856 13.684 11.7856 14.6786C11.7856 15.6732 12.1807 16.627 12.884 17.3302C13.5873 18.0335 14.5411 18.4286 15.5356 18.4286C16.5302 18.4286 17.484 18.0335 18.1873 17.3302C18.8906 16.627 19.2856 15.6732 19.2856 14.6786C19.2856 13.684 18.8906 12.7302 18.1873 12.0269C17.484 11.3237 16.5302 10.9286 15.5356 10.9286Z" fill="black"/>
</svg>
