<svg width="80" height="108" viewBox="0 0 80 108" fill="none" xmlns="http://www.w3.org/2000/svg">
<g clip-path="url(#clip0_5_46)">
<path d="M59.7199 92.14C61.6297 93.2354 62.7272 94.504 62.7272 95.8585C62.7272 99.9925 52.5518 103.343 40 103.343C27.4483 103.343 17.2716 99.9925 17.2716 95.8585C17.2716 94.5006 18.3679 93.2354 20.2777 92.14C13.5786 93.7876 9.31549 96.2569 9.31549 99.0181C9.31549 103.978 23.0524 108 39.9964 108C56.9403 108 70.6773 103.978 70.6773 99.0181C70.6809 96.2569 66.419 93.7876 59.7199 92.14Z" fill="white"/>
<path d="M76.1297 13.253C62.7894 -4.43786 16.3169 -4.44465 3.28822 13.253C-6.84235 27.0155 7.64571 54.0832 16.5906 68.9032C35.1044 99.5754 45.6996 99.8312 63.8191 68.9032C72.4987 54.0855 86.5043 27.0155 76.1297 13.253ZM40.0436 50.6044C36.2287 50.6051 32.4898 49.5539 29.3 47.5837C26.1101 45.6136 23.6124 42.813 22.1228 39.5361C20.6333 36.2593 20.2187 32.6533 20.9316 29.1744C21.6445 25.6955 23.4529 22.4998 26.1279 19.9915C28.803 17.4832 32.2246 15.775 35.96 15.0829C39.6955 14.3908 43.5769 14.7459 47.1136 16.1033C50.6502 17.4607 53.6832 19.7594 55.8288 22.7087C57.9744 25.658 59.1364 29.1254 59.1678 32.6725C59.2102 37.4279 57.2192 41.9886 53.6328 45.3515C50.0464 48.7143 45.1583 50.6038 40.0436 50.6044Z" fill="white"/>
<path d="M30 91.3195C26.81 92.2429 24.7929 93.6009 24.7929 95.115C24.7929 97.9 31.6017 100.158 40 100.158C48.3983 100.158 55.207 97.8944 55.207 95.115C55.207 93.5986 53.1851 92.2395 49.9878 91.315C43.0938 97.3319 36.8611 97.3116 30 91.3195Z" fill="white"/>
</g>
<defs>
<clipPath id="clip0_5_46">
<rect width="80" height="108" fill="white"/>
</clipPath>
</defs>
</svg>
