<svg width="20" height="20" viewBox="0 0 20 20" fill="none" xmlns="http://www.w3.org/2000/svg">
<mask id="mask0_154_1443" style="mask-type:alpha" maskUnits="userSpaceOnUse" x="0" y="0" width="20" height="20">
<rect width="20" height="20" fill="#D9D9D9"/>
</mask>
<g mask="url(#mask0_154_1443)">
<path d="M9.25008 15.8334H10.7084V14.7917C11.4029 14.6667 12.0001 14.3959 12.5001 13.9792C13.0001 13.5626 13.2501 12.9445 13.2501 12.1251C13.2501 11.5417 13.0834 11.007 12.7501 10.5209C12.4167 10.0348 11.7501 9.61119 10.7501 9.25008C9.91675 8.9723 9.34036 8.72925 9.02091 8.52092C8.70147 8.31258 8.54175 8.02786 8.54175 7.66675C8.54175 7.30564 8.67036 7.02091 8.92758 6.81258C9.18425 6.60425 9.55564 6.50008 10.0417 6.50008C10.4862 6.50008 10.8334 6.60786 11.0834 6.82341C11.3334 7.03841 11.514 7.30564 11.6251 7.62508L12.9584 7.08341C12.8056 6.5973 12.5245 6.17369 12.1151 5.81258C11.7051 5.45147 11.2501 5.25008 10.7501 5.20841V4.16675H9.29175V5.20841C8.5973 5.36119 8.05564 5.66675 7.66675 6.12508C7.27786 6.58341 7.08341 7.0973 7.08341 7.66675C7.08341 8.31953 7.27453 8.8473 7.65675 9.25008C8.03841 9.65286 8.63897 10.0001 9.45842 10.2917C10.3334 10.6112 10.9412 10.8959 11.2817 11.1459C11.6217 11.3959 11.7917 11.7223 11.7917 12.1251C11.7917 12.5834 11.6284 12.9201 11.3017 13.1351C10.9756 13.3506 10.5834 13.4584 10.1251 13.4584C9.66675 13.4584 9.26064 13.3159 8.90675 13.0309C8.5523 12.7465 8.29175 12.3195 8.12508 11.7501L6.75008 12.2917C6.94453 12.9584 7.24675 13.4967 7.65675 13.9067C8.06619 14.3162 8.5973 14.5973 9.25008 14.7501V15.8334ZM10.0001 18.3334C8.8473 18.3334 7.76397 18.1145 6.75008 17.6767C5.73619 17.2395 4.85425 16.6459 4.10425 15.8959C3.35425 15.1459 2.76064 14.264 2.32341 13.2501C1.88564 12.2362 1.66675 11.1529 1.66675 10.0001C1.66675 8.8473 1.88564 7.76397 2.32341 6.75008C2.76064 5.73619 3.35425 4.85425 4.10425 4.10425C4.85425 3.35425 5.73619 2.76036 6.75008 2.32258C7.76397 1.88536 8.8473 1.66675 10.0001 1.66675C11.1529 1.66675 12.2362 1.88536 13.2501 2.32258C14.264 2.76036 15.1459 3.35425 15.8959 4.10425C16.6459 4.85425 17.2395 5.73619 17.6767 6.75008C18.1145 7.76397 18.3334 8.8473 18.3334 10.0001C18.3334 11.1529 18.1145 12.2362 17.6767 13.2501C17.2395 14.264 16.6459 15.1459 15.8959 15.8959C15.1459 16.6459 14.264 17.2395 13.2501 17.6767C12.2362 18.1145 11.1529 18.3334 10.0001 18.3334ZM10.0001 16.6667C11.8473 16.6667 13.4204 16.0176 14.7192 14.7192C16.0176 13.4204 16.6667 11.8473 16.6667 10.0001C16.6667 8.15286 16.0176 6.5798 14.7192 5.28091C13.4204 3.98258 11.8473 3.33341 10.0001 3.33341C8.15286 3.33341 6.58008 3.98258 5.28175 5.28091C3.98286 6.5798 3.33341 8.15286 3.33341 10.0001C3.33341 11.8473 3.98286 13.4204 5.28175 14.7192C6.58008 16.0176 8.15286 16.6667 10.0001 16.6667Z" fill="#23C220"/>
</g>
</svg>
