<svg width="190" height="182" viewBox="0 0 190 182" fill="none" xmlns="http://www.w3.org/2000/svg">
<g clip-path="url(#clip0_76_405)">
<path d="M95 182C147.467 182 190 141.258 190 91C190 40.7421 147.467 0 95 0C42.533 0 0 40.7421 0 91C0 141.258 42.533 182 95 182Z" fill="#E84118"/>
<path d="M55.0676 129.04L65.8018 121.494L32.17 77.5924L21.4358 85.1377L55.0676 129.04Z" fill="#F9B54C"/>
<path d="M47.5748 93.4362L32.6142 103.898C32.0158 104.328 31.2677 104.184 30.8189 103.754L10.1732 80.2519C9.72442 79.6787 9.72442 78.8189 10.4725 78.3889L28.874 65.348C29.4725 64.9181 30.3701 65.0614 30.8189 65.6346L47.874 91.5732C48.3228 92.2897 48.1732 93.0063 47.5748 93.4362Z" fill="#FFD05B"/>
<path d="M28.874 77.6724C30.196 77.6724 31.2677 76.6459 31.2677 75.3795C31.2677 74.1132 30.196 73.0866 28.874 73.0866C27.552 73.0866 26.4803 74.1132 26.4803 75.3795C26.4803 76.6459 27.552 77.6724 28.874 77.6724Z" fill="#F9B54C"/>
<path d="M34.2599 84.5512C35.5819 84.5512 36.6536 83.5246 36.6536 82.2582C36.6536 80.9919 35.5819 79.9653 34.2599 79.9653C32.9378 79.9653 31.8661 80.9919 31.8661 82.2582C31.8661 83.5246 32.9378 84.5512 34.2599 84.5512Z" fill="#F9B54C"/>
<path d="M39.4961 91.4299C40.8181 91.4299 41.8898 90.4033 41.8898 89.137C41.8898 87.8706 40.8181 86.8441 39.4961 86.8441C38.1741 86.8441 37.1024 87.8706 37.1024 89.137C37.1024 90.4033 38.1741 91.4299 39.4961 91.4299Z" fill="#F9B54C"/>
<path d="M20.1969 83.8347C21.5189 83.8347 22.5906 82.8081 22.5906 81.5418C22.5906 80.2754 21.5189 79.2488 20.1969 79.2488C18.8749 79.2488 17.8032 80.2754 17.8032 81.5418C17.8032 82.8081 18.8749 83.8347 20.1969 83.8347Z" fill="#F9B54C"/>
<path d="M25.4331 90.7134C26.7551 90.7134 27.8268 89.6868 27.8268 88.4205C27.8268 87.1541 26.7551 86.1276 25.4331 86.1276C24.1111 86.1276 23.0394 87.1541 23.0394 88.4205C23.0394 89.6868 24.1111 90.7134 25.4331 90.7134Z" fill="#F9B54C"/>
<path d="M30.6693 97.5921C31.9913 97.5921 33.063 96.5655 33.063 95.2992C33.063 94.0329 31.9913 93.0063 30.6693 93.0063C29.3473 93.0063 28.2756 94.0329 28.2756 95.2992C28.2756 96.5655 29.3473 97.5921 30.6693 97.5921Z" fill="#F9B54C"/>
<path d="M161.724 155.488C144.969 171.825 121.181 182 94.8504 182C94.5512 182 94.252 182 93.9528 182L94.8504 180.137L108.614 152.335L116.244 121.954L112.354 114.216C113.102 114.789 161.724 117.225 161.724 155.488Z" fill="#2B3B4E"/>
<path d="M114.598 132.989V116.509C113.252 115.649 112.205 114.502 111.457 113.213C111.008 112.353 110.709 111.35 110.709 110.346L109.213 92.0032H80.6378L79.5906 105.761L79.2913 110.203C79.1417 112.926 77.3465 115.219 74.9528 116.652V132.989H114.598Z" fill="white"/>
<path d="M79.2913 126.397C79.2913 126.397 94.4016 134.995 110.409 126.397C110.409 126.397 116.543 136.285 94.8504 178.704C94.7008 178.704 75.252 141.874 79.2913 126.397Z" fill="#84DBFF"/>
<path d="M111.457 113.069C87.6693 130.409 79.7402 106.477 79.5905 105.761L80.6378 92.0032H109.213L110.709 110.346C110.709 111.206 111.008 112.209 111.457 113.069Z" fill="#E6E9EE"/>
<path d="M95.8976 182C95.5984 182 95.2992 182 95 182C94.7008 182 94.4016 182 94.1024 182C93.8032 182 93.5039 182 93.2047 182C67.6221 181.57 44.5827 171.395 28.2756 155.488C28.2756 117.655 76.8977 114.789 77.4961 114.216L73.6063 121.954L81.2362 152.335L95 180.137L95.8976 182Z" fill="#2B3B4E"/>
<path d="M122.827 126.54L132.402 137.861C132.402 137.861 96.3464 182 96.1968 181.857C95.748 181.713 95.4488 181.857 95 181.857C94.7008 181.857 94.4016 181.857 94.1024 181.857C93.8031 181.857 93.5039 181.857 93.2047 181.857C99.4882 165.09 118.937 116.795 107.268 98.452C108.016 99.1685 137.189 101.605 137.189 126.54H122.827Z" fill="#324A5E"/>
<path d="M67.1732 126.54L57.5984 137.861C57.5984 137.861 93.6535 182 93.8031 181.857C94.252 181.713 94.5512 181.857 95 181.857C95.2992 181.857 95.5984 181.857 95.8976 181.857C96.1968 181.857 96.496 181.857 96.7953 181.857C90.3622 165.09 70.9134 116.652 82.5827 98.452C81.8346 99.1685 52.6614 102.035 52.6614 126.54H67.1732Z" fill="#324A5E"/>
<path d="M122.677 68.3575C121.929 67.9276 121.031 67.9276 120.134 68.3575C120.134 68.0709 120.134 67.6409 120.134 67.3543C120.134 49.2976 108.465 42.8488 93.9528 42.8488C79.4409 42.8488 67.7716 49.4409 67.7716 67.3543C67.7716 67.6409 67.7716 68.0709 67.7716 68.3575C66.874 68.0709 65.9764 67.9276 65.2283 68.3575C63.1339 69.5039 62.8346 73.8031 64.7795 78.1024C66.2756 81.5417 68.6693 83.6913 70.7638 83.8346C75.1024 96.7323 83.9291 108.054 94.1024 108.054C104.276 108.054 113.102 96.8756 117.441 83.8346C119.535 83.8346 121.929 81.5417 123.425 78.1024C125.071 73.8031 124.772 69.5039 122.677 68.3575Z" fill="white"/>
<path d="M110.709 27.3716C110.709 27.3716 126.118 35.8268 128.063 59.4724C128.063 59.4724 128.213 68.7874 122.079 71.5102C122.079 71.5102 125.37 71.9401 128.063 67.7842C128.063 67.7842 122.079 83.9779 129.858 97.3055C129.858 97.3055 131.205 116.652 139.283 119.661C139.283 119.661 114.449 113.786 106.669 93.8661C106.669 93.8661 115.945 76.0961 111.457 60.3323L110.409 64.7748C110.409 64.7748 108.764 50.7307 97.3937 50.0142L99.0394 52.4504C99.0394 52.4504 77.6457 44.4252 78.5433 70.0772L76 67.6409C76 67.6409 75.1024 87.7039 79.7401 93.2929L75.8504 92.1465C75.8504 92.1465 78.2441 110.06 85.5748 117.082C85.5748 117.082 62.9842 118.658 58.6457 134.422C58.6457 134.422 65.8268 95.4425 63.7323 76.6693L60.1417 81.685C60.1417 81.685 54.7559 51.7338 75.5512 42.1323L67.0236 42.2756C67.0236 42.2756 85.4252 17.6268 111.157 34.8236L110.709 27.3716Z" fill="#FF7058"/>
</g>
<defs>
<clipPath id="clip0_76_405">
<rect width="190" height="182" fill="white"/>
</clipPath>
</defs>
</svg>
