<svg width="142" height="162" viewBox="0 0 142 162" fill="none" xmlns="http://www.w3.org/2000/svg">
<g clip-path="url(#clip0_145_1015)">
<path d="M61.5093 159.37L58.173 159.37L56.5859 145.028L61.51 145.028L61.5093 159.37Z" fill="#A0616A"/>
<path d="M50.0786 159.286C49.9747 159.481 49.9199 160.11 49.9199 160.337C49.9199 161.034 50.4269 161.599 51.0523 161.599H61.3843C61.811 161.599 62.1568 161.213 62.1568 160.738V160.258C62.1568 160.258 62.668 158.818 61.6157 157.042C61.6157 157.042 60.3078 158.432 58.3535 156.254L57.7772 155.091L53.6055 158.491L51.2933 158.808C50.7874 158.877 50.3389 158.797 50.0787 159.286H50.0786V159.286Z" fill="#2F2E41"/>
<path d="M46.5611 159.37L43.2248 159.37L41.6377 145.028L46.5617 145.028L46.5611 159.37Z" fill="#A0616A"/>
<path d="M35.1304 159.286C35.0265 159.481 34.9717 160.11 34.9717 160.337C34.9717 161.034 35.4786 161.599 36.104 161.599H46.4361C46.8627 161.599 47.2086 161.213 47.2086 160.738V160.258C47.2086 160.258 47.7197 158.818 46.6674 157.042C46.6674 157.042 45.3595 158.432 43.4052 156.254L42.8289 155.091L38.6573 158.491L36.345 158.808C35.8391 158.877 35.3906 158.797 35.1304 159.286H35.1304V159.286Z" fill="#2F2E41"/>
<path d="M61.7956 69.392L64.9017 78.2628L62.475 149.121H55.6804L49.5652 85.1864L48.1092 149.338L41.5086 149.121L34.3257 77.9383L39.082 71.5556L61.7956 69.392Z" fill="#2F2E41"/>
<path d="M47.1383 19.088L55.2919 18.439L57.8156 22.9826L65.3868 25.3625L62.5719 47.3232L65.581 80.102C65.581 80.102 54.7095 78.3711 53.933 81.8329C53.1564 85.2946 34.1313 78.3711 34.1313 78.3711L40.6348 55.9777L40.0524 38.4524L38.3052 28.2834L46.2647 24.1725L47.1383 19.088V19.088Z" fill="#E6E6E6"/>
<path d="M43.4499 25.5788C43.4499 25.5788 36.9525 25.4707 36.0759 28.4997C35.1992 31.5288 32.2872 52.5158 32.2872 52.5158L30.0547 61.7112L40.0526 56.194L37.9171 52.5218L44.9059 37.5869L43.4499 25.5788H43.4499Z" fill="#E6E6E6"/>
<path d="M47.4248 59.223C48.4991 59.2243 49.4979 58.5342 49.9156 57.4311C50.2315 56.5969 50.2017 55.7965 49.9653 55.1102C50.0414 55.0751 50.1168 55.0386 50.1946 55.0075C50.0802 54.9558 49.9691 54.8975 49.858 54.839C49.471 53.9794 48.729 53.3555 47.8453 53.204C46.7507 51.8972 46.0779 50.1462 46.0709 48.2191C46.0564 44.2473 48.9473 40.9298 52.51 40.8345C52.538 40.8337 52.566 40.8332 52.594 40.8328C54.1893 40.8124 55.6365 41.8069 56.4448 43.34C56.9164 44.2345 57.788 44.835 58.7865 44.835C59.551 44.835 60.2406 44.4828 60.7336 43.9162C61.8076 42.6818 63.1524 41.7633 64.6744 41.4815C65.6739 41.2965 66.7083 41.2266 67.7667 41.2853C75.0118 41.6867 81.245 48.8432 81.3997 56.9259C81.5721 65.9285 75.0757 73.2865 67.0372 73.2865C62.8545 73.2865 59.0912 71.293 56.4666 68.113C55.3013 66.7012 53.6685 65.9104 51.9474 65.93C51.9299 65.9302 51.9124 65.9303 51.8948 65.9303C49.1072 65.9303 46.8473 63.4117 46.8473 60.3049C46.8473 60.1326 46.855 59.9624 46.8694 59.7943C46.8964 59.4802 47.1417 59.2227 47.4249 59.223L47.4248 59.223Z" fill="#E84118"/>
<path d="M141.319 119.131C140.966 118.468 139.441 119.178 139.16 118.577C138.881 117.977 140.298 117.064 141.108 114.978C141.254 114.602 142.174 112.232 141.493 111.5C140.202 110.114 134.293 115.835 132.225 113.963C131.771 113.552 131.454 112.732 130.08 111.4C129.534 110.87 129.203 110.631 128.884 110.72C128.43 110.846 128.394 111.523 127.907 112.854C127.178 114.85 126.746 114.729 126.321 116.321C126.005 117.503 126.077 118.191 125.706 118.325C125.181 118.514 124.697 117.26 124.031 117.373C123.351 117.487 122.94 118.947 122.811 120.04C122.567 122.091 123.243 123.444 123.617 124.867C124.024 126.414 124.266 128.766 123.326 132.095L114.021 161.312C116.076 155.317 122.023 138.882 124.523 132.775C125.244 131.012 126.041 129.224 127.676 128.518C129.251 127.839 131.414 128.244 134.171 127.504C134.493 127.418 135.387 127.164 135.499 126.578C135.592 126.094 135.067 125.824 135.148 125.37C135.256 124.762 136.289 124.754 137.56 124.052C138.455 123.557 139.013 122.969 139.493 122.463C139.638 122.31 141.788 120.013 141.319 119.131V119.131Z" fill="#F2F2F2"/>
<path d="M104.712 134.512C104.319 134.514 104.191 135.553 103.845 135.533C103.501 135.513 103.507 134.474 102.823 133.43C102.699 133.241 101.921 132.054 101.402 132.215C100.419 132.522 101.233 137.405 99.8123 137.996C99.5004 138.125 99.0477 138.062 98.0649 138.429C97.6739 138.575 97.4732 138.687 97.4202 138.888C97.3449 139.172 97.6325 139.387 98.0782 140.037C98.7465 141.012 98.5689 141.214 99.1474 141.906C99.5769 142.419 99.9003 142.578 99.8522 142.82C99.784 143.162 99.0923 143.065 98.9495 143.462C98.8039 143.866 99.3282 144.512 99.7721 144.899C100.605 145.624 101.396 145.644 102.131 145.85C102.929 146.074 104.035 146.62 105.23 148.095L115.412 161.615C113.364 158.761 107.843 150.766 105.875 147.637C105.306 146.733 104.749 145.782 104.91 144.683C105.065 143.626 105.868 142.56 106.337 140.838C106.392 140.637 106.538 140.075 106.313 139.844C106.126 139.654 105.856 139.863 105.679 139.688C105.442 139.453 105.737 138.886 105.795 137.989C105.835 137.356 105.737 136.881 105.653 136.472C105.627 136.349 105.236 134.51 104.712 134.512V134.512Z" fill="#F2F2F2"/>
<path d="M112.564 136.477L112.327 134.118L112.435 133.939C112.937 133.112 113.192 132.304 113.195 131.537C113.196 131.415 113.191 131.294 113.186 131.169C113.165 130.677 113.14 130.066 113.426 129.352C113.586 128.955 114.037 128.034 114.715 128.148C114.897 128.177 115.035 128.27 115.14 128.38C115.155 128.352 115.171 128.325 115.188 128.295C115.399 127.936 115.566 127.783 115.727 127.635C115.851 127.521 115.979 127.403 116.179 127.125C116.267 127.004 116.335 126.896 116.393 126.806C116.568 126.534 116.797 126.21 117.201 126.215C117.632 126.238 117.858 126.636 118.008 126.899C118.275 127.368 118.397 127.706 118.477 127.931C118.506 128.013 118.539 128.105 118.556 128.134C118.695 128.361 119.825 128.148 120.251 128.071C121.207 127.893 122.034 127.739 122.375 128.412C122.619 128.892 122.438 129.528 121.82 130.351C121.627 130.608 121.422 130.803 121.24 130.955C121.391 131.055 121.526 131.209 121.58 131.451C121.709 132.023 121.268 132.596 120.27 133.156C120.022 133.296 119.688 133.483 119.221 133.573C119.001 133.615 118.802 133.625 118.633 133.631C118.629 133.74 118.606 133.859 118.546 133.981C118.371 134.34 118.006 134.511 117.456 134.47C116.851 134.434 116.353 134.305 115.913 134.193C115.529 134.095 115.199 134.012 114.939 134.031C114.458 134.074 114.087 134.504 113.651 135.061L112.564 136.477V136.477Z" fill="#F2F2F2"/>
<path d="M113.664 122.43L111.677 123.284L111.494 123.213C110.649 122.882 109.883 122.811 109.217 123.003C109.111 123.033 109.007 123.069 108.9 123.106C108.478 123.253 107.954 123.436 107.262 123.308C106.877 123.236 105.963 122.984 105.89 122.224C105.869 122.02 105.915 121.848 105.983 121.707C105.956 121.698 105.928 121.687 105.898 121.677C105.533 121.54 105.357 121.399 105.188 121.263C105.057 121.159 104.923 121.051 104.631 120.905C104.503 120.841 104.393 120.795 104.3 120.755C104.019 120.635 103.679 120.471 103.582 120.034C103.492 119.563 103.78 119.219 103.97 118.991C104.31 118.584 104.573 118.367 104.747 118.224C104.811 118.172 104.883 118.112 104.903 118.087C105.066 117.879 104.594 116.715 104.419 116.276C104.022 115.29 103.679 114.437 104.176 113.899C104.531 113.514 105.129 113.548 106 114.006C106.272 114.149 106.493 114.32 106.671 114.478C106.72 114.29 106.819 114.105 107.015 113.985C107.479 113.701 108.088 114.031 108.827 114.965C109.012 115.197 109.259 115.509 109.455 115.991C109.548 116.217 109.607 116.428 109.655 116.61C109.751 116.586 109.86 116.581 109.981 116.614C110.336 116.712 110.577 117.062 110.681 117.666C110.804 118.327 110.819 118.897 110.832 119.399C110.845 119.838 110.856 120.215 110.939 120.49C111.099 120.998 111.566 121.289 112.159 121.617L113.664 122.43L113.664 122.43Z" fill="#F2F2F2"/>
<path d="M112.564 115.48L112.327 113.121L112.435 112.942C112.937 112.115 113.192 111.307 113.195 110.54C113.196 110.419 113.191 110.297 113.186 110.173C113.165 109.68 113.14 109.069 113.426 108.356C113.586 107.958 114.037 107.038 114.715 107.151C114.897 107.18 115.035 107.273 115.14 107.383C115.155 107.355 115.171 107.328 115.188 107.298C115.399 106.94 115.566 106.786 115.727 106.638C115.851 106.524 115.979 106.406 116.179 106.129C116.267 106.007 116.335 105.9 116.393 105.81C116.568 105.537 116.797 105.213 117.201 105.218C117.632 105.241 117.858 105.639 118.008 105.902C118.275 106.371 118.397 106.709 118.477 106.934C118.506 107.016 118.539 107.108 118.556 107.137C118.695 107.364 119.825 107.151 120.251 107.074C121.207 106.896 122.034 106.743 122.375 107.415C122.619 107.895 122.438 108.531 121.82 109.355C121.627 109.611 121.422 109.806 121.24 109.958C121.391 110.059 121.526 110.212 121.58 110.454C121.709 111.026 121.268 111.599 120.27 112.159C120.022 112.299 119.688 112.486 119.221 112.576C119.001 112.618 118.802 112.629 118.633 112.634C118.629 112.744 118.606 112.862 118.546 112.984C118.371 113.343 118.006 113.514 117.456 113.473C116.851 113.437 116.353 113.309 115.913 113.196C115.529 113.098 115.199 113.015 114.939 113.034C114.458 113.077 114.087 113.507 113.651 114.064L112.564 115.48V115.48Z" fill="#F2F2F2"/>
<path d="M114.73 161.274L114.286 160.964L114.179 160.393L114.286 160.964L113.769 161.03C113.761 160.977 113.733 160.853 113.691 160.661C113.459 159.606 112.753 156.396 112.164 151.34C111.754 147.811 111.521 144.183 111.473 140.555C111.425 136.921 111.579 134.17 111.703 131.959C111.797 130.291 111.91 128.703 112.021 127.156C112.318 123.023 112.597 119.119 112.389 114.797C112.343 113.833 112.247 111.824 111.194 109.687C110.583 108.448 109.742 107.347 108.693 106.418L109.345 105.504C110.503 106.532 111.434 107.751 112.112 109.127C113.279 111.496 113.384 113.685 113.435 114.736C113.647 119.134 113.364 123.076 113.064 127.248C112.954 128.79 112.841 130.371 112.748 132.032C112.625 134.222 112.472 136.949 112.52 140.537C112.567 144.122 112.797 147.705 113.202 151.19C113.784 156.182 114.479 159.344 114.708 160.383C114.829 160.938 114.855 161.054 114.73 161.274V161.274Z" fill="#F2F2F2"/>
<path d="M106.774 108.271C106.731 108.271 106.688 108.27 106.644 108.267C105.752 108.213 104.927 107.619 104.19 106.5C103.845 105.974 103.668 105.373 103.315 104.176C103.26 103.991 102.995 103.055 102.833 101.767C102.727 100.925 102.741 100.573 102.89 100.262C103.057 99.9156 103.325 99.6741 103.628 99.5112C103.615 99.3996 103.625 99.2845 103.669 99.1672C103.847 98.6808 104.321 98.7445 104.578 98.7753C104.708 98.7935 104.87 98.8175 105.045 98.8072C105.32 98.7924 105.467 98.7013 105.691 98.5646C105.905 98.4336 106.171 98.2707 106.566 98.1807C107.345 97.9995 107.998 98.2456 108.213 98.3265C109.345 98.7468 109.903 99.7276 110.549 100.863C110.678 101.091 111.12 101.921 111.412 103.057C111.622 103.878 111.593 104.242 111.529 104.513C111.401 105.07 111.097 105.389 110.324 106.093C109.518 106.83 109.113 107.199 108.766 107.424C107.957 107.944 107.449 108.271 106.774 108.271V108.271Z" fill="#F2F2F2"/>
<path d="M71.3083 54.4631L22.969 44.2941L22.7749 48.1886L70.7259 60.954L71.3083 54.4631Z" fill="#E84118"/>
<path d="M23.5511 44.9432L22.9687 44.2942C22.9687 44.2942 20.4449 42.996 20.4449 42.7796C20.4449 42.6442 16.7182 41.2373 13.93 40.2037C12.3729 39.6264 10.7284 40.7688 10.5067 42.5809L10.1573 45.4366C9.94833 47.1441 11.1043 48.681 12.6493 48.7499L19.4743 49.0541L22.7745 48.1887L23.5511 44.9432V44.9432Z" fill="#E84118"/>
<path d="M71.2108 55.6531L71.3261 55.1141L22.9559 44.808L22.8716 45.4841L71.2108 55.6531Z" fill="#3F3D56"/>
<path d="M71.1 56.6766L71.2108 56.0858L22.9033 45.8748L22.8716 46.5659L71.1 56.6766Z" fill="#3F3D56"/>
<path d="M70.9895 57.9031L71.017 56.9513L22.8657 46.6515L22.8719 47.215L70.9895 57.9031Z" fill="#3F3D56"/>
<path d="M70.8602 59.3276L70.8226 58.4658L22.7952 47.428L22.7539 47.6393L70.8602 59.3276Z" fill="#3F3D56"/>
<path d="M70.8597 60.1914L70.8229 59.5476L22.8677 47.7851L22.8247 47.996L70.8597 60.1914Z" fill="#3F3D56"/>
<path d="M43.0829 24.1994L45.4882 22.7151L46.5315 46.4578L46.1677 49.3786C46.1677 49.3786 40.0953 30.7172 43.0829 24.1994H43.0829Z" fill="#3F3D56"/>
<path d="M51.3126 16.8163C54.6363 16.8163 57.3307 13.8133 57.3307 10.1091C57.3307 6.40477 54.6363 3.40186 51.3126 3.40186C47.9888 3.40186 45.2944 6.40477 45.2944 10.1091C45.2944 13.8133 47.9888 16.8163 51.3126 16.8163Z" fill="#A0616A"/>
<path d="M46.168 14.1117L47.6068 15.3918L45.9739 8.48632C45.9739 8.48632 50.536 8.37814 50.9243 5.56544C50.9243 5.56544 54.5158 5.45726 55.4864 5.45726C56.4571 5.45726 56.8951 12.6154 56.8951 12.6154C56.8951 12.6154 58.7867 6.75543 56.8453 3.72637C54.904 0.697308 55.5835 2.53638 55.1952 1.45458C54.8069 0.372769 50.8272 -0.622154 48.3035 0.480948C45.7797 1.58405 45.6827 3.1565 44.9061 3.17098C44.1296 3.18546 41.4117 7.5127 43.9355 10.9745C46.4592 14.4363 46.168 14.1117 46.168 14.1117V14.1117Z" fill="#2F2E41"/>
<path d="M64.5537 58.1259C65.267 57.4915 65.7926 56.7302 66.0888 55.9778L73.2266 50.4133L70.7515 46.7054L63.7774 52.7492C63.0533 52.9041 62.2706 53.3063 61.5573 53.9406C59.9277 55.3897 59.2775 57.5014 60.1049 58.6571C60.9323 59.8128 62.9241 59.575 64.5537 58.1259V58.1259Z" fill="#A0616A"/>
<path d="M37.2079 49.6617C36.6786 50.4902 36.3611 51.3833 36.2619 52.1975L30.7725 59.7352L34.0671 62.5414L39.2809 54.5931C39.9389 54.2223 40.5922 53.5957 41.1215 52.7672C42.3306 50.8745 42.4347 48.645 41.354 47.7875C40.2733 46.9299 38.417 47.769 37.2079 49.6617L37.2079 49.6617Z" fill="#A0616A"/>
<path d="M62.2807 26.7689C62.2807 26.7689 64.0279 23.5235 65.7751 25.4707C67.1576 27.0116 74.7396 36.8165 77.8441 40.8419C78.7003 41.952 79.1703 43.3664 79.1703 44.8302C79.1703 47.0944 78.0486 49.1736 76.2543 50.2355L66.5516 55.9777L63.8337 51.4341L72.1815 44.7269L59.3687 36.9379L62.2807 26.7689V26.7689Z" fill="#E6E6E6"/>
<path d="M31.6001 56.6766L30.0547 61.7112L34.5198 64.3075L37.9171 61.7112L40.0526 56.194L33.7432 54.1385" fill="#E6E6E6"/>
<path d="M103.786 8.42273L89.1192 12.8629L91.2531 23.4692C90.5631 22.9532 89.7332 22.6515 88.8398 22.6515C86.4443 22.6515 84.5024 24.8158 84.5024 27.4855C84.5024 30.1552 86.4443 32.3194 88.8398 32.3194C91.2352 32.3194 93.1771 30.1552 93.1771 27.4855C93.1771 26.5576 92.9384 25.6938 92.5317 24.9577L90.8398 16.5486L103.492 12.1153L104.649 18.3792C103.955 17.8526 103.117 17.5443 102.213 17.5443C99.8178 17.5443 97.8759 19.7085 97.8759 22.3782C97.8759 25.048 99.8178 27.2122 102.213 27.2122C104.609 27.2122 106.551 25.048 106.551 22.3782C106.551 21.4404 106.307 20.568 105.892 19.8268L103.786 8.42273V8.42273Z" fill="#E84118"/>
<path d="M118.169 18.3374C115.799 18.3374 113.877 20.4792 113.877 23.1212C113.877 23.868 114.035 24.5721 114.309 25.2019L116.759 36.4643L118.149 36.0887L116.259 27.4006C116.835 27.7204 117.482 27.9049 118.169 27.9049C120.54 27.9049 122.462 25.7631 122.462 23.1212C122.462 20.4792 120.54 18.3374 118.169 18.3374V18.3374Z" fill="#E84118"/>
<path d="M135.637 43.1597L133.205 32.3194L131.729 32.7061L133.631 41.1853C133.046 40.8901 132.396 40.7204 131.707 40.7204C129.19 40.7204 127.15 42.9252 127.15 45.645C127.15 48.3648 129.19 50.5696 131.707 50.5696C134.224 50.5696 136.265 48.3647 136.265 45.645C136.265 44.7373 136.033 43.8899 135.637 43.1597V43.1597Z" fill="#E84118"/>
<path d="M142 161.666C142 161.85 141.866 162 141.7 162H0V161.331H141.7C141.866 161.331 142 161.481 142 161.666L142 161.666Z" fill="#E6E6E6"/>
</g>
<defs>
<clipPath id="clip0_145_1015">
<rect width="142" height="162" fill="white"/>
</clipPath>
</defs>
</svg>
