<svg width="179" height="156" viewBox="0 0 179 156" fill="none" xmlns="http://www.w3.org/2000/svg">
<path d="M139.725 58.5572C148.846 58.5572 156.239 50.3507 156.239 40.2275C156.239 30.1042 148.846 21.8977 139.725 21.8977C130.605 21.8977 123.211 30.1042 123.211 40.2275C123.211 50.3507 130.605 58.5572 139.725 58.5572Z" fill="#E84118"/>
<path d="M140.939 153.539V111.407C140.939 110.817 141.151 110.251 141.527 109.834C141.903 109.417 142.413 109.182 142.944 109.181H147.499C148.03 109.182 148.54 109.417 148.916 109.834C149.292 110.251 149.504 110.817 149.504 111.407V153.539C149.504 154.129 149.292 154.695 148.916 155.112C148.54 155.529 148.03 155.764 147.499 155.765H142.944C142.413 155.764 141.903 155.529 141.527 155.112C141.151 154.695 140.939 154.129 140.939 153.539Z" fill="#2F2E41"/>
<path d="M131.314 153.539V111.407C131.314 110.817 131.526 110.251 131.902 109.834C132.278 109.417 132.788 109.182 133.319 109.181H137.874C138.406 109.182 138.915 109.417 139.291 109.834C139.667 110.251 139.879 110.817 139.879 111.407V153.539C139.879 154.129 139.667 154.695 139.291 155.112C138.915 155.529 138.406 155.764 137.874 155.765H133.319C132.788 155.764 132.278 155.529 131.902 155.112C131.526 154.695 131.314 154.129 131.314 153.539Z" fill="#2F2E41"/>
<path d="M127.56 113.963V76.6508C127.56 73.0146 128.862 69.5273 131.178 66.9562C133.495 64.385 136.637 62.9405 139.913 62.9405C143.189 62.9405 146.331 64.385 148.647 66.9562C150.964 69.5273 152.265 73.0146 152.265 76.6508V113.963C152.265 114.554 152.054 115.12 151.678 115.537C151.301 115.955 150.791 116.189 150.259 116.189H129.566C129.034 116.189 128.524 115.955 128.148 115.537C127.772 115.12 127.56 114.554 127.56 113.963Z" fill="#2F2E41"/>
<path d="M125.779 48.3302L125.796 47.6452C124.648 47.6098 123.636 47.5298 122.876 46.9131C122.66 46.7283 122.483 46.4941 122.356 46.2265C122.229 45.9589 122.156 45.6641 122.141 45.3622C122.127 45.1777 122.153 44.9923 122.214 44.8204C122.276 44.6484 122.373 44.4946 122.497 44.3708C123.001 43.8976 123.814 44.0507 124.406 44.3521L124.917 44.612L123.937 36.6695L123.326 36.7625L124.159 43.5186C123.354 43.2561 122.609 43.3691 122.098 43.8477C121.902 44.0377 121.748 44.2754 121.649 44.5423C121.549 44.8092 121.506 45.098 121.524 45.3863C121.542 45.7919 121.64 46.1883 121.81 46.5476C121.981 46.9069 122.22 47.2204 122.512 47.4663C123.489 48.2589 124.759 48.2984 125.779 48.3302Z" fill="#2F2E41"/>
<path d="M130.793 37.3451H127.47V38.0301H130.793V37.3451Z" fill="#2F2E41"/>
<path d="M146.258 113.937C146.064 113.74 145.906 113.502 145.796 113.236C145.685 112.971 145.623 112.684 145.612 112.391L144.04 70.2968C144.029 70.0047 144.07 69.7131 144.161 69.4386C144.251 69.1641 144.39 68.9121 144.568 68.697C144.747 68.4818 144.961 68.3078 145.2 68.1849C145.439 68.0619 145.698 67.9924 145.961 67.9803L150.511 67.7708C151.043 67.7469 151.561 67.958 151.952 68.3578C152.343 68.7575 152.576 69.3132 152.598 69.9028L154.171 111.998C154.192 112.588 154.002 113.163 153.642 113.597C153.282 114.031 152.781 114.289 152.25 114.314L147.699 114.523C147.554 114.53 147.409 114.52 147.266 114.492C146.889 114.419 146.539 114.226 146.258 113.937Z" fill="#E84118"/>
<path d="M152.065 85.4471H144.659C144.127 85.4465 143.618 85.2117 143.242 84.7944C142.866 84.377 142.654 83.8112 142.653 83.221V71.5763C142.653 69.8959 143.255 68.2843 144.325 67.0961C145.396 65.9078 146.848 65.2403 148.362 65.2403C149.876 65.2403 151.328 65.9078 152.398 67.0961C153.469 68.2843 154.07 69.8959 154.07 71.5763V83.221C154.07 83.8112 153.858 84.377 153.482 84.7944C153.106 85.2117 152.597 85.4465 152.065 85.4471Z" fill="#2F2E41"/>
<path d="M104.508 101.047L101.605 97.1524C101.266 96.6972 101.104 96.1116 101.154 95.524C101.204 94.9364 101.462 94.3948 101.872 94.018L131.118 67.1613C131.528 66.7853 132.055 66.6052 132.585 66.6607C133.114 66.7162 133.602 67.0027 133.942 67.4572L136.845 71.3522C137.013 71.5774 137.139 71.8372 137.216 72.1166C137.294 72.396 137.321 72.6896 137.296 72.9807C137.271 73.2717 137.195 73.5545 137.072 73.8129C136.949 74.0712 136.781 74.3001 136.578 74.4865L107.332 101.343C106.98 101.666 106.539 101.846 106.082 101.854C105.625 101.861 105.18 101.695 104.819 101.384C104.705 101.284 104.601 101.171 104.508 101.047Z" fill="#E84118"/>
<path d="M126.076 83.554L121.385 77.1938C121.048 76.7367 120.889 76.1502 120.942 75.5629C120.994 74.9756 121.255 74.4355 121.666 74.0611L129.784 66.6846C130.364 66.1573 131.032 65.762 131.75 65.5213C132.467 65.2805 133.221 65.199 133.967 65.2815C134.713 65.364 135.437 65.6088 136.098 66.0019C136.759 66.395 137.343 66.9288 137.818 67.5727C138.293 68.2166 138.649 68.9581 138.866 69.7547C139.082 70.5514 139.156 71.3876 139.081 72.2157C139.007 73.0437 138.786 73.8474 138.432 74.5808C138.077 75.3142 137.596 75.9629 137.016 76.4899L128.898 83.8664C128.486 84.2398 127.958 84.4165 127.429 84.358C126.9 84.2994 126.413 84.0103 126.076 83.554Z" fill="#2F2E41"/>
<path d="M143.865 43.3309C144.725 41.7363 145.398 39.9794 145.079 38.0901C144.794 36.403 143.7 35.0892 142.127 34.9167C141.18 34.8129 140.237 35.0935 139.312 35.2763C138.553 35.4242 137.783 35.4796 137.014 35.4415C135.466 35.3634 133.949 34.9365 132.554 34.1866C131.139 33.4515 129.882 32.3886 128.868 31.0694C127.854 29.7502 127.106 28.2052 126.674 26.5383C125.736 22.7457 126.433 18.4389 128.662 15.3517L127.888 15.125L128.895 18.798C128.915 18.8733 128.95 18.9427 128.997 19.001C129.044 19.0593 129.103 19.1049 129.168 19.1344C129.234 19.164 129.304 19.1767 129.375 19.1716C129.445 19.1665 129.514 19.1437 129.575 19.105C131.401 17.8247 133.442 16.9695 135.574 16.5911C137.706 16.2127 139.886 16.3191 141.98 16.9038C143.163 17.2338 144.306 17.7217 145.384 18.3569C145.909 18.6671 146.378 17.7806 145.851 17.4697C143.827 16.2978 141.61 15.5938 139.334 15.4003C137.058 15.2068 134.77 15.5277 132.609 16.3438C131.378 16.8094 130.202 17.4386 129.108 18.2178L129.788 18.5249L128.781 14.8519C128.758 14.766 128.716 14.6881 128.658 14.6256C128.601 14.5631 128.53 14.5183 128.452 14.4955C128.374 14.4727 128.292 14.4726 128.214 14.4953C128.136 14.5181 128.065 14.5628 128.007 14.6252C126.97 16.0848 126.211 17.7623 125.773 19.5565C125.336 21.3508 125.231 23.2247 125.464 25.0653C125.689 26.8794 126.257 28.6202 127.131 30.1736C128.004 31.7271 129.164 33.058 130.533 34.0792C131.902 35.1042 133.439 35.8179 135.057 36.179C136.676 36.5401 138.342 36.5413 139.961 36.1828C140.867 35.9895 141.895 35.7128 142.783 36.1338C143.106 36.3064 143.39 36.5557 143.616 36.8639C143.842 37.1722 144.003 37.5318 144.09 37.9174C144.594 39.8118 143.736 41.6108 142.861 43.186L143.865 43.3309Z" fill="#2F2E41"/>
<path d="M135.592 79.3688L135.581 79.3686C135.408 79.368 135.241 79.3024 135.107 79.1825C134.972 79.0625 134.878 78.8954 134.841 78.7085L134.901 64.4375C134.862 64.2444 134.883 64.0422 134.962 63.8645C135.041 63.6868 135.172 63.5442 135.333 63.4604C137.571 62.2935 139.884 62.1366 142.403 62.9818C142.596 63.0452 142.759 63.1895 142.857 63.3841C142.956 63.5787 142.982 63.8082 142.93 64.0238L136.337 78.7316C136.295 78.9152 136.199 79.0778 136.064 79.1933C135.929 79.3089 135.763 79.3707 135.592 79.3688Z" fill="#CCCCCC"/>
<path d="M178.691 156H102.167C102.085 156 102.007 155.964 101.949 155.9C101.891 155.835 101.858 155.748 101.858 155.658C101.858 155.567 101.891 155.48 101.949 155.415C102.007 155.351 102.085 155.315 102.167 155.315H178.691C178.773 155.315 178.852 155.351 178.91 155.415C178.967 155.48 179 155.567 179 155.658C179 155.748 178.967 155.835 178.91 155.9C178.852 155.964 178.773 156 178.691 156Z" fill="#3F3D56"/>
<path d="M103.678 106.611H46.285C45.5078 106.61 44.7627 106.267 44.2132 105.657C43.6636 105.047 43.3545 104.22 43.3536 103.357V56.0936C43.3545 55.231 43.6636 54.404 44.2132 53.794C44.7627 53.1841 45.5078 52.841 46.285 52.84H103.678C104.456 52.841 105.201 53.1841 105.75 53.794C106.3 54.404 106.609 55.231 106.61 56.0936V103.357C106.609 104.22 106.3 105.047 105.75 105.657C105.201 106.267 104.456 106.61 103.678 106.611Z" fill="white"/>
<path d="M53.7144 83.8044L64.8139 84.0065H71.2789C71.5652 84.0062 71.8398 83.8798 72.0422 83.655C72.2447 83.4303 72.3586 83.1256 72.3589 82.8078V82.3889L66.7919 75.7448C66.6931 75.6269 66.5738 75.5323 66.4413 75.4666C66.3088 75.401 66.1657 75.3656 66.0206 75.3627C65.8755 75.3598 65.7314 75.3894 65.5968 75.4496C65.4622 75.5099 65.34 75.5997 65.2374 75.7136L59.7622 81.7907C59.6175 81.951 59.4215 82.0411 59.217 82.0412C59.0126 82.0413 58.8165 81.9514 58.6717 81.7912L57.8613 80.8932C57.6586 80.6688 57.3839 80.5429 57.0976 80.5431C56.8113 80.5432 56.5368 80.6694 56.3342 80.894L53.7144 83.8044Z" fill="#E84118"/>
<path d="M103.678 106.611H46.285C45.5078 106.61 44.7627 106.267 44.2132 105.657C43.6636 105.047 43.3545 104.22 43.3536 103.357V56.0936C43.3545 55.231 43.6636 54.404 44.2132 53.794C44.7627 53.1841 45.5078 52.841 46.285 52.84H103.678C104.456 52.841 105.201 53.1841 105.75 53.794C106.3 54.404 106.609 55.231 106.61 56.0936V103.357C106.609 104.22 106.3 105.047 105.75 105.657C105.201 106.267 104.456 106.61 103.678 106.611ZM46.285 53.8675C45.7532 53.8681 45.2434 54.1029 44.8674 54.5202C44.4914 54.9376 44.2799 55.5034 44.2793 56.0936V103.357C44.2799 103.947 44.4914 104.513 44.8674 104.931C45.2435 105.348 45.7532 105.583 46.285 105.583H103.678C104.21 105.583 104.72 105.348 105.096 104.931C105.472 104.513 105.684 103.947 105.684 103.357V56.0936C105.684 55.5034 105.472 54.9376 105.096 54.5202C104.72 54.1029 104.21 53.8681 103.678 53.8675H46.285Z" fill="#3F3D56"/>
<path d="M97.1985 61.231H52.7649C52.5194 61.231 52.2839 61.1227 52.1103 60.93C51.9367 60.7374 51.8392 60.476 51.8392 60.2035C51.8392 59.931 51.9367 59.6697 52.1103 59.477C52.2839 59.2843 52.5194 59.1761 52.7649 59.1761H97.1985C97.444 59.1761 97.6795 59.2843 97.8531 59.477C98.0267 59.6697 98.1242 59.931 98.1242 60.2035C98.1242 60.476 98.0267 60.7374 97.8531 60.93C97.6795 61.1227 97.444 61.231 97.1985 61.231Z" fill="#3F3D56"/>
<path d="M97.3528 66.8821H52.9192C52.6737 66.8821 52.4382 66.7738 52.2646 66.5811C52.091 66.3884 51.9935 66.1271 51.9935 65.8546C51.9935 65.5821 52.091 65.3208 52.2646 65.1281C52.4382 64.9354 52.6737 64.8271 52.9192 64.8271H97.3528C97.5983 64.8271 97.8338 64.9354 98.0074 65.1281C98.181 65.3208 98.2785 65.5821 98.2785 65.8546C98.2785 66.1271 98.181 66.3884 98.0074 66.5811C97.8338 66.7738 97.5983 66.8821 97.3528 66.8821Z" fill="#3F3D56"/>
<path d="M97.5071 72.5331H76.216C75.9705 72.5331 75.735 72.4249 75.5614 72.2322C75.3878 72.0395 75.2903 71.7782 75.2903 71.5057C75.2903 71.2332 75.3878 70.9718 75.5614 70.7791C75.735 70.5865 75.9705 70.4782 76.216 70.4782H97.5071C97.7526 70.4782 97.9881 70.5865 98.1617 70.7791C98.3353 70.9718 98.4328 71.2332 98.4328 71.5057C98.4328 71.7782 98.3353 72.0395 98.1617 72.2322C97.9881 72.4249 97.7526 72.5331 97.5071 72.5331Z" fill="#3F3D56"/>
<path d="M97.6614 78.1842H76.3703C76.1247 78.1842 75.8893 78.076 75.7157 77.8833C75.5421 77.6906 75.4446 77.4293 75.4446 77.1568C75.4446 76.8843 75.5421 76.6229 75.7157 76.4302C75.8893 76.2375 76.1247 76.1293 76.3703 76.1293H97.6614C97.9069 76.1293 98.1423 76.2375 98.3159 76.4302C98.4895 76.6229 98.5871 76.8843 98.5871 77.1568C98.5871 77.4293 98.4895 77.6906 98.3159 77.8833C98.1423 78.076 97.9069 78.1842 97.6614 78.1842Z" fill="#3F3D56"/>
<path d="M97.8157 83.8353H76.5246C76.279 83.8353 76.0436 83.7271 75.87 83.5344C75.6964 83.3417 75.5989 83.0803 75.5989 82.8078C75.5989 82.5353 75.6964 82.274 75.87 82.0813C76.0436 81.8886 76.279 81.7804 76.5246 81.7804H97.8157C98.0612 81.7804 98.2966 81.8886 98.4702 82.0813C98.6438 82.274 98.7414 82.5353 98.7414 82.8078C98.7414 83.0803 98.6438 83.3417 98.4702 83.5344C98.2966 83.7271 98.0612 83.8353 97.8157 83.8353Z" fill="#3F3D56"/>
<path d="M97.9699 89.4864H53.5363C53.2908 89.4864 53.0554 89.3781 52.8818 89.1854C52.7082 88.9928 52.6106 88.7314 52.6106 88.4589C52.6106 88.1864 52.7082 87.9251 52.8818 87.7324C53.0554 87.5397 53.2908 87.4314 53.5363 87.4314H97.9699C98.2155 87.4314 98.4509 87.5397 98.6245 87.7324C98.7981 87.9251 98.8956 88.1864 98.8956 88.4589C98.8956 88.7314 98.7981 88.9928 98.6245 89.1854C98.4509 89.3781 98.2155 89.4864 97.9699 89.4864Z" fill="#3F3D56"/>
<path d="M98.1242 95.1375H53.6906C53.4451 95.1375 53.2096 95.0292 53.036 94.8365C52.8624 94.6438 52.7649 94.3825 52.7649 94.11C52.7649 93.8375 52.8624 93.5761 53.036 93.3834C53.2096 93.1908 53.4451 93.0825 53.6906 93.0825H98.1242C98.3697 93.0825 98.6052 93.1908 98.7788 93.3834C98.9524 93.5761 99.0499 93.8375 99.0499 94.11C99.0499 94.3825 98.9524 94.6438 98.7788 94.8365C98.6052 95.0292 98.3697 95.1375 98.1242 95.1375Z" fill="#3F3D56"/>
<path d="M98.2785 100.789H53.8449C53.5994 100.789 53.3639 100.68 53.1903 100.488C53.0167 100.295 52.9192 100.034 52.9192 99.7611C52.9192 99.4886 53.0167 99.2272 53.1903 99.0345C53.3639 98.8418 53.5994 98.7336 53.8449 98.7336H98.2785C98.524 98.7336 98.7595 98.8418 98.9331 99.0345C99.1067 99.2272 99.2042 99.4886 99.2042 99.7611C99.2042 100.034 99.1067 100.295 98.9331 100.488C98.7595 100.68 98.524 100.789 98.2785 100.789Z" fill="#3F3D56"/>
<path d="M71.2789 84.1778H53.9992C53.742 84.1785 53.4888 84.1067 53.2635 83.9689H53.2592L53.1808 83.9164C52.9588 83.763 52.7757 83.5492 52.6489 83.2952C52.5221 83.0413 52.4559 82.7557 52.4563 82.4653V72.1907C52.4568 71.7366 52.6195 71.3014 52.9087 70.9804C53.198 70.6593 53.5901 70.4787 53.9992 70.4782H71.2789C71.688 70.4787 72.0801 70.6593 72.3693 70.9804C72.6586 71.3014 72.8213 71.7366 72.8217 72.1907V82.4653C72.8213 82.9194 72.6586 83.3546 72.3693 83.6757C72.0801 83.9967 71.688 84.1773 71.2789 84.1778ZM53.4701 83.3077L53.5144 83.338C53.6593 83.44 53.8276 83.4937 53.9992 83.4928H71.2789C71.5243 83.4925 71.7596 83.3842 71.9332 83.1915C72.1067 82.9989 72.2043 82.7378 72.2046 82.4653V72.1907C72.2043 71.9183 72.1067 71.6571 71.9332 71.4645C71.7596 71.2719 71.5243 71.1635 71.2789 71.1632H53.9992C53.7537 71.1635 53.5184 71.2719 53.3449 71.4645C53.1714 71.6571 53.0737 71.9183 53.0735 72.1907V82.4653C53.0733 82.6309 53.1092 82.794 53.1783 82.9407C53.2474 83.0875 53.3476 83.2134 53.4701 83.3077Z" fill="#3F3D56"/>
<path d="M0.661409 114.173C0.507196 114.211 0.365557 114.295 0.252714 114.418C0.139871 114.54 0.0603918 114.696 0.0233981 114.866C-0.0135955 115.036 -0.00660889 115.214 0.0435499 115.381C0.0937087 115.547 0.185016 115.694 0.307001 115.805L4.01813 119.186C4.07238 119.236 4.1173 119.298 4.15039 119.367C4.18123 119.437 4.19876 119.514 4.2019 119.592L4.46585 125.836C4.47111 126.04 4.5381 126.237 4.65608 126.394C4.77406 126.551 4.93616 126.659 5.11633 126.701L5.1229 126.703C5.3009 126.75 5.48797 126.73 5.65431 126.645C5.82065 126.561 5.95672 126.417 6.04083 126.236L7.35845 123.531C7.40264 123.442 7.46782 123.368 7.54701 123.317C7.62621 123.266 7.71644 123.24 7.80803 123.241C7.87542 123.241 7.94209 123.256 8.00385 123.286C8.0656 123.316 8.12111 123.36 8.16687 123.415L14.5997 130.943C14.6925 131.053 14.8079 131.135 14.9359 131.184C15.0639 131.233 15.2007 131.246 15.3344 131.223C15.4677 131.2 15.5941 131.142 15.7029 131.054C15.8117 130.965 15.8998 130.849 15.9598 130.715L25.2213 109.839C25.2913 109.682 25.32 109.506 25.3039 109.332C25.2879 109.157 25.2278 108.991 25.1306 108.853C25.0334 108.715 24.9031 108.61 24.7545 108.55C24.606 108.491 24.4453 108.479 24.2909 108.516L0.661409 114.173ZM0.518924 115.517C0.445832 115.45 0.391192 115.362 0.361251 115.262C0.33131 115.163 0.327282 115.055 0.349631 114.953C0.371979 114.851 0.419806 114.758 0.487623 114.685C0.555441 114.611 0.640509 114.56 0.733098 114.538L24.3625 108.881C24.455 108.859 24.5511 108.866 24.6399 108.902C24.7288 108.938 24.8067 109.001 24.8649 109.084C24.9231 109.166 24.9592 109.266 24.9691 109.37C24.979 109.474 24.9623 109.58 24.9209 109.674L15.6594 130.55C15.6235 130.63 15.5705 130.7 15.5051 130.753C15.4397 130.806 15.3637 130.841 15.2835 130.854C15.2034 130.868 15.1216 130.859 15.0449 130.83C14.9683 130.801 14.8991 130.752 14.8433 130.687L8.41053 123.158C8.34767 123.083 8.27357 123.02 8.1915 122.973L24.364 109.787C24.4276 109.736 24.4732 109.662 24.4929 109.578C24.5127 109.494 24.5053 109.405 24.4721 109.326C24.4388 109.247 24.3819 109.184 24.311 109.147C24.2401 109.11 24.1598 109.101 24.0839 109.123C24.0654 109.128 24.0473 109.135 24.0299 109.144L4.3607 119.045C4.32224 118.991 4.27842 118.942 4.23006 118.899L0.518924 115.517Z" fill="#E6E6E6"/>
<path d="M0.661409 114.173C0.507196 114.211 0.365557 114.295 0.252714 114.418C0.139871 114.54 0.0603918 114.696 0.0233981 114.866C-0.0135955 115.036 -0.00660889 115.214 0.0435499 115.381C0.0937087 115.547 0.185016 115.694 0.307001 115.805L4.01813 119.186C4.07238 119.236 4.1173 119.298 4.15039 119.367C4.18123 119.437 4.19876 119.514 4.2019 119.592L4.46585 125.836C4.47111 126.04 4.5381 126.237 4.65608 126.394C4.77406 126.551 4.93616 126.659 5.11633 126.701L5.1229 126.703C5.3009 126.75 5.48797 126.73 5.65431 126.645C5.82065 126.561 5.95672 126.417 6.04083 126.236L7.35845 123.531C7.40264 123.442 7.46782 123.368 7.54701 123.317C7.62621 123.266 7.71644 123.24 7.80803 123.241C7.87542 123.241 7.94209 123.256 8.00385 123.286C8.0656 123.316 8.12111 123.36 8.16687 123.415L14.5997 130.943C14.6925 131.053 14.8079 131.135 14.9359 131.184C15.0639 131.233 15.2007 131.246 15.3344 131.223C15.4677 131.2 15.5941 131.142 15.7029 131.054C15.8117 130.965 15.8998 130.849 15.9598 130.715L25.2213 109.839C25.2913 109.682 25.32 109.506 25.3039 109.332C25.2879 109.157 25.2278 108.991 25.1306 108.853C25.0334 108.715 24.9031 108.61 24.7545 108.55C24.606 108.491 24.4453 108.479 24.2909 108.516L0.661409 114.173ZM0.518924 115.517C0.445832 115.45 0.391192 115.362 0.361251 115.262C0.33131 115.163 0.327282 115.055 0.349631 114.953C0.371979 114.851 0.419806 114.758 0.487623 114.685C0.555441 114.611 0.640509 114.56 0.733098 114.538L24.3625 108.881C24.455 108.859 24.5511 108.866 24.6399 108.902C24.7288 108.938 24.8067 109.001 24.8649 109.084C24.9231 109.166 24.9592 109.266 24.9691 109.37C24.979 109.474 24.9623 109.58 24.9209 109.674L15.6594 130.55C15.6235 130.63 15.5705 130.7 15.5051 130.753C15.4397 130.806 15.3637 130.841 15.2835 130.854C15.2034 130.868 15.1216 130.859 15.0449 130.83C14.9683 130.801 14.8991 130.752 14.8433 130.687L8.41053 123.158C8.34767 123.083 8.27357 123.02 8.1915 122.973C8.07403 122.904 7.94317 122.868 7.81029 122.868C7.79157 122.867 7.77248 122.868 7.75331 122.869L7.75171 122.869C7.60931 122.878 7.47137 122.927 7.35099 123.012C7.2306 123.097 7.13177 123.215 7.06387 123.354L5.74588 126.061C5.69557 126.169 5.61366 126.256 5.51345 126.307C5.41323 126.357 5.30059 126.368 5.19378 126.339L5.19049 126.338C5.08209 126.314 4.98445 126.249 4.91363 126.155C4.8428 126.06 4.80301 125.942 4.8008 125.819L4.53692 119.575C4.53474 119.509 4.52587 119.443 4.5105 119.38L4.51087 119.378C4.4963 119.316 4.47589 119.257 4.45001 119.201C4.4253 119.145 4.39538 119.093 4.3607 119.045C4.32224 118.991 4.27842 118.942 4.23006 118.899L0.518924 115.517Z" fill="#CCCCCC"/>
<path d="M4.3607 119.045L24.0299 109.144C24.0473 109.135 24.0654 109.128 24.0839 109.123C24.1598 109.101 24.2401 109.11 24.311 109.147C24.3819 109.184 24.4388 109.247 24.4721 109.326C24.5053 109.405 24.5127 109.494 24.4929 109.578C24.4732 109.662 24.4276 109.736 24.364 109.787L8.1915 122.973L7.90614 123.206L7.70827 122.906L7.75171 122.869L7.75331 122.869L24.1645 109.486L4.51087 119.378L4.5105 119.38L4.42489 119.421L4.28627 119.082L4.3607 119.045Z" fill="#CCCCCC"/>
<path d="M117.828 124.791L94.1987 119.133C94.0443 119.096 93.8837 119.108 93.7351 119.167C93.5866 119.227 93.4562 119.332 93.359 119.47C93.2618 119.609 93.2017 119.774 93.1857 119.949C93.1696 120.123 93.1983 120.299 93.2683 120.456L102.53 141.332C102.59 141.466 102.678 141.582 102.787 141.671C102.896 141.759 103.022 141.817 103.155 141.84C103.289 141.863 103.426 141.85 103.554 141.801C103.682 141.753 103.797 141.67 103.89 141.561L110.323 134.032C110.368 133.977 110.424 133.933 110.486 133.903C110.547 133.874 110.614 133.858 110.682 133.858C110.773 133.857 110.863 133.883 110.943 133.934C111.022 133.985 111.087 134.059 111.131 134.148L112.449 136.853C112.533 137.034 112.669 137.178 112.835 137.262C113.002 137.347 113.189 137.367 113.367 137.32L113.373 137.319C113.553 137.276 113.716 137.168 113.834 137.011C113.951 136.854 114.019 136.658 114.024 136.453L114.288 130.209C114.291 130.131 114.308 130.055 114.339 129.985C114.372 129.915 114.417 129.854 114.471 129.803L118.183 126.422C118.305 126.311 118.396 126.164 118.446 125.998C118.496 125.832 118.503 125.653 118.466 125.483C118.429 125.313 118.35 125.157 118.237 125.035C118.124 124.913 117.982 124.828 117.828 124.791ZM117.971 126.135L114.26 129.516C114.211 129.559 114.167 129.608 114.129 129.662L94.4597 119.761C94.4424 119.752 94.4243 119.745 94.4057 119.74C94.3298 119.719 94.2495 119.727 94.1786 119.764C94.1078 119.801 94.0508 119.865 94.0175 119.943C93.9843 120.022 93.9769 120.111 93.9967 120.195C94.0164 120.28 94.062 120.353 94.1256 120.404L110.298 133.59C110.216 133.637 110.142 133.7 110.079 133.775L103.646 141.304C103.591 141.369 103.521 141.418 103.445 141.447C103.368 141.477 103.286 141.485 103.206 141.471C103.126 141.458 103.05 141.423 102.985 141.37C102.919 141.317 102.866 141.247 102.83 141.167L93.5687 120.291C93.5273 120.197 93.5106 120.091 93.5205 119.987C93.5304 119.883 93.5665 119.784 93.6247 119.701C93.6829 119.618 93.7609 119.555 93.8497 119.519C93.9385 119.484 94.0347 119.476 94.1271 119.498L117.757 125.155C117.849 125.178 117.934 125.228 118.002 125.302C118.07 125.375 118.118 125.468 118.14 125.57C118.162 125.673 118.158 125.78 118.128 125.88C118.098 125.979 118.044 126.068 117.971 126.135Z" fill="#E6E6E6"/>
<path d="M117.828 124.791L94.1987 119.133C94.0443 119.096 93.8837 119.108 93.7351 119.167C93.5866 119.227 93.4562 119.332 93.359 119.47C93.2618 119.609 93.2017 119.774 93.1857 119.949C93.1696 120.123 93.1983 120.299 93.2683 120.456L102.53 141.332C102.59 141.466 102.678 141.582 102.787 141.671C102.896 141.759 103.022 141.817 103.155 141.84C103.289 141.863 103.426 141.85 103.554 141.801C103.682 141.753 103.797 141.67 103.89 141.561L110.323 134.032C110.368 133.977 110.424 133.933 110.486 133.903C110.547 133.874 110.614 133.858 110.682 133.858C110.773 133.857 110.863 133.883 110.943 133.934C111.022 133.985 111.087 134.059 111.131 134.148L112.449 136.853C112.533 137.034 112.669 137.178 112.835 137.262C113.002 137.347 113.189 137.367 113.367 137.32L113.373 137.319C113.553 137.276 113.716 137.168 113.834 137.011C113.951 136.854 114.019 136.658 114.024 136.453L114.288 130.209C114.291 130.131 114.308 130.055 114.339 129.985C114.372 129.915 114.417 129.854 114.471 129.803L118.183 126.422C118.305 126.311 118.396 126.164 118.446 125.998C118.496 125.832 118.503 125.653 118.466 125.483C118.429 125.313 118.35 125.157 118.237 125.035C118.124 124.913 117.982 124.828 117.828 124.791ZM117.971 126.135L114.26 129.516C114.211 129.559 114.167 129.608 114.129 129.662C114.094 129.71 114.064 129.763 114.04 129.818C114.014 129.874 113.993 129.934 113.979 129.995L113.979 129.997C113.964 130.06 113.955 130.126 113.953 130.192L113.689 136.436C113.687 136.559 113.647 136.677 113.576 136.772C113.505 136.866 113.408 136.931 113.299 136.955L113.296 136.956C113.189 136.986 113.076 136.974 112.976 136.924C112.876 136.873 112.794 136.787 112.744 136.678L111.426 133.971C111.358 133.832 111.259 133.714 111.139 133.629C111.018 133.544 110.88 133.495 110.738 133.486L110.736 133.486C110.717 133.485 110.698 133.484 110.679 133.485C110.546 133.485 110.416 133.521 110.298 133.59C110.216 133.637 110.142 133.7 110.079 133.775L103.646 141.304C103.591 141.369 103.521 141.418 103.445 141.447C103.368 141.477 103.286 141.485 103.206 141.471C103.126 141.458 103.05 141.423 102.985 141.37C102.919 141.317 102.866 141.247 102.83 141.167L93.5687 120.291C93.5273 120.197 93.5106 120.091 93.5205 119.987C93.5304 119.883 93.5665 119.784 93.6247 119.701C93.6829 119.618 93.7609 119.555 93.8497 119.519C93.9385 119.484 94.0347 119.476 94.1271 119.498L117.757 125.155C117.849 125.178 117.934 125.228 118.002 125.302C118.07 125.375 118.118 125.468 118.14 125.57C118.162 125.673 118.158 125.78 118.128 125.88C118.098 125.979 118.044 126.068 117.971 126.135Z" fill="#CCCCCC"/>
<path d="M114.203 129.699L114.065 130.039L113.979 129.997L113.979 129.995L94.3251 120.103L110.736 133.486L110.738 133.486L110.781 133.523L110.583 133.823L110.298 133.59L94.1256 120.404C94.062 120.353 94.0164 120.28 93.9967 120.195C93.9769 120.111 93.9843 120.022 94.0175 119.943C94.0508 119.865 94.1078 119.801 94.1786 119.764C94.2495 119.727 94.3298 119.719 94.4057 119.74C94.4243 119.745 94.4424 119.752 94.4597 119.761L114.129 129.662L114.203 129.699Z" fill="#CCCCCC"/>
<path d="M26.1527 0.395841C26.0041 0.224143 25.8154 0.101591 25.6077 0.0418175C25.4 -0.0179564 25.1815 -0.0126099 24.9764 0.0572654C24.7713 0.127141 24.5876 0.258804 24.4459 0.437607C24.3042 0.61641 24.21 0.835347 24.1737 1.07005L23.206 8.16195C23.1909 8.26646 23.1573 8.36662 23.1072 8.45671C23.0544 8.54495 22.9858 8.62022 22.9057 8.67784L16.4732 13.3341C16.2614 13.4792 16.1005 13.7002 16.0171 13.9605C15.9337 14.2208 15.9328 14.5048 16.0145 14.7658L16.0174 14.7753C16.0956 15.0379 16.2503 15.2641 16.457 15.4185C16.6637 15.5729 16.9108 15.6467 17.1594 15.6282L20.9555 15.4453C21.0804 15.4398 21.2043 15.4718 21.3141 15.5378C21.424 15.6038 21.5159 15.7015 21.58 15.8205C21.6275 15.9064 21.6582 16.0024 21.67 16.1023C21.6818 16.2022 21.6745 16.3038 21.6486 16.4004L18.2039 29.8464C18.1536 30.0411 18.1475 30.2466 18.1861 30.4446C18.2248 30.6426 18.307 30.8268 18.4255 30.9809C18.5451 31.1364 18.6963 31.2583 18.8666 31.3365C19.0368 31.4146 19.2214 31.4468 19.4051 31.4305L48.0612 28.8571C48.3201 28.8347 48.5649 28.7166 48.7563 28.5217C48.8663 28.4104 48.955 28.2757 49.0173 28.1256C49.0796 27.9756 49.1142 27.8132 49.119 27.6481C49.1238 27.4829 49.0988 27.3184 49.0453 27.1642C48.9919 27.01 48.9111 26.8692 48.8078 26.7503L26.1527 0.395841ZM24.6278 1.14273C24.6513 0.974599 24.7257 0.820378 24.8388 0.705459C24.9737 0.568662 25.1514 0.495714 25.334 0.502142C25.5167 0.508571 25.6899 0.593867 25.8167 0.739877L48.4718 27.0942C48.5765 27.2164 48.6408 27.3742 48.6544 27.5422C48.6615 27.6417 48.6509 27.7417 48.623 27.8367C48.5952 27.9316 48.5508 28.0195 48.4922 28.0953C48.4337 28.1711 48.3623 28.2333 48.2821 28.2784C48.2018 28.3235 48.1143 28.3505 48.0247 28.358L19.3686 30.9314C19.2878 30.9385 19.2065 30.93 19.1283 30.9064C19.0416 30.8812 18.9604 30.8372 18.8892 30.7769C18.818 30.7166 18.7584 30.6412 18.7137 30.5551C18.669 30.469 18.6401 30.3739 18.6288 30.2753C18.6175 30.1767 18.624 30.0766 18.6478 29.9808L22.0926 16.5349C22.128 16.4024 22.1423 16.2641 22.1346 16.1262L47.5122 27.7228C47.5974 27.7629 47.6914 27.774 47.7823 27.7547C47.8732 27.7354 47.9569 27.6867 48.0228 27.6145C48.0652 27.5681 48.0988 27.5127 48.1216 27.4516C48.1444 27.3905 48.156 27.3249 48.1555 27.2588C48.1551 27.1926 48.1428 27.1272 48.1192 27.0665C48.0957 27.0057 48.0614 26.9508 48.0184 26.905C47.9999 26.8847 47.9797 26.8664 47.958 26.8504L23.597 8.50322C23.6272 8.41665 23.6484 8.32652 23.6601 8.23459L24.6278 1.14273Z" fill="#E6E6E6"/>
<path d="M26.1527 0.395841C26.0041 0.224143 25.8154 0.101591 25.6077 0.0418175C25.4 -0.0179564 25.1815 -0.0126099 24.9764 0.0572654C24.7713 0.127141 24.5876 0.258804 24.4459 0.437607C24.3042 0.61641 24.21 0.835347 24.1737 1.07005L23.206 8.16195C23.1909 8.26646 23.1573 8.36662 23.1072 8.45671C23.0544 8.54495 22.9858 8.62022 22.9057 8.67784L16.4732 13.3341C16.2614 13.4792 16.1005 13.7002 16.0171 13.9605C15.9337 14.2208 15.9328 14.5048 16.0145 14.7658L16.0174 14.7753C16.0956 15.0379 16.2503 15.2641 16.457 15.4185C16.6637 15.5729 16.9108 15.6467 17.1594 15.6282L20.9555 15.4453C21.0804 15.4398 21.2043 15.4718 21.3141 15.5378C21.424 15.6038 21.5159 15.7015 21.58 15.8205C21.6275 15.9064 21.6582 16.0024 21.67 16.1023C21.6818 16.2022 21.6745 16.3038 21.6486 16.4004L18.2039 29.8464C18.1536 30.0411 18.1475 30.2466 18.1861 30.4446C18.2248 30.6426 18.307 30.8268 18.4255 30.9809C18.5451 31.1364 18.6963 31.2583 18.8666 31.3365C19.0368 31.4146 19.2214 31.4468 19.4051 31.4305L48.0612 28.8571C48.3201 28.8347 48.5649 28.7166 48.7563 28.5217C48.8663 28.4104 48.955 28.2757 49.0173 28.1256C49.0796 27.9756 49.1142 27.8132 49.119 27.6481C49.1238 27.4829 49.0988 27.3184 49.0453 27.1642C48.9919 27.01 48.9111 26.8692 48.8078 26.7503L26.1527 0.395841ZM24.6278 1.14273C24.6513 0.974599 24.7257 0.820378 24.8388 0.705459C24.9737 0.568662 25.1514 0.495714 25.334 0.502142C25.5167 0.508571 25.6899 0.593867 25.8167 0.739877L48.4718 27.0942C48.5765 27.2164 48.6408 27.3742 48.6544 27.5422C48.6615 27.6417 48.6509 27.7417 48.623 27.8367C48.5952 27.9316 48.5508 28.0195 48.4922 28.0953C48.4337 28.1711 48.3623 28.2333 48.2821 28.2784C48.2018 28.3235 48.1143 28.3505 48.0247 28.358L19.3686 30.9314C19.2878 30.9385 19.2065 30.93 19.1283 30.9064C19.0416 30.8812 18.9604 30.8372 18.8892 30.7769C18.818 30.7166 18.7584 30.6412 18.7137 30.5551C18.669 30.469 18.6401 30.3739 18.6288 30.2753C18.6175 30.1767 18.624 30.0766 18.6478 29.9808L22.0926 16.5349C22.128 16.4024 22.1423 16.2641 22.1346 16.1262C22.1248 15.9276 22.0707 15.7349 21.9773 15.5652C21.9649 15.5407 21.9503 15.517 21.9358 15.4931L21.9351 15.4908C21.8234 15.3138 21.6732 15.171 21.4985 15.0756C21.3238 14.9802 21.1303 14.9354 20.9358 14.9453L17.1375 15.1291C16.988 15.1407 16.8393 15.0962 16.7152 15.0029C16.5912 14.9096 16.4989 14.7727 16.4533 14.6143L16.4518 14.6096C16.4017 14.4532 16.4017 14.2824 16.4519 14.1261C16.5021 13.9697 16.5994 13.8374 16.7273 13.7514L23.1598 9.09524C23.2281 9.04692 23.2913 8.99026 23.3482 8.92633L23.3504 8.92554C23.4049 8.86466 23.4535 8.79747 23.4952 8.72514C23.5362 8.65545 23.5703 8.58105 23.597 8.50322C23.6272 8.41665 23.6484 8.32652 23.6601 8.23459L24.6278 1.14273Z" fill="#CCCCCC"/>
<path d="M23.597 8.50322L47.958 26.8504C47.9797 26.8664 47.9999 26.8847 48.0184 26.905C48.0843 26.9752 48.1291 27.0661 48.1469 27.1656C48.1647 27.265 48.1546 27.3681 48.1178 27.4609C48.0679 27.5838 47.9764 27.6802 47.8632 27.7291C47.75 27.7781 47.6239 27.7758 47.5122 27.7228L22.1346 16.1262L21.6863 15.9219L21.8652 15.4607L21.9351 15.4908L21.9358 15.4931L47.6903 27.2593L23.3504 8.92554L23.3482 8.92633L23.2434 8.84562L23.5052 8.43349L23.597 8.50322Z" fill="#CCCCCC"/>
</svg>
