<svg width="12" height="12" viewBox="0 0 12 12" fill="none" xmlns="http://www.w3.org/2000/svg">
<mask id="mask0_154_1292" style="mask-type:alpha" maskUnits="userSpaceOnUse" x="0" y="0" width="12" height="12">
<rect width="12" height="12" fill="#D9D9D9"/>
</mask>
<g mask="url(#mask0_154_1292)">
<path d="M2.5 10.5C2.225 10.5 1.9895 10.4022 1.7935 10.2065C1.59783 10.0105 1.5 9.775 1.5 9.5V2.5C1.5 2.225 1.59783 1.9895 1.7935 1.7935C1.9895 1.59783 2.225 1.5 2.5 1.5H9.5C9.775 1.5 10.0105 1.59783 10.2065 1.7935C10.4022 1.9895 10.5 2.225 10.5 2.5V9.5C10.5 9.775 10.4022 10.0105 10.2065 10.2065C10.0105 10.4022 9.775 10.5 9.5 10.5H2.5ZM2.5 9.5H4.125V7.25H4C3.85833 7.25 3.7395 7.202 3.6435 7.106C3.54783 7.01033 3.5 6.89167 3.5 6.75V2.5H2.5V9.5ZM7.875 9.5H9.5V2.5H8.5V6.75C8.5 6.89167 8.452 7.01033 8.356 7.106C8.26033 7.202 8.14167 7.25 8 7.25H7.875V9.5ZM4.875 9.5H7.125V7.25H7C6.85833 7.25 6.73967 7.202 6.644 7.106C6.548 7.01033 6.5 6.89167 6.5 6.75V2.5H5.5V6.75C5.5 6.89167 5.45217 7.01033 5.3565 7.106C5.2605 7.202 5.14167 7.25 5 7.25H4.875V9.5Z" fill="#1C1B1F"/>
</g>
</svg>
