<svg width="246" height="136" viewBox="0 0 246 136" fill="none" xmlns="http://www.w3.org/2000/svg">
<g clip-path="url(#clip0_1192_2031)">
<path d="M17.0718 125.983C18.1936 126.335 19.3981 126.423 20.5692 126.239C21.7403 126.055 22.8386 125.604 23.7582 124.931C26.1001 123.176 26.8353 120.285 27.4318 117.608L29.1988 109.689L25.4993 111.964C22.8387 113.599 20.1184 115.287 18.2761 117.656C16.4338 120.026 15.6298 123.26 17.1098 125.823" fill="#E6E6E6"/>
<path d="M17.388 135.57C17.0136 133.135 16.6285 130.668 16.8911 128.207C17.1245 126.021 17.8712 123.886 19.3921 122.136C20.1993 121.208 21.1815 120.413 22.2946 119.787C22.5849 119.624 22.8518 120.035 22.563 120.197C20.6372 121.284 19.1476 122.888 18.309 124.78C17.3828 126.883 17.2342 129.176 17.395 131.41C17.4916 132.761 17.696 134.103 17.9023 135.444C17.9189 135.504 17.9089 135.568 17.8744 135.623C17.8398 135.677 17.7833 135.717 17.7164 135.736C17.6484 135.752 17.5759 135.744 17.5146 135.713C17.4534 135.682 17.4083 135.63 17.3892 135.57L17.388 135.57Z" fill="#F2F2F2"/>
<path d="M91.5814 83.1035C91.3098 83.2187 91.0137 83.2809 90.7129 83.2859L62.8038 83.9698C61.6422 83.9924 60.5181 83.602 59.6788 82.8846C58.8396 82.1672 58.3539 81.1815 58.3287 80.1444C58.3034 79.1073 58.7407 78.1037 59.5442 77.3544C60.3477 76.6051 61.4517 76.1715 62.6133 76.1489L90.5226 75.4651C91.0879 75.4547 91.6347 75.6449 92.0431 75.9939C92.4515 76.343 92.6882 76.8225 92.7011 77.3272L92.7988 81.3409C92.8074 81.7081 92.6971 82.0698 92.4811 82.3824C92.2652 82.695 91.9528 82.9454 91.5814 83.1035Z" fill="#E84118"/>
<path d="M55.7709 135.621H51.2742C50.7088 135.62 50.1667 135.419 49.7669 135.063C49.3671 134.706 49.1422 134.222 49.1416 133.717V100.256C49.1422 99.7511 49.3671 99.2671 49.7669 98.9101C50.1667 98.5532 50.7088 98.3524 51.2742 98.3518H55.7709C56.3363 98.3524 56.8784 98.5532 57.2782 98.9101C57.678 99.2671 57.9029 99.7511 57.9035 100.256V133.717C57.9029 134.222 57.678 134.706 57.2782 135.063C56.8784 135.419 56.3363 135.62 55.7709 135.621Z" fill="#E84118"/>
<path d="M67.7114 135.621H63.2147C62.6492 135.62 62.1072 135.419 61.7074 135.063C61.3076 134.706 61.0827 134.222 61.082 133.717V100.256C61.0827 99.7511 61.3076 99.2671 61.7074 98.9101C62.1072 98.5532 62.6492 98.3524 63.2147 98.3518H67.7114C68.2768 98.3524 68.8189 98.5532 69.2187 98.9101C69.6185 99.2671 69.8434 99.7511 69.844 100.256V133.717C69.8434 134.222 69.6185 134.706 69.2187 135.063C68.8189 135.419 68.2768 135.62 67.7114 135.621Z" fill="#E84118"/>
<path d="M59.9318 63.5676C68.5131 63.5676 75.4695 57.3567 75.4695 49.6952C75.4695 42.0337 68.5131 35.8228 59.9318 35.8228C51.3505 35.8228 44.394 42.0337 44.394 49.6952C44.394 57.3567 51.3505 63.5676 59.9318 63.5676Z" fill="#E84118"/>
<path d="M65.206 110.217H54.0281C51.7052 110.225 49.4213 109.685 47.4075 108.651C45.3936 107.618 43.7213 106.127 42.5599 104.331C41.3985 102.535 40.7891 100.497 40.7935 98.4232C40.7979 96.3493 41.4158 94.3132 42.5849 92.5211L58.2169 68.3476C58.3907 68.0789 58.6407 67.8557 58.9417 67.7005C59.2427 67.5453 59.5842 67.4636 59.9318 67.4636C60.2795 67.4636 60.621 67.5453 60.922 67.7005C61.223 67.8557 61.473 68.0789 61.6468 68.3476L76.964 92.0343C78.1557 93.8771 78.783 95.9674 78.783 98.0952C78.7829 100.223 78.1556 102.313 76.964 104.156C75.7723 105.999 74.0584 107.529 71.9944 108.593C69.9305 109.657 67.5892 110.217 65.206 110.217Z" fill="#2F2E41"/>
<path d="M63.599 55.5186C64.6062 55.4936 65.8596 55.4624 66.8253 54.8326C67.1129 54.6374 67.3492 54.3884 67.5176 54.103C67.686 53.8177 67.7825 53.5029 67.8003 53.1808C67.8177 52.9518 67.7757 52.7224 67.6774 52.5104C67.579 52.2983 67.4271 52.1095 67.2335 51.9586C66.7291 51.5781 65.9926 51.4888 65.1989 51.6971L66.0213 46.3315L65.4176 46.2577L64.4508 52.5656L64.9549 52.359C65.5394 52.1197 66.3416 51.9979 66.8402 52.374C66.9626 52.4724 67.058 52.5946 67.1189 52.7312C67.1798 52.8678 67.2046 53.0151 67.1914 53.1616C67.1766 53.4014 67.1041 53.6355 66.979 53.848C66.8538 54.0605 66.6788 54.2465 66.4659 54.3932C65.7144 54.8833 64.7153 54.9466 63.582 54.9748L63.599 55.5186Z" fill="#2F2E41"/>
<path d="M72.2885 46.7943H69.0068V47.3383H72.2885V46.7943Z" fill="#2F2E41"/>
<path d="M61.9301 46.7943H58.6484V47.3383H61.9301V46.7943Z" fill="#2F2E41"/>
<path d="M56.2771 107.114C56.1479 106.872 56.0783 106.607 56.0727 106.339L55.3067 81.4211C55.2814 80.3839 55.7187 79.3804 56.5222 78.6311C57.3257 77.8818 58.4298 77.4482 59.5914 77.4256C60.753 77.4031 61.8771 77.7934 62.7163 78.5108C63.5555 79.2283 64.0412 80.2139 64.0665 81.251L64.8323 106.169C64.844 106.674 64.631 107.162 64.24 107.527C63.849 107.891 63.312 108.102 62.7467 108.114L58.2512 108.201C57.8399 108.209 57.4348 108.11 57.0847 107.918C56.7345 107.725 56.4541 107.446 56.2771 107.114Z" fill="#E84118"/>
<path d="M58.4904 39.4406C60.3782 41.6448 63.375 43.1234 66.5424 42.7733C69.5586 42.4399 72.047 40.5629 72.6713 37.8757C72.9438 36.6052 72.8703 35.2948 72.4569 34.0549C72.0435 32.8151 71.3024 31.6822 70.2959 30.7516C68.161 28.7468 65.1056 27.6684 62.0813 27.2986C56.3523 26.5981 50.4685 28.3998 46.1368 31.7602C43.9615 33.4308 42.2251 35.5088 41.0512 37.8464C39.9204 40.1667 39.3819 42.6826 39.4746 45.2117C39.641 50.2099 42.0932 55.1985 46.3242 58.5132C46.8497 58.9235 47.3997 59.3082 47.9718 59.6653C48.4544 59.9676 48.9116 59.2604 48.4331 58.9607C44.1002 56.2469 41.3365 51.8311 40.5779 47.1913C40.1807 44.8536 40.3578 42.4666 41.0971 40.1961C41.8364 37.9255 43.1202 35.8258 44.8593 34.0425C48.3581 30.4906 53.4881 28.182 58.8015 27.9752C64.1479 27.767 70.8292 29.8981 71.8297 35.2118C72.2782 37.5934 71.281 40.0969 68.8366 41.2892C66.2194 42.5658 63.0102 42.0405 60.761 40.3917C60.2103 39.9896 59.7132 39.5323 59.2796 39.0287C58.9271 38.6171 58.1329 39.0232 58.4904 39.4406Z" fill="#2F2E41"/>
<path d="M215.717 3.21953L83.8887 20.222L92.9252 76.0723L224.753 59.0697L215.717 3.21953Z" fill="#F1F1F1"/>
<path d="M212.723 8.49492L88.4336 24.5251L95.973 71.1227L220.262 55.0925L212.723 8.49492Z" fill="white"/>
<path d="M215.139 -1.77295e-05L83.3105 17.0025L84.1196 22.0027L215.948 5.00019L215.139 -1.77295e-05Z" fill="#E5E5E5"/>
<path d="M87.9482 20.3424C88.5274 20.3424 88.997 19.9231 88.997 19.406C88.997 18.8888 88.5274 18.4696 87.9482 18.4696C87.369 18.4696 86.8994 18.8888 86.8994 19.406C86.8994 19.9231 87.369 20.3424 87.9482 20.3424Z" fill="white"/>
<path d="M91.8881 19.8342C92.4674 19.8342 92.9369 19.415 92.9369 18.8978C92.9369 18.3807 92.4674 17.9614 91.8881 17.9614C91.3089 17.9614 90.8394 18.3807 90.8394 18.8978C90.8394 19.415 91.3089 19.8342 91.8881 19.8342Z" fill="white"/>
<path d="M95.8281 19.326C96.4073 19.326 96.8769 18.9068 96.8769 18.3896C96.8769 17.8725 96.4073 17.4532 95.8281 17.4532C95.2489 17.4532 94.7793 17.8725 94.7793 18.3896C94.7793 18.9068 95.2489 19.326 95.8281 19.326Z" fill="white"/>
<path d="M246 27.2507H112.803V83.6806H246V27.2507Z" fill="#E6E6E6"/>
<path d="M242.191 32.0896H116.612V79.1709H242.191V32.0896Z" fill="white"/>
<path d="M245.943 23.9904H112.747V29.0425H245.943V23.9904Z" fill="#CBCBCB"/>
<path d="M116.952 27.8975C117.531 27.8975 118 27.4783 118 26.9611C118 26.444 117.531 26.0247 116.952 26.0247C116.372 26.0247 115.903 26.444 115.903 26.9611C115.903 27.4783 116.372 27.8975 116.952 27.8975Z" fill="white"/>
<path d="M120.933 27.8975C121.512 27.8975 121.981 27.4783 121.981 26.9611C121.981 26.444 121.512 26.0247 120.933 26.0247C120.353 26.0247 119.884 26.444 119.884 26.9611C119.884 27.4783 120.353 27.8975 120.933 27.8975Z" fill="white"/>
<path d="M124.914 27.8975C125.493 27.8975 125.962 27.4783 125.962 26.9611C125.962 26.444 125.493 26.0247 124.914 26.0247C124.334 26.0247 123.865 26.444 123.865 26.9611C123.865 27.4783 124.334 27.8975 124.914 27.8975Z" fill="white"/>
<path d="M206.661 39.2477H188.975V40.4345H206.661V39.2477Z" fill="#E6E6E6"/>
<path d="M216.286 42.7319H188.975V43.9188H216.286V42.7319Z" fill="#E6E6E6"/>
<path d="M211.517 46.0502H189.259V47.237H211.517V46.0502Z" fill="#E6E6E6"/>
<path d="M201.969 49.6912H188.975V50.878H201.969V49.6912Z" fill="#E6E6E6"/>
<path d="M208.586 53.2476H188.975V54.4344H208.586V53.2476Z" fill="#E6E6E6"/>
<path d="M183.079 38.8744H180.914V40.8079H183.079V38.8744Z" fill="#E6E6E6"/>
<path d="M183.079 42.3586H180.914V44.2922H183.079V42.3586Z" fill="#E6E6E6"/>
<path d="M183.079 45.6769H180.914V47.6104H183.079V45.6769Z" fill="#E6E6E6"/>
<path d="M183.079 49.3177H180.914V51.2513H183.079V49.3177Z" fill="#E6E6E6"/>
<path d="M183.079 52.8741H180.914V54.8077H183.079V52.8741Z" fill="#E6E6E6"/>
<path d="M206.661 56.8262H188.975V58.013H206.661V56.8262Z" fill="#E6E6E6"/>
<path d="M216.286 60.3104H188.975V61.4973H216.286V60.3104Z" fill="#E6E6E6"/>
<path d="M211.517 63.6287H189.259V64.8155H211.517V63.6287Z" fill="#E6E6E6"/>
<path d="M201.969 67.2695H188.975V68.4564H201.969V67.2695Z" fill="#E6E6E6"/>
<path d="M208.586 70.8259H188.975V72.0128H208.586V70.8259Z" fill="#E6E6E6"/>
<path d="M183.079 56.4528H180.914V58.3863H183.079V56.4528Z" fill="#E6E6E6"/>
<path d="M183.079 59.937H180.914V61.8706H183.079V59.937Z" fill="#E6E6E6"/>
<path d="M183.079 63.2552H180.914V65.1888H183.079V63.2552Z" fill="#E6E6E6"/>
<path d="M183.079 66.8962H180.914V68.8298H183.079V66.8962Z" fill="#E6E6E6"/>
<path d="M183.079 70.4526H180.914V72.3862H183.079V70.4526Z" fill="#E6E6E6"/>
<path d="M150.711 66.1359H133.024V67.3227H150.711V66.1359Z" fill="#E6E6E6"/>
<path d="M152.916 69.2198H130.658V70.4067H152.916V69.2198Z" fill="#E6E6E6"/>
<path d="M153.363 51.1642C153.362 52.948 152.843 54.7011 151.857 56.2524C150.87 57.8037 149.45 59.1 147.735 60.0149C146.02 60.9297 144.068 61.4318 142.071 61.472C140.073 61.5122 138.098 61.0892 136.339 60.2444L136.337 60.2423C134.539 59.3778 133.031 58.1033 131.965 56.5488C130.898 54.9942 130.313 53.2151 130.268 51.3927C130.223 49.5703 130.72 47.7699 131.708 46.1747C132.696 44.5796 134.14 43.2468 135.893 42.3122C137.645 41.3776 139.644 40.8746 141.686 40.8544C143.727 40.8342 145.738 41.2975 147.514 42.1972C149.29 43.0969 150.766 44.4008 151.794 45.976C152.821 47.5512 153.363 49.3414 153.363 51.1642Z" fill="#E6E6E6"/>
<path d="M141.874 50.6636C143.607 50.6636 145.013 49.4088 145.013 47.8608C145.013 46.3129 143.607 45.058 141.874 45.058C140.14 45.058 138.734 46.3129 138.734 47.8608C138.734 49.4088 140.14 50.6636 141.874 50.6636Z" fill="white"/>
<path d="M147.234 56.455C143.724 57.5548 139.898 57.5416 136.398 56.4175L136.396 56.4161L138.734 52.2943H145.013L147.234 56.455Z" fill="white"/>
<path d="M107.116 76.7568C101.644 76.7568 97.1924 72.5348 97.1924 67.3451C97.1924 62.1556 101.644 57.9336 107.116 57.9336C112.588 57.9336 117.039 62.1556 117.039 67.3451C117.039 72.5348 112.588 76.7568 107.116 76.7568ZM107.116 60.3117C103.113 60.3117 99.8559 63.4668 99.8559 67.3451C99.8559 71.2234 103.113 74.3787 107.116 74.3787C111.119 74.3787 114.376 71.2234 114.376 67.3451C114.376 63.4668 111.119 60.3117 107.116 60.3117Z" fill="#E84118"/>
<path d="M116.513 93.1586H97.719C96.0616 93.1569 94.4727 92.5684 93.3008 91.5221C92.1288 90.4758 91.4696 89.0572 91.4678 87.5775V71.1182C91.469 70.1052 91.9204 69.1339 92.7227 68.4176C93.525 67.7012 94.6128 67.2983 95.7475 67.2971H118.485C119.619 67.2983 120.707 67.7012 121.509 68.4176C122.312 69.1339 122.763 70.1052 122.764 71.1182V87.5775C122.763 89.0572 122.103 90.4758 120.931 91.5221C119.759 92.5684 118.171 93.1569 116.513 93.1586Z" fill="#3F3D56"/>
<path d="M110.778 76.6608C110.779 76.0795 110.606 75.5086 110.277 75.007C109.948 74.5053 109.476 74.0909 108.908 73.8065C108.34 73.5221 107.698 73.378 107.047 73.389C106.396 73.4 105.76 73.5657 105.205 73.8691C104.649 74.1724 104.195 74.6025 103.887 75.1149C103.58 75.6274 103.431 76.2037 103.456 76.7845C103.481 77.3653 103.68 77.9297 104.03 78.4194C104.381 78.9091 104.871 79.3066 105.451 79.5708V84.6867H108.781V79.5708C109.382 79.2973 109.886 78.8807 110.239 78.3672C110.592 77.8537 110.778 77.2631 110.778 76.6608Z" fill="white"/>
<path d="M116.381 136H0.304662C0.22386 136 0.146368 135.971 0.0892331 135.92C0.032098 135.869 0 135.8 0 135.728C0 135.656 0.032098 135.587 0.0892331 135.536C0.146368 135.485 0.22386 135.456 0.304662 135.456H116.381C116.462 135.456 116.539 135.485 116.596 135.536C116.653 135.587 116.685 135.656 116.685 135.728C116.685 135.8 116.653 135.869 116.596 135.92C116.539 135.971 116.462 136 116.381 136Z" fill="#3F3D56"/>
</g>
<defs>
<clipPath id="clip0_1192_2031">
<rect width="246" height="136" fill="white"/>
</clipPath>
</defs>
</svg>
