<svg width="157" height="144" viewBox="0 0 157 144" fill="none" xmlns="http://www.w3.org/2000/svg">
<g clip-path="url(#clip0_1191_1944)">
<path d="M104.427 144H8.56957C6.29756 143.998 4.11934 143.164 2.51279 141.683C0.906244 140.201 0.0025646 138.193 0 136.097V7.90257C0.0025646 5.8074 0.906244 3.79873 2.51279 2.31722C4.11934 0.835717 6.29756 0.00236499 8.56957 0H104.427C106.699 0.00236206 108.877 0.835713 110.484 2.31722C112.09 3.79873 112.994 5.8074 112.997 7.90257V136.097C112.994 138.193 112.09 140.201 110.484 141.683C108.877 143.164 106.699 143.998 104.427 144Z" fill="#3F3D56"/>
<path d="M104.596 138.958H8.40093C7.70057 138.957 7.02912 138.7 6.53389 138.244C6.03865 137.787 5.76008 137.168 5.75928 136.522V7.47807C5.76008 6.83222 6.03865 6.21303 6.53389 5.75634C7.02912 5.29965 7.70057 5.04276 8.40093 5.04202H104.596C105.296 5.04276 105.968 5.29965 106.463 5.75634C106.958 6.21303 107.237 6.83222 107.237 7.47807V136.522C107.237 137.168 106.958 137.787 106.463 138.244C105.968 138.7 105.296 138.957 104.596 138.958Z" fill="white"/>
<path d="M56.1338 3.09244C56.5364 3.09244 56.8628 2.79146 56.8628 2.42017C56.8628 2.04889 56.5364 1.7479 56.1338 1.7479C55.7312 1.7479 55.4048 2.04889 55.4048 2.42017C55.4048 2.79146 55.7312 3.09244 56.1338 3.09244Z" fill="white"/>
<path d="M82.1573 59.6154L78.9728 50.8201L78.9189 50.6672L92.3297 42.8555L93.0426 43.7414L96.7775 48.3794L95.4123 52.1306L91.8836 61.8224L91.7289 62.2484L98.2638 66.7288C98.5228 67.1693 98.7379 67.5709 98.9129 67.94C100.864 72.0393 97.976 71.8533 97.976 71.8533L84.6855 66.5999L82.1573 59.6154Z" fill="#FFB7B7"/>
<path d="M89.1934 61.2527L88.6075 59.6336L85.732 51.6855L85.133 50.0287L84.6299 48.6421L91.1872 44.8214L98.0406 40.8304L102.488 46.3543L101.14 50.0582L100.485 51.8579L99.4722 54.6416L97.4398 60.2233L103.975 64.7037C104.469 65.5033 104.86 66.354 105.138 67.238C105.251 67.6069 105.305 67.9893 105.298 68.3728C105.308 68.569 105.274 68.7652 105.196 68.9482C105.118 69.1313 105 69.2971 104.847 69.4346C104.695 69.5722 104.513 69.6784 104.313 69.7463C104.113 69.8141 103.9 69.8421 103.687 69.8283L90.3964 64.5749L89.1934 61.2527Z" fill="#FFB7B7"/>
<path opacity="0.15" d="M88.5697 61.6114L87.7983 54.1138L91.6417 52.1921L91.8931 52.6201L88.3564 54.3883L89.0716 61.3389L96.9293 66.3013L96.6313 66.7026L88.5697 61.6114Z" fill="black"/>
<path opacity="0.15" d="M96.9532 61.3603L96.6396 61.7516L104.569 67.1545L104.883 66.7632L96.9532 61.3603Z" fill="black"/>
<path d="M96.4807 68.7094L56.5885 42.8484L16.2891 68.4684L55.9875 83.9273L96.4807 68.7094Z" fill="white"/>
<path d="M67.9197 46.7587L81.3528 34.6469L105.377 33.1501L135.241 59.448L157 70.4288L150.87 87.052L124.608 75.5558C119.261 75.1936 115.82 73.5574 113.644 71.8366C112.896 71.2457 112.222 70.5796 111.634 69.8508C110.99 69.0779 110.487 68.2131 110.147 67.2905L99.4723 54.6416L97.2716 52.0313L95.8463 50.3421L91.1873 44.8214L90.852 44.4246L82.9369 44.2313L78.8175 49.2183L75.9241 52.718C75.8566 53.9506 75.3739 55.1331 74.5433 56.1007C71.9486 59.0112 66.6875 58.4429 66.6875 58.4429L67.9197 46.7587Z" fill="#FFB7B7"/>
<path d="M16.4426 68.4447H16.4713L32.947 74.9323L55.4892 83.8088C55.5773 83.8429 55.6718 83.8608 55.7674 83.8612C55.8629 83.8617 55.9576 83.8447 56.0461 83.8114L79.3029 74.9138L96.1834 68.4553L96.2092 68.4447H96.2379C96.5043 68.4449 96.7597 68.5426 96.948 68.7163C97.1363 68.89 97.2423 69.1255 97.2426 69.3711V109.604C97.2423 109.85 97.1363 110.086 96.948 110.259C96.7597 110.433 96.5043 110.531 96.2379 110.531H16.4426C16.1762 110.531 15.9209 110.433 15.7326 110.259C15.5442 110.086 15.4383 109.85 15.438 109.604V69.3711C15.4383 69.1255 15.5442 68.89 15.7326 68.7163C15.9209 68.5426 16.1762 68.4449 16.4426 68.4447Z" fill="white"/>
<path d="M16.3711 68.7094C16.4004 68.7094 16.429 68.7011 16.453 68.6856L56.1439 43.1953C56.2647 43.118 56.4082 43.0768 56.5552 43.077C56.7022 43.0772 56.8455 43.119 56.966 43.1965L96.371 68.6854C96.4021 68.7054 96.4407 68.7133 96.4781 68.7072C96.5155 68.7011 96.5488 68.6815 96.5706 68.6528C96.5924 68.6241 96.601 68.5886 96.5945 68.5541C96.588 68.5196 96.5669 68.4888 96.5358 68.4686L57.1308 42.9798C56.9621 42.8712 56.7614 42.8128 56.5556 42.8125C56.3499 42.8122 56.1489 42.87 55.9798 42.9781L16.289 68.4684C16.2639 68.4845 16.2451 68.5076 16.2352 68.5342C16.2254 68.5609 16.225 68.5898 16.2341 68.6167C16.2433 68.6435 16.2615 68.667 16.2862 68.6837C16.3108 68.7004 16.3406 68.7094 16.3711 68.7094Z" fill="#3F3D56"/>
<path d="M94.1193 69.6129L56.5161 43.9134L18.6279 71.4415L54.5788 91.095L74.097 86.9923L94.1193 69.6129Z" fill="#E6E6E6"/>
<path d="M72.4493 103.234H91.0261C91.2561 103.234 91.4768 103.15 91.6396 103C91.8024 102.85 91.894 102.647 91.8943 102.435C91.8947 102.223 91.8037 102.019 91.6414 101.869C91.4791 101.719 91.2587 101.634 91.0287 101.633H72.4493C72.2193 101.633 71.9986 101.717 71.8358 101.867C71.673 102.017 71.5814 102.22 71.5811 102.433C71.5807 102.645 71.6717 102.848 71.834 102.999C71.9963 103.149 72.2167 103.234 72.4467 103.234H72.4493Z" fill="#E84118"/>
<path d="M84.3614 99.7931H91.0263C91.2563 99.7931 91.477 99.709 91.6398 99.5592C91.8026 99.4093 91.8942 99.206 91.8945 98.9939C91.8949 98.7818 91.8039 98.5782 91.6416 98.4279C91.4793 98.2777 91.2589 98.1929 91.0289 98.1924H84.3614C84.1313 98.1923 83.9107 98.2764 83.7479 98.4263C83.5851 98.5761 83.4935 98.7794 83.4932 98.9915C83.4928 99.2037 83.5838 99.4072 83.7461 99.5575C83.9084 99.7078 84.1288 99.7925 84.3588 99.7931H84.3614Z" fill="#E84118"/>
<path d="M55.9875 83.9272C56.1287 83.9273 56.2686 83.902 56.3993 83.8528L79.5903 74.9791V47.203C79.59 46.9574 79.484 46.722 79.2957 46.5483C79.1073 46.3746 78.852 46.2769 78.5857 46.2766H34.0954C33.8291 46.2769 33.5737 46.3746 33.3854 46.5483C33.1971 46.722 33.0911 46.9574 33.0908 47.203V74.9985L33.1344 75.0157L55.5633 83.8484C55.6976 83.9005 55.8418 83.9273 55.9875 83.9272Z" fill="white"/>
<path d="M55.535 83.9093L33.019 75.0422V47.203C33.0194 46.9399 33.1329 46.6876 33.3347 46.5015C33.5365 46.3154 33.81 46.2107 34.0954 46.2104H78.5856C78.871 46.2107 79.1446 46.3154 79.3464 46.5015C79.5482 46.6876 79.6617 46.9399 79.662 47.203V75.0233L56.4266 83.914C56.1404 84.0213 55.8198 84.0196 55.535 83.9093ZM79.375 47.203C79.3747 47.01 79.2915 46.825 79.1435 46.6886C78.9955 46.5521 78.7949 46.4754 78.5856 46.4751H34.0954C33.8861 46.4754 33.6855 46.5521 33.5375 46.6886C33.3896 46.825 33.3063 47.01 33.3061 47.203V74.8674L55.6472 83.6656C55.8612 83.7485 56.102 83.7498 56.3171 83.6693L79.375 74.8465L79.375 47.203Z" fill="#3F3D56"/>
<path d="M15.6533 69.3711V109.604C15.6536 109.85 15.7596 110.086 15.9479 110.259C16.1362 110.433 16.3916 110.531 16.6579 110.531H96.4533C96.7196 110.531 96.975 110.433 97.1633 110.259C97.3517 110.086 97.4576 109.85 97.4579 109.604V69.3711C97.4576 69.1255 97.3517 68.89 97.1633 68.7163C96.975 68.5426 96.7196 68.4449 96.4533 68.4447H96.4245L96.3988 68.4553L79.5183 74.9138L56.2614 83.8114C56.173 83.8447 56.0783 83.8617 55.9827 83.8612C55.8871 83.8608 55.7926 83.8429 55.7045 83.8088L33.1624 74.9323L16.6867 68.4447H16.6579C16.3916 68.4449 16.1362 68.5426 15.9479 68.7163C15.7596 68.89 15.6536 69.1255 15.6533 69.3711ZM15.9404 69.3711C15.9408 69.2002 16.0126 69.0361 16.1409 68.9129C16.2692 68.7896 16.4441 68.7167 16.6292 68.7094L33.1624 75.2195L55.5911 84.0523C55.8406 84.1488 56.1213 84.1503 56.3719 84.0563L79.5183 75.1996L96.4805 68.7094C96.666 68.7162 96.8413 68.7889 96.97 68.9122C97.0986 69.0356 97.1706 69.2 97.1709 69.3711V109.604C97.1708 109.78 97.0952 109.948 96.9606 110.072C96.826 110.196 96.6436 110.266 96.4533 110.266H16.6579C16.4676 110.266 16.2852 110.196 16.1506 110.072C16.0161 109.948 15.9404 109.78 15.9404 109.604V69.3711Z" fill="#3F3D56"/>
<path d="M37.9899 56.6594H53.7768C54.0813 56.6594 54.3733 56.5478 54.5886 56.3493C54.8039 56.1507 54.9249 55.8814 54.9249 55.6006C54.9249 55.3198 54.8039 55.0505 54.5886 54.852C54.3733 54.6534 54.0813 54.5418 53.7768 54.5418H37.9899C37.6854 54.5418 37.3934 54.6534 37.1781 54.852C36.9628 55.0505 36.8418 55.3198 36.8418 55.6006C36.8418 55.8814 36.9628 56.1507 37.1781 56.3493C37.3934 56.5478 37.6854 56.6594 37.9899 56.6594Z" fill="#E84118"/>
<path d="M37.9997 52.1596H45.6061C45.9106 52.1596 46.2026 52.0481 46.4179 51.8495C46.6333 51.651 46.7542 51.3817 46.7542 51.1009C46.7542 50.8201 46.6333 50.5507 46.4179 50.3522C46.2026 50.1536 45.9106 50.0421 45.6061 50.0421H37.9997C37.6952 50.0421 37.4032 50.1536 37.1878 50.3522C36.9725 50.5507 36.8516 50.8201 36.8516 51.1009C36.8516 51.3817 36.9725 51.651 37.1878 51.8495C37.4032 52.0481 37.6952 52.1596 37.9997 52.1596Z" fill="#E84118"/>
<path d="M44.5329 67.2471H68.6437C68.9482 67.2471 69.2402 67.1356 69.4556 66.937C69.6709 66.7385 69.7919 66.4692 69.7919 66.1883C69.7919 65.9075 69.6709 65.6382 69.4556 65.4397C69.2402 65.2411 68.9482 65.1296 68.6437 65.1296H44.5329C44.2284 65.1296 43.9364 65.2411 43.721 65.4397C43.5057 65.6382 43.3848 65.9075 43.3848 66.1883C43.3848 66.4692 43.5057 66.7385 43.721 66.937C43.9364 67.1356 44.2284 67.2471 44.5329 67.2471Z" fill="#CCCCCC"/>
<path d="M44.5329 72.1439H68.6437C68.9482 72.1439 69.2402 72.0324 69.4556 71.8338C69.6709 71.6353 69.7919 71.366 69.7919 71.0852C69.7919 70.8044 69.6709 70.5351 69.4556 70.3365C69.2402 70.1379 68.9482 70.0264 68.6437 70.0264H44.5329C44.2284 70.0264 43.9364 70.1379 43.721 70.3365C43.5057 70.5351 43.3848 70.8044 43.3848 71.0852C43.3848 71.366 43.5057 71.6353 43.721 71.8338C43.9364 72.0324 44.2284 72.1439 44.5329 72.1439Z" fill="#CCCCCC"/>
<path opacity="0.1" d="M100.485 51.8579L105.274 51.6026L124.408 73.348L117.648 72.3945L113.644 71.8367C112.896 71.2457 112.221 70.5796 111.633 69.8508L107.185 68.6328L105.137 67.238C105.266 67.6912 100.485 51.8579 100.485 51.8579Z" fill="black"/>
<path d="M69.8747 51.1659C70.0119 50.3526 70.4926 49.6224 71.2117 49.1348C71.9309 48.6472 72.83 48.4418 73.7127 48.5635L78.8176 49.2183L85.1331 50.0287L90.0138 50.6543L95.8463 50.3421L101.141 50.0582L104.268 49.8918L125.066 73.5281L107.185 68.6328L105.138 67.238L96.1743 61.1327C96.1743 61.1327 93.2374 60.6338 88.6076 59.6336C87.9187 59.4827 80.1251 57.6792 76.4639 56.6983C75.7547 56.5078 75.1185 56.3085 74.5433 56.1007C70.4615 54.6191 69.6449 52.7196 69.8747 51.1659Z" fill="#FFB7B7"/>
<path opacity="0.15" d="M72.7983 54.1187C72.8166 54.1168 74.6387 53.9075 75.4164 52.677C75.9404 51.8481 75.8877 50.7317 75.2599 49.3592L75.7459 49.1702C76.4426 50.6931 76.4843 51.9565 75.8701 52.9253C74.9565 54.3662 72.9436 54.5931 72.8584 54.6021L72.7983 54.1187Z" fill="black"/>
<path opacity="0.15" d="M91.2219 50.833L91.2207 50.3466L100.602 50.3328L90.7119 44.6308L90.9915 44.2181L102.436 50.8164L91.2219 50.833Z" fill="black"/>
</g>
<defs>
<clipPath id="clip0_1191_1944">
<rect width="157" height="144" fill="white"/>
</clipPath>
</defs>
</svg>
