<svg width="283" height="174" viewBox="0 0 283 174" fill="none" xmlns="http://www.w3.org/2000/svg">
<g clip-path="url(#clip0_78_511)">
<path d="M216.671 172.032C213.048 168.884 210.848 163.91 211.425 159.068C212.002 154.226 215.577 149.775 220.213 148.747C224.85 147.719 230.136 150.565 231.544 155.223C232.32 146.242 233.213 136.885 237.856 129.237C242.06 122.312 249.341 117.357 257.233 116.47C265.124 115.584 273.433 118.932 278.354 125.338C283.276 131.743 284.481 141.056 281.034 148.41C278.495 153.827 273.817 157.859 268.915 161.139C253.076 171.649 234.079 175.923 215.42 173.174L216.671 172.032Z" fill="#F2F2F2"/>
<path d="M270.551 119.118C264.039 124.572 258.066 130.672 252.716 137.33C244.345 147.714 237.57 159.356 232.629 171.851C232.267 172.763 233.707 173.16 234.064 172.258C242.149 151.951 255.055 134.053 271.603 120.2C272.346 119.578 271.288 118.501 270.551 119.118Z" fill="white"/>
<path d="M91.1023 171.177C96.0787 166.852 99.1014 160.021 98.3087 153.371C97.516 146.72 92.6062 140.607 86.2374 139.194C79.8687 137.782 72.6087 141.691 70.6743 148.089C69.6097 135.754 68.383 122.902 62.0059 112.398C56.2317 102.886 46.2306 96.0802 35.3916 94.8626C24.5527 93.645 13.1407 98.2437 6.38086 107.042C-0.378991 115.84 -2.03411 128.63 2.70031 138.731C6.18799 146.172 12.6135 151.71 19.3459 156.215C40.8245 170.588 67.4686 176.582 92.8209 172.745" fill="#F2F2F2"/>
<path d="M17.0993 98.4986C26.0428 105.99 34.2474 114.369 41.5947 123.513C48.9431 132.648 55.4125 142.495 60.9122 152.915C63.9863 158.76 66.7478 164.773 69.1844 170.928C69.6812 172.18 67.7043 172.725 67.2131 171.487C62.8972 160.636 57.5577 150.247 51.271 140.467C45.015 130.723 37.8545 121.626 29.8903 113.304C25.3857 108.6 20.633 104.153 15.6537 99.9852C14.6331 99.1305 16.0871 97.6509 17.0993 98.4986L17.0993 98.4986Z" fill="white"/>
<path d="M203.142 173.619H84.4121V48.339C84.4121 21.6848 105.498 0 131.416 0H156.138C182.056 0 203.142 21.6848 203.142 48.339V173.619Z" fill="#F2F2F2"/>
<path d="M178.42 173.619H84.4121V48.339C84.3861 38.1257 87.5309 28.1705 93.3886 19.9229C93.6045 19.6202 93.8199 19.3215 94.042 19.026C96.8753 15.2044 100.247 11.8388 104.046 9.04019C104.261 8.87962 104.476 8.72184 104.695 8.56405C107.873 6.30179 111.312 4.45243 114.932 3.05808C115.147 2.97429 115.366 2.89033 115.585 2.80979C118.859 1.6082 122.253 0.785116 125.704 0.355736C125.918 0.325679 126.138 0.302159 126.357 0.278638C129.72 -0.0911704 133.112 -0.0911704 136.476 0.278638C136.695 0.302159 136.914 0.325676 137.131 0.356058C140.581 0.785466 143.974 1.60845 147.247 2.80981C147.466 2.89034 147.685 2.9743 147.901 3.05825C151.476 4.43502 154.874 6.25677 158.019 8.48287C158.238 8.63723 158.456 8.79502 158.672 8.95281C160.801 10.516 162.801 12.2574 164.652 14.1594C166.136 15.685 167.519 17.3111 168.791 19.027C169.012 19.3215 169.228 19.6203 169.443 19.9224C175.301 28.1701 178.446 38.1255 178.42 48.339V173.619Z" fill="#CCCCCC"/>
<path d="M170.776 117.586C173.65 117.586 175.98 115.19 175.98 112.234C175.98 109.277 173.65 106.881 170.776 106.881C167.901 106.881 165.571 109.277 165.571 112.234C165.571 115.19 167.901 117.586 170.776 117.586Z" fill="#E84118"/>
<path d="M193.416 169.867H189.428L187.53 154.048L193.416 154.048L193.416 169.867Z" fill="#FFB8B8"/>
<path d="M186.579 168.695H194.27V173.675H181.736C181.736 173.021 181.862 172.373 182.105 171.769C182.348 171.165 182.705 170.616 183.155 170.153C183.604 169.691 184.138 169.324 184.726 169.074C185.313 168.824 185.943 168.695 186.579 168.695Z" fill="#2F2E41"/>
<path d="M213.258 169.867H209.27L207.373 154.048L213.259 154.048L213.258 169.867Z" fill="#FFB8B8"/>
<path d="M206.421 168.695H214.112V173.675H201.579C201.579 173.021 201.704 172.373 201.948 171.769C202.191 171.165 202.548 170.616 202.997 170.153C203.447 169.691 203.981 169.324 204.568 169.074C205.156 168.824 205.785 168.695 206.421 168.695Z" fill="#2F2E41"/>
<path d="M173.41 113.294C173.123 112.859 172.932 112.365 172.851 111.846C172.77 111.328 172.8 110.797 172.94 110.292C173.08 109.786 173.326 109.319 173.661 108.922C173.995 108.525 174.411 108.208 174.877 107.994L188.434 69.5681L195.104 73.3119L179.626 110.033C179.924 110.863 179.915 111.776 179.602 112.6C179.289 113.424 178.692 114.101 177.926 114.503C177.16 114.905 176.277 115.004 175.445 114.781C174.612 114.558 173.888 114.029 173.41 113.294Z" fill="#FFB8B8"/>
<path d="M211.221 120.514C210.778 120.253 210.396 119.895 210.102 119.465C209.808 119.036 209.609 118.545 209.519 118.028C209.429 117.511 209.451 116.979 209.582 116.472C209.714 115.964 209.952 115.492 210.28 115.089L206.08 74.4413L213.672 74.798L215.417 114.781C216.038 115.392 216.42 116.217 216.49 117.099C216.56 117.98 216.313 118.858 215.795 119.564C215.278 120.271 214.527 120.758 213.684 120.933C212.841 121.108 211.964 120.959 211.221 120.514Z" fill="#FFB8B8"/>
<path d="M199.11 62.4506C203.523 62.4506 207.1 58.772 207.1 54.2343C207.1 49.6965 203.523 46.0179 199.11 46.0179C194.698 46.0179 191.121 49.6965 191.121 54.2343C191.121 58.772 194.698 62.4506 199.11 62.4506Z" fill="#FFB8B8"/>
<path d="M211.17 111.27H187.083L187.112 111.077C187.156 110.789 191.405 82.1608 188.271 72.7951C187.956 71.8747 187.984 70.8672 188.349 69.9665C188.713 69.0659 189.389 68.3357 190.245 67.9165H190.245C194.725 65.747 203.324 63.0755 210.582 69.5588C211.65 70.5285 212.484 71.7405 213.018 73.0988C213.552 74.4572 213.772 75.9247 213.659 77.3854L211.17 111.27Z" fill="#E84118"/>
<path d="M191.71 86.3916L180.866 84.1291L185.949 71.7417C186.253 70.5419 187.007 69.5152 188.047 68.8867C189.086 68.2582 190.325 68.0793 191.493 68.3893C192.66 68.6992 193.66 69.4726 194.274 70.5399C194.887 71.6072 195.064 72.8813 194.766 74.0825L191.71 86.3916Z" fill="#E84118"/>
<path d="M205.598 90.5924L204.946 75.2238C204.452 72.3348 206.06 69.6037 208.533 69.1573C211.007 68.7125 213.423 70.7162 213.919 73.6265L216.37 87.9869L205.598 90.5924Z" fill="#E84118"/>
<path d="M210.369 109.43C214.244 124.609 214.667 143.909 213.621 164.961L208.417 164.292L198.984 124.149L193.779 164.961L187.924 164.627C186.175 142.538 184.471 123.575 187.273 111.102L210.369 109.43Z" fill="#2F2E41"/>
<path d="M204.375 60.584C202.884 62.2168 200.116 61.3403 199.922 59.1097C199.907 58.9365 199.908 58.7623 199.925 58.5893C200.025 57.6013 200.58 56.7042 200.448 55.661C200.417 55.4013 200.323 55.1539 200.174 54.9421C198.987 53.3065 196.198 55.6737 195.078 54.193C194.39 53.2851 195.198 51.8556 194.671 50.8409C193.975 49.5016 191.913 50.1623 190.62 49.4288C189.181 48.6127 189.267 46.3427 190.214 44.962C191.369 43.2781 193.394 42.3796 195.394 42.2501C197.394 42.1206 199.379 42.6765 201.246 43.4248C203.368 44.2749 205.471 45.4498 206.777 47.368C208.364 49.7007 208.517 52.8368 207.723 55.5645C207.24 57.2238 205.592 59.2507 204.375 60.584Z" fill="#2F2E41"/>
<path d="M273.235 173.834H33.0777C32.9752 173.834 32.8769 173.792 32.8046 173.717C32.7322 173.643 32.6915 173.541 32.6915 173.436C32.6915 173.331 32.7322 173.229 32.8046 173.155C32.8769 173.08 32.9752 173.038 33.0777 173.038H273.235C273.338 173.038 273.436 173.08 273.509 173.155C273.581 173.229 273.622 173.331 273.622 173.436C273.622 173.541 273.581 173.643 273.509 173.717C273.436 173.792 273.338 173.834 273.235 173.834Z" fill="#3F3D56"/>
<path d="M152.56 137.323H110.272C109.716 137.326 109.18 137.102 108.784 136.7C108.387 136.297 108.162 135.75 108.158 135.177V38.1077C108.162 37.5349 108.387 36.9874 108.784 36.585C109.18 36.1827 109.716 35.9585 110.272 35.9616H152.56C153.117 35.9585 153.652 36.1827 154.048 36.585C154.445 36.9874 154.67 37.5349 154.674 38.1077V135.177C154.67 135.75 154.445 136.297 154.048 136.7C153.652 137.102 153.117 137.326 152.56 137.323Z" fill="white"/>
<path d="M154.674 67.3701H108.158V68.0392H154.674V67.3701Z" fill="#CCCCCC"/>
<path d="M154.837 105.543H108.321V106.212H154.837V105.543Z" fill="#CCCCCC"/>
<path d="M123.447 35.9615H122.796V137.658H123.447V35.9615Z" fill="#CCCCCC"/>
<path d="M139.711 35.9615H139.06V137.658H139.711V35.9615Z" fill="#CCCCCC"/>
</g>
<defs>
<clipPath id="clip0_78_511">
<rect width="283" height="174" fill="white"/>
</clipPath>
</defs>
</svg>
