<svg width="214" height="177" viewBox="0 0 214 177" fill="none" xmlns="http://www.w3.org/2000/svg">
<g clip-path="url(#clip0_994_1506)">
<path d="M62.7063 147.938L62.6836 143.881L62.3465 83.673L62.3339 81.42L62.1484 48.2828C59.3641 46.4223 56.4571 44.7772 53.45 43.3604C41.6689 37.8218 27.6608 35.5379 16.0616 41.4907C9.86921 44.7921 5.07844 50.4528 2.64685 57.3415C2.57837 57.5235 2.51521 57.6999 2.4574 57.8762C0.52293 63.734 0.537171 70.096 3.36911 75.5888C8.43874 85.4603 19.7762 89.1062 29.8458 92.5897C39.9101 96.0733 51.0718 101.746 53.5813 112.667C51.4678 109.909 48.7005 107.798 45.564 106.551C42.4275 105.304 39.0349 104.967 35.7348 105.573C32.4347 106.179 29.3462 107.707 26.7866 110C24.2271 112.294 22.2888 115.269 21.171 118.621C20.9869 119.167 20.819 119.718 20.6724 120.275C20.3219 121.614 20.1109 122.989 20.0432 124.377C19.5518 134.964 27.196 144.451 36.266 148.894C44.4675 152.906 53.6719 153.671 62.7406 154.056L62.7063 147.938Z" fill="#F0F0F0"/>
<path d="M62.6837 143.881L62.7064 147.938C60.6756 142.412 57.6107 137.379 53.6967 133.145C49.7828 128.911 45.101 125.563 39.9342 123.303C33.8279 120.698 27.228 119.66 20.6724 120.275C20.8191 119.718 20.987 119.166 21.1711 118.621C23.718 118.428 26.2758 118.469 28.8161 118.743C37.8821 119.723 46.4103 123.774 53.14 130.297C57.0855 134.159 60.3215 138.765 62.6837 143.881Z" fill="white"/>
<path d="M62.3344 81.4199L62.3471 83.673C60.2213 81.4985 57.9285 79.5159 55.4925 77.7458C47.9239 72.2146 39.3741 68.0348 30.6963 64.9056C21.8024 61.6824 12.5703 59.6269 3.20602 58.7852C2.99521 58.7646 2.79992 58.6588 2.66062 58.4896C2.52132 58.3203 2.44869 58.1007 2.45779 57.8762C2.45198 57.6784 2.52005 57.4862 2.64718 57.3415C2.71372 57.274 2.79432 57.2242 2.88243 57.196C2.97053 57.1678 3.06366 57.1621 3.15423 57.1793C4.30957 57.2799 5.4595 57.3918 6.61479 57.5321C16.2005 58.6807 25.6146 61.0901 34.6403 64.7048C43.3522 68.1799 51.9679 72.6659 59.3311 78.7601C60.3676 79.5992 61.3723 80.4839 62.3344 81.4199Z" fill="white"/>
<path d="M12.247 31.3433C14.0184 31.3433 15.4544 29.8187 15.4544 27.9381C15.4544 26.0575 14.0184 24.533 12.247 24.533C10.4756 24.533 9.03955 26.0575 9.03955 27.9381C9.03955 29.8187 10.4756 31.3433 12.247 31.3433Z" fill="#F0F0F0"/>
<path d="M143.737 42.0618H142.821V15.4197C142.821 13.3948 142.445 11.3897 141.715 9.51886C140.986 7.64805 139.916 5.94819 138.567 4.51634C137.218 3.08448 135.617 1.94868 133.855 1.17376C132.093 0.398846 130.204 1.7509e-06 128.297 0H75.1294C71.2773 -4.24332e-06 67.5829 1.62456 64.8591 4.51631C62.1352 7.40806 60.605 11.3301 60.605 15.4197V161.58C60.605 165.67 62.1352 169.592 64.8591 172.484C67.5829 175.375 71.2772 177 75.1293 177H128.297C132.149 177 135.843 175.375 138.567 172.484C141.291 169.592 142.821 165.67 142.821 161.58V61.0261H143.737V42.0618Z" fill="#3F3D56"/>
<path d="M139.73 15.5274V161.474C139.73 161.688 139.725 161.898 139.713 162.109C139.56 165.049 138.353 167.815 136.338 169.839C134.324 171.863 131.656 172.99 128.882 172.989H75.4599C72.6798 172.989 70.0057 171.856 67.99 169.824C65.9744 167.791 64.7713 165.014 64.6293 162.066C64.6193 161.872 64.6143 161.674 64.6143 161.474V15.5274C64.614 12.4733 65.7564 9.54418 67.7904 7.38435C69.8243 5.22452 72.5831 4.01091 75.4599 4.0105H81.9427C81.6235 4.84117 81.5016 5.74241 81.5877 6.63486C81.6738 7.52732 81.9653 8.3836 82.4365 9.12831C82.9078 9.87301 83.5442 10.4833 84.2899 10.9054C85.0355 11.3275 85.8675 11.5485 86.7125 11.5489H117.172C118.017 11.5484 118.849 11.3274 119.595 10.9053C120.341 10.4831 120.977 9.87286 121.448 9.12817C121.919 8.38348 122.211 7.52723 122.297 6.6348C122.383 5.74238 122.261 4.84116 121.942 4.0105H128.882C131.759 4.0108 134.518 5.22429 136.553 7.38407C138.587 9.54384 139.73 12.473 139.73 15.5274Z" fill="white"/>
<path d="M138.744 125.596H65.5991C65.3422 125.595 65.0958 125.487 64.9141 125.294C64.7324 125.101 64.6302 124.84 64.6299 124.567V29.2972C64.6302 29.0245 64.7324 28.763 64.9141 28.5701C65.0958 28.3772 65.3422 28.2687 65.5991 28.2684H138.744C139.001 28.2687 139.247 28.3772 139.429 28.5701C139.61 28.7629 139.713 29.0245 139.713 29.2972V124.567C139.713 124.84 139.61 125.101 139.429 125.294C139.247 125.487 139.001 125.595 138.744 125.596Z" fill="#F0F0F0"/>
<path d="M133.375 34.9161H71.117C70.8599 34.9163 70.6134 35.0248 70.4316 35.2178C70.2498 35.4108 70.1476 35.6725 70.1475 35.9454V104.783C70.1481 105.056 70.2506 105.317 70.4323 105.509C70.6141 105.702 70.8603 105.81 71.117 105.81H133.375C133.632 105.81 133.878 105.702 134.06 105.509C134.242 105.317 134.344 105.056 134.345 104.783V35.9454C134.345 35.6725 134.243 35.4108 134.061 35.2178C133.879 35.0248 133.632 34.9163 133.375 34.9161Z" fill="white"/>
<path d="M70.0371 24.7991C71.4243 24.7991 72.5489 23.6053 72.5489 22.1326C72.5489 20.6599 71.4243 19.466 70.0371 19.466C68.6499 19.466 67.5254 20.6599 67.5254 22.1326C67.5254 23.6053 68.6499 24.7991 70.0371 24.7991Z" fill="#E84118"/>
<path d="M81.9842 109.204C77.6952 101.87 79.1731 92.5013 79.895 83.9031C80.9734 71.0031 80.0004 58.0025 77.0166 45.4451C80.5705 49.6584 82.9155 54.8627 83.775 60.4443C84.483 65.0986 84.1332 69.8872 84.9352 74.5242C86.6551 84.4675 93.581 93.4348 92.5091 103.48C92.2722 105.7 91.4752 108.089 89.6183 109.141C87.5223 110.328 84.9639 109.384 82.7653 108.428" fill="#F0F0F0"/>
<path d="M74.7457 112.248C74.276 111.747 73.638 111.464 72.9721 111.463C72.3062 111.461 71.667 111.74 71.1949 112.239C70.7229 112.737 70.4568 113.414 70.4551 114.121C70.4534 114.828 70.7163 115.507 71.186 116.008L71.1946 116.017L74.7457 119.787L78.2966 116.017C78.7654 115.517 79.0282 114.84 79.0272 114.134C79.0263 113.428 78.7618 112.752 78.2917 112.253C77.8216 111.754 77.1843 111.473 76.5196 111.472C75.8548 111.471 75.2169 111.75 74.7457 112.248Z" fill="#E84118"/>
<path d="M85.7974 112.248C85.3277 111.747 84.6898 111.464 84.0239 111.463C83.358 111.461 82.7187 111.74 82.2467 112.239C81.7746 112.737 81.5085 113.414 81.5068 114.121C81.5052 114.828 81.7681 115.507 82.2378 116.008L82.2464 116.017L85.7974 119.787L89.3484 116.017C89.8172 115.517 90.0799 114.84 90.079 114.134C90.0781 113.428 89.8136 112.752 89.3435 112.253C88.8734 111.754 88.2361 111.473 87.5713 111.472C86.9066 111.471 86.2686 111.75 85.7974 112.248Z" fill="#E84118"/>
<path d="M96.8492 112.248C96.3795 111.747 95.7415 111.464 95.0756 111.463C94.4098 111.461 93.7705 111.74 93.2984 112.239C92.8264 112.737 92.5603 113.414 92.5586 114.121C92.5569 114.828 92.8199 115.507 93.2895 116.008L93.2982 116.017L96.8492 119.787L100.4 116.017C100.869 115.517 101.132 114.84 101.131 114.134C101.13 113.428 100.865 112.752 100.395 112.253C99.9252 111.754 99.2879 111.473 98.6231 111.472C97.9584 111.471 97.3204 111.75 96.8492 112.248Z" fill="#E84118"/>
<path d="M116.37 24.2238H80.9511C80.6964 24.2241 80.4441 24.1711 80.2087 24.0678C79.9733 23.9646 79.7594 23.8131 79.5792 23.622C79.399 23.4309 79.256 23.2039 79.1585 22.9541C79.0609 22.7043 79.0107 22.4366 79.0107 22.1662C79.0107 21.8958 79.0609 21.628 79.1585 21.3782C79.256 21.1284 79.399 20.9015 79.5792 20.7104C79.7594 20.5193 79.9733 20.3677 80.2087 20.2645C80.4441 20.1612 80.6964 20.1082 80.9511 20.1085H116.37C116.625 20.1082 116.877 20.1612 117.113 20.2645C117.348 20.3677 117.562 20.5193 117.742 20.7104C117.922 20.9015 118.065 21.1284 118.163 21.3782C118.26 21.628 118.311 21.8958 118.311 22.1662C118.311 22.4366 118.26 22.7043 118.163 22.9541C118.065 23.2039 117.922 23.4309 117.742 23.622C117.562 23.8131 117.348 23.9646 117.113 24.0678C116.877 24.1711 116.625 24.2241 116.37 24.2238Z" fill="#E84118"/>
<path d="M138.743 143.464H65.5989C65.3418 143.464 65.0953 143.573 64.9135 143.766C64.7317 143.959 64.6295 144.221 64.6294 144.494V162.066C64.7713 165.014 65.9744 167.791 67.9901 169.824C70.0057 171.856 72.6798 172.989 75.4599 172.989H128.882C131.656 172.99 134.324 171.863 136.339 169.839C138.353 167.815 139.561 165.049 139.713 162.109V144.494C139.713 144.221 139.61 143.959 139.429 143.766C139.247 143.573 139 143.464 138.743 143.464Z" fill="#F0F0F0"/>
<path d="M133.375 150.112H71.117C70.8599 150.112 70.6134 150.221 70.4316 150.414C70.2498 150.607 70.1476 150.868 70.1475 151.141V171.514C71.7688 172.484 73.5988 172.992 75.4598 172.989H128.882C130.802 172.991 132.687 172.451 134.345 171.423V151.141C134.345 150.868 134.243 150.607 134.061 150.414C133.879 150.221 133.632 150.112 133.375 150.112Z" fill="white"/>
<path d="M70.0371 139.995C71.4243 139.995 72.5489 138.801 72.5489 137.329C72.5489 135.856 71.4243 134.662 70.0371 134.662C68.6499 134.662 67.5254 135.856 67.5254 137.329C67.5254 138.801 68.6499 139.995 70.0371 139.995Z" fill="#E4E4E4"/>
<path d="M116.37 139.42H80.9511C80.6964 139.42 80.4441 139.367 80.2087 139.264C79.9733 139.161 79.7594 139.009 79.5792 138.818C79.399 138.627 79.256 138.4 79.1585 138.15C79.0609 137.9 79.0107 137.633 79.0107 137.362C79.0107 137.092 79.0609 136.824 79.1585 136.574C79.256 136.324 79.399 136.097 79.5792 135.906C79.7594 135.715 79.9733 135.564 80.2087 135.46C80.4441 135.357 80.6964 135.304 80.9511 135.305H116.37C116.625 135.304 116.877 135.357 117.113 135.46C117.348 135.564 117.562 135.715 117.742 135.906C117.922 136.097 118.065 136.324 118.163 136.574C118.26 136.824 118.311 137.092 118.311 137.362C118.311 137.633 118.26 137.9 118.163 138.15C118.065 138.4 117.922 138.627 117.742 138.818C117.562 139.009 117.348 139.161 117.113 139.264C116.877 139.367 116.625 139.42 116.37 139.42Z" fill="#E4E4E4"/>
<path d="M96.3497 172.989H77.9463C79.82 169.074 83.2787 165.885 87.3553 165.717C87.9696 165.693 88.5845 165.741 89.1888 165.861C89.4424 165.909 89.6911 165.973 89.9398 166.042C91.5035 166.469 92.9273 167.342 94.0571 168.567C95.1869 169.791 95.9797 171.32 96.3497 172.989Z" fill="#F2F2F2"/>
<path d="M125.785 172.989H100.795C101.179 171.771 101.505 170.534 101.773 169.282C102.895 164.133 104.038 158.352 108.18 155.424C110.486 153.792 113.291 153.525 115.951 154.245C116.032 154.267 116.115 154.291 116.195 154.317C119.332 155.241 122.025 157.389 123.735 160.33C125.853 164.101 126.325 168.586 125.785 172.989Z" fill="#F2F2F2"/>
<path d="M90.1987 169.845C90.1867 170.898 90.0985 171.949 89.935 172.989H89.2166C89.5942 170.629 89.5849 168.217 89.189 165.861C89.4426 165.909 89.6913 165.973 89.94 166.042C90.1304 167.299 90.2169 168.572 90.1987 169.845Z" fill="white"/>
<path d="M116.288 154.563C116.29 155.139 116.288 155.717 116.273 156.296C116.162 161.106 115.487 165.883 114.263 170.517C114.047 171.343 113.814 172.167 113.563 172.989H112.824C113.276 171.527 113.671 170.047 114.012 168.565C115.069 164.014 115.595 159.343 115.58 154.656C115.58 154.55 115.619 154.448 115.688 154.372C115.757 154.295 115.852 154.25 115.951 154.245C116.038 154.235 116.126 154.261 116.195 154.317C116.227 154.348 116.253 154.386 116.269 154.428C116.285 154.471 116.292 154.517 116.288 154.563Z" fill="white"/>
<path d="M129.553 159.479C130.386 159.479 131.06 158.762 131.06 157.879C131.06 156.995 130.386 156.279 129.553 156.279C128.721 156.279 128.046 156.995 128.046 157.879C128.046 158.762 128.721 159.479 129.553 159.479Z" fill="#F2F2F2"/>
<path d="M93.4299 42.7179C94.2622 42.7179 94.9369 42.0016 94.9369 41.1179C94.9369 40.2343 94.2622 39.518 93.4299 39.518C92.5976 39.518 91.9229 40.2343 91.9229 41.1179C91.9229 42.0016 92.5976 42.7179 93.4299 42.7179Z" fill="#E84118"/>
<path d="M121.31 52.0509C122.143 52.0509 122.817 51.3346 122.817 50.451C122.817 49.5673 122.143 48.851 121.31 48.851C120.478 48.851 119.803 49.5673 119.803 50.451C119.803 51.3346 120.478 52.0509 121.31 52.0509Z" fill="#E4E4E4"/>
<path d="M120.556 84.5831C121.389 84.5831 122.063 83.8667 122.063 82.9831C122.063 82.0995 121.389 81.3832 120.556 81.3832C119.724 81.3832 119.049 82.0995 119.049 82.9831C119.049 83.8667 119.724 84.5831 120.556 84.5831Z" fill="#E4E4E4"/>
<path d="M113.887 99.8312L112.867 96.3646C112.692 95.5579 112.469 94.7635 112.201 93.9861C111.051 90.2955 108.524 82.8531 105.548 75.0774L102.046 71.3602L101.077 70.6882L100.16 70.0562L99.7656 70.4429L96.0056 74.1281L95.978 74.3707L93.5215 96.5353C93.5215 96.5353 93.514 96.5966 93.5014 96.7166C93.4738 96.9753 93.416 97.5032 93.3407 98.2579C93.1975 99.6765 92.9664 102.154 92.7378 105.276H115.487L113.887 99.8312Z" fill="#3F3D56"/>
<path opacity="0.2" d="M97.7657 84.0669L96.811 90.3907L103.272 93.2199L97.7657 84.0669Z" fill="black"/>
<path d="M109.333 55.7714C108.159 54.4101 106.625 53.4573 104.932 53.0378C103.239 52.6183 101.466 52.7517 99.8457 53.4206C98.2253 54.0894 96.8332 55.2625 95.8517 56.7859C94.8702 58.3094 94.3453 60.1121 94.3457 61.9578V68.7923C94.3458 69.1189 94.4681 69.4322 94.6857 69.6632C94.9033 69.8942 95.1983 70.0241 95.506 70.0242H110.443C110.751 70.0235 111.045 69.8934 111.262 69.6625C111.479 69.4315 111.601 69.1185 111.601 68.7923V61.9578C111.602 59.6668 110.793 57.4589 109.333 55.7714Z" fill="#2F2E41"/>
<path d="M104.623 69.6113C108.117 69.6113 110.948 66.6048 110.948 62.896C110.948 59.1873 108.117 56.1808 104.623 56.1808C101.13 56.1808 98.2979 59.1873 98.2979 62.896C98.2979 66.6048 101.13 69.6113 104.623 69.6113Z" fill="#FFB8B8"/>
<path d="M109.333 55.7714C108.534 55.4322 107.68 55.2584 106.819 55.2594H105.53C104.445 55.2595 103.376 55.5347 102.412 56.0621C101.447 56.5894 100.615 57.3537 99.9845 58.2913C99.9418 58.35 99.9042 58.4113 99.8664 58.47C99.1082 59.6613 98.704 61.0667 98.7061 62.5045V62.6405H101.426L102.356 59.8806L102.541 62.6405H103.948L104.415 61.2485L104.508 62.6405C107.45 63.7946 110.501 63.7206 113.643 62.6405V62.5045C113.642 61.0532 113.23 59.6358 112.462 58.4354C111.694 57.2351 110.604 56.3071 109.333 55.7714Z" fill="#2F2E41"/>
<path d="M105.48 69.5495C105.474 69.5339 105.468 69.5188 105.46 69.5042C104.609 67.7816 103.541 65.1444 103.481 62.6404C103.446 61.1445 103.772 59.6939 104.722 58.5179L104.902 58.2913H97.5405V70.0269L99.7659 70.4428L101.077 70.6882L104.229 71.2801C104.297 71.293 104.366 71.2992 104.435 71.2988C104.618 71.2986 104.797 71.2526 104.96 71.1646C105.122 71.0765 105.263 70.9489 105.37 70.7922C105.524 70.5709 105.603 70.2996 105.591 70.0242C105.586 69.8594 105.548 69.6976 105.48 69.5495Z" fill="#2F2E41"/>
<path opacity="0.2" d="M93.6753 96.2269C95.3588 98.2964 97.6422 99.7133 100.167 100.255C102.691 100.797 105.314 100.433 107.622 99.2198L108.999 98.4964L93.6753 96.2269Z" fill="black"/>
<path d="M165.009 116.447C165.03 115.986 165.145 115.535 165.348 115.127C165.55 114.718 165.834 114.362 166.18 114.083C166.527 113.804 166.926 113.608 167.351 113.511C167.776 113.413 168.216 113.416 168.64 113.518L172.572 107.635L176.523 109.3L170.859 117.526C170.65 118.27 170.191 118.907 169.568 119.316C168.946 119.725 168.204 119.878 167.483 119.745C166.762 119.612 166.112 119.203 165.656 118.595C165.2 117.987 164.97 117.223 165.009 116.447Z" fill="#A0616A"/>
<path d="M169.323 111.387L176.315 98.9036L173.466 90.8393L177.346 79.8557L177.489 79.9208C177.583 79.9635 179.787 81.0078 180.114 84.7477L184.572 99.6233L172.674 116.011L169.323 111.387Z" fill="#3F3D56"/>
<path d="M131.351 65.4931C131.782 65.5505 132.197 65.7076 132.565 65.9534C132.933 66.1992 133.245 66.5276 133.481 66.9156C133.716 67.3035 133.869 67.7416 133.927 68.1989C133.986 68.6561 133.95 69.1215 133.821 69.5623L139.042 74.1794L137.173 78.2322L129.886 71.602C129.203 71.3228 128.64 70.7874 128.304 70.0971C127.968 69.4068 127.882 68.6096 128.063 67.8566C128.243 67.1036 128.678 66.4471 129.284 66.0115C129.89 65.5759 130.625 65.3914 131.351 65.4931Z" fill="#A0616A"/>
<path d="M135.769 70.4503L146.952 78.8158L154.746 76.4243L164.761 81.3799L164.689 81.5263C164.641 81.6223 163.49 83.8748 159.953 83.9315L145.638 87.5004L131.168 73.639L135.769 70.4503Z" fill="#3F3D56"/>
<path d="M156.233 172.18L152.345 172.18L150.495 156.259L156.233 156.26L156.233 172.18Z" fill="#A0616A"/>
<path d="M148.393 171H157.065V176.012H144.847V174.765C144.847 173.767 145.22 172.809 145.885 172.103C146.55 171.397 147.452 171 148.393 171Z" fill="#2F2E41"/>
<path d="M171.771 172.18L167.883 172.18L166.034 156.259L171.772 156.26L171.771 172.18Z" fill="#A0616A"/>
<path d="M163.932 171H172.605V176.012H160.386V174.765C160.386 173.767 160.759 172.809 161.424 172.103C162.09 171.397 162.992 171 163.932 171Z" fill="#2F2E41"/>
<path d="M173.154 114.069L172.837 137.636L172.519 168.609L165.543 167.936L162.055 125.179L157.615 167.936H150.412L149.687 124.843L152.224 115.416L173.154 114.069Z" fill="#2F2E41"/>
<path d="M151.529 115.56L150.466 115.511L155.403 86.6386L153.381 77.9118C153.276 77.4578 153.332 76.9786 153.537 76.5651C153.743 76.1516 154.084 75.8325 154.496 75.6682L158.133 74.2204L159.418 70.4691L169.555 71.6288L169.805 74.5606C170.903 74.9346 179.949 78.133 179.325 81.7774C178.709 85.3746 175.072 96.6917 174.887 97.2652L174.25 113.495L174.172 113.537C174.077 113.587 167.09 117.235 159.499 117.234C156.826 117.234 154.076 116.781 151.529 115.56Z" fill="#3F3D56"/>
<path d="M170.494 64.5805C172.427 60.8253 171.127 56.1171 167.59 54.0643C164.053 52.0115 159.618 53.3916 157.685 57.1468C155.751 60.902 157.051 65.6103 160.588 67.663C164.125 69.7158 168.56 68.3357 170.494 64.5805Z" fill="#A0616A"/>
<path d="M170.002 68.3649C168.611 69.938 166.028 69.0935 165.846 66.9445C165.832 66.7777 165.833 66.6097 165.849 66.4431C165.943 65.4912 166.461 64.6269 166.337 63.6218C166.309 63.3717 166.221 63.1333 166.082 62.9292C164.973 61.3534 162.371 63.6341 161.325 62.2075C160.684 61.3328 161.438 59.9556 160.946 58.9779C160.296 57.6875 158.371 58.3241 157.165 57.6174C155.822 56.8312 155.902 54.6441 156.786 53.3138C157.864 51.6915 159.754 50.8258 161.62 50.7011C163.487 50.5763 165.34 51.1119 167.082 51.8328C169.062 52.6519 171.025 53.7839 172.244 55.6319C173.725 57.8794 173.868 60.9009 173.127 63.5288C172.676 65.1275 171.138 67.0803 170.002 68.3649Z" fill="#2F2E41"/>
<path d="M213.749 176.527H0.251174C0.184558 176.527 0.120671 176.499 0.0735669 176.449C0.0264627 176.399 0 176.331 0 176.26C0 176.19 0.0264627 176.122 0.0735669 176.072C0.120671 176.022 0.184558 175.994 0.251174 175.994H213.749C213.815 175.994 213.879 176.022 213.926 176.072C213.974 176.122 214 176.19 214 176.26C214 176.331 213.974 176.399 213.926 176.449C213.879 176.499 213.815 176.527 213.749 176.527Z" fill="#3F3D56"/>
<path d="M117.049 99.2075H113.137C113.011 99.2079 112.89 99.1585 112.797 99.069C112.704 98.9795 112.646 98.8563 112.635 98.7237L111.852 90.2036H118.334L117.551 98.7235C117.539 98.8562 117.481 98.9794 117.388 99.069C117.295 99.1585 117.174 99.2079 117.049 99.2075Z" fill="#E84118"/>
<path d="M118.324 91.2754H111.862C111.728 91.2752 111.6 91.2187 111.505 91.1182C111.41 91.0178 111.357 90.8815 111.357 90.7395V89.4532C111.357 89.3111 111.41 89.1749 111.505 89.0744C111.6 88.9739 111.728 88.9174 111.862 88.9172H118.324C118.457 88.9174 118.586 88.9739 118.68 89.0744C118.775 89.1749 118.828 89.3111 118.828 89.4532V90.7395C118.828 90.8815 118.775 91.0178 118.68 91.1182C118.586 91.2187 118.457 91.2752 118.324 91.2754Z" fill="#3F3D56"/>
<path d="M115.686 94.6811C115.404 94.3446 115.055 94.0778 114.666 93.8996C114.276 93.7214 113.854 93.6361 113.43 93.6497C113.006 93.6633 112.589 93.7755 112.21 93.9783C111.832 94.1812 111.499 94.4697 111.237 94.8237L104.85 92.9203L102.814 96.7585L111.869 99.312C112.458 99.7408 113.175 99.9251 113.884 99.8301C114.593 99.7351 115.244 99.3674 115.715 98.7965C116.185 98.2257 116.442 97.4915 116.437 96.733C116.431 95.9745 116.164 95.2444 115.686 94.6811Z" fill="#FFB8B8"/>
<path d="M105.302 92.5994L102.27 90.5488L101.406 90.1168L97.5001 88.1622C97.6157 87.7409 97.9473 86.4823 98.2612 84.8877C98.9947 81.1571 99.6201 75.5867 97.0958 74.6107C96.7379 74.4672 96.3604 74.3861 95.9781 74.3707C95.4665 74.3509 94.9589 74.4741 94.5062 74.728C92.6149 75.776 91.8638 78.7252 91.8362 78.8346L89.4978 85.6477C89.2818 85.9623 87.0589 89.2315 87.4181 91.6528C87.4633 92.0006 87.5759 92.3346 87.7488 92.6339C87.9217 92.9331 88.1512 93.1911 88.4228 93.3914C90.0413 94.6229 91.7383 95.734 93.5015 96.7166C93.9108 96.9406 94.3111 97.1477 94.7021 97.3379C96.8923 98.3992 98.8238 98.9405 100.446 98.9405C100.977 98.945 101.506 98.8796 102.021 98.7459L108.323 98.5939L108.363 98.4019L108.378 98.3272L109.215 94.2207L109.451 93.0581L105.302 92.5994Z" fill="#3F3D56"/>
</g>
<defs>
<clipPath id="clip0_994_1506">
<rect width="214" height="177" fill="white"/>
</clipPath>
</defs>
</svg>
