<svg width="16" height="16" viewBox="0 0 16 16" fill="none" xmlns="http://www.w3.org/2000/svg">
<mask id="mask0_1264_2243" style="mask-type:alpha" maskUnits="userSpaceOnUse" x="0" y="0" width="16" height="16">
<rect width="16" height="16" fill="#D9D9D9"/>
</mask>
<g mask="url(#mask0_1264_2243)">
<path d="M14.0167 7.36667V12.6667C14.0167 13.0333 13.8863 13.3473 13.6254 13.6087C13.3641 13.8696 13.0501 14 12.6834 14H3.35006C2.98339 14 2.66962 13.8696 2.40873 13.6087C2.14739 13.3473 2.01673 13.0333 2.01673 12.6667V7.36667C1.76117 7.13333 1.56406 6.83333 1.42539 6.46667C1.28628 6.1 1.28339 5.7 1.41673 5.26667L2.11673 3C2.20562 2.71111 2.36406 2.47222 2.59206 2.28333C2.81962 2.09444 3.08339 2 3.38339 2H12.6501C12.9501 2 13.2112 2.09156 13.4334 2.27467C13.6556 2.45822 13.8167 2.7 13.9167 3L14.6167 5.26667C14.7501 5.7 14.7474 6.09444 14.6087 6.45C14.4696 6.80556 14.2723 7.11111 14.0167 7.36667ZM9.48339 6.66667C9.78339 6.66667 10.0112 6.56378 10.1667 6.358C10.3223 6.15267 10.3834 5.92222 10.3501 5.66667L9.98339 3.33333H8.68339V5.8C8.68339 6.03333 8.76117 6.23622 8.91673 6.40867C9.07228 6.58067 9.26117 6.66667 9.48339 6.66667ZM6.48339 6.66667C6.73895 6.66667 6.94739 6.58067 7.10873 6.40867C7.26962 6.23622 7.35006 6.03333 7.35006 5.8V3.33333H6.05006L5.68339 5.66667C5.63895 5.93333 5.69739 6.16667 5.85873 6.36667C6.01962 6.56667 6.22784 6.66667 6.48339 6.66667ZM3.51673 6.66667C3.71673 6.66667 3.89162 6.59444 4.04139 6.45C4.19162 6.30556 4.28339 6.12222 4.31673 5.9L4.68339 3.33333H3.38339L2.71673 5.56667C2.65006 5.78889 2.68606 6.02778 2.82473 6.28333C2.96384 6.53889 3.1945 6.66667 3.51673 6.66667ZM12.5167 6.66667C12.8389 6.66667 13.0723 6.53889 13.2167 6.28333C13.3612 6.02778 13.3945 5.78889 13.3167 5.56667L12.6167 3.33333H11.3501L11.7167 5.9C11.7501 6.12222 11.8418 6.30556 11.9921 6.45C12.1418 6.59444 12.3167 6.66667 12.5167 6.66667ZM3.35006 12.6667H12.6834V7.96667C12.6278 7.98889 12.5918 8 12.5754 8C12.5585 8 12.5389 8 12.5167 8C12.2167 8 11.9527 7.95 11.7247 7.85C11.4972 7.75 11.2723 7.58889 11.0501 7.36667C10.8501 7.56667 10.6223 7.72222 10.3667 7.83333C10.1112 7.94444 9.83895 8 9.55006 8C9.25006 8 8.96939 7.94444 8.70806 7.83333C8.44717 7.72222 8.21673 7.56667 8.01673 7.36667C7.82784 7.56667 7.6085 7.72222 7.35873 7.83333C7.1085 7.94444 6.83895 8 6.55006 8C6.22784 8 5.93606 7.94444 5.67473 7.83333C5.41384 7.72222 5.18339 7.56667 4.98339 7.36667C4.75006 7.6 4.51962 7.76378 4.29206 7.858C4.06406 7.95267 3.80562 8 3.51673 8C3.4945 8 3.46962 8 3.44206 8C3.41406 8 3.38339 7.98889 3.35006 7.96667V12.6667ZM12.6834 12.6667H3.35006C3.38339 12.6667 3.41406 12.6667 3.44206 12.6667C3.46962 12.6667 3.4945 12.6667 3.51673 12.6667C3.80562 12.6667 4.06406 12.6667 4.29206 12.6667C4.51962 12.6667 4.75006 12.6667 4.98339 12.6667C5.08339 12.6667 5.19184 12.6667 5.30873 12.6667C5.42517 12.6667 5.55006 12.6667 5.68339 12.6667C5.81673 12.6667 5.95562 12.6667 6.10006 12.6667C6.2445 12.6667 6.3945 12.6667 6.55006 12.6667C6.6945 12.6667 6.83339 12.6667 6.96673 12.6667C7.10006 12.6667 7.23073 12.6667 7.35873 12.6667C7.48628 12.6667 7.60562 12.6667 7.71673 12.6667C7.82784 12.6667 7.92784 12.6667 8.01673 12.6667C8.21673 12.6667 8.44717 12.6667 8.70806 12.6667C8.96939 12.6667 9.25006 12.6667 9.55006 12.6667C9.6945 12.6667 9.83339 12.6667 9.96673 12.6667C10.1001 12.6667 10.2307 12.6667 10.3587 12.6667C10.4863 12.6667 10.6085 12.6667 10.7254 12.6667C10.8418 12.6667 10.9501 12.6667 11.0501 12.6667C11.2723 12.6667 11.4972 12.6667 11.7247 12.6667C11.9527 12.6667 12.2167 12.6667 12.5167 12.6667C12.5389 12.6667 12.5585 12.6667 12.5754 12.6667C12.5918 12.6667 12.6278 12.6667 12.6834 12.6667Z" fill="#4290BB"/>
</g>
</svg>
