<svg width="30" height="30" viewBox="0 0 30 30" fill="none" xmlns="http://www.w3.org/2000/svg">
<path d="M7.5 3.75C5.44379 3.75 3.75 5.44379 3.75 7.5V22.5C3.75 24.5562 5.44379 26.25 7.5 26.25H22.5C24.5562 26.25 26.25 24.5562 26.25 22.5V7.5C26.25 5.44379 24.5562 3.75 22.5 3.75H7.5ZM7.5 6.25H22.5C23.2063 6.25 23.75 6.79371 23.75 7.5V22.5C23.75 23.2063 23.2063 23.75 22.5 23.75H7.5C6.79371 23.75 6.25 23.2063 6.25 22.5V7.5C6.25 6.79371 6.79371 6.25 7.5 6.25ZM15 8.75V17.5C15 18.2063 14.4563 18.75 13.75 18.75C13.0437 18.75 12.5 18.2063 12.5 17.5C12.5 16.7937 13.0437 16.25 13.75 16.25V13.75C11.6938 13.75 10 15.4438 10 17.5C10 19.5562 11.6938 21.25 13.75 21.25C15.8062 21.25 17.5 19.5562 17.5 17.5V12.7905C18.2702 13.3392 19.0739 13.75 20 13.75V11.25C19.9408 11.25 19.0783 10.9762 18.4766 10.4517C17.8748 9.92715 17.5 9.26874 17.5 8.75H15Z" fill="black"/>
</svg>
