<svg width="30" height="30" viewBox="0 0 30 30" fill="none" xmlns="http://www.w3.org/2000/svg">
<path d="M26.9775 7.7325C26.69 6.6575 25.8425 5.81 24.7675 5.5225C22.8175 5 15 5 15 5C15 5 7.1825 5 5.2325 5.5225C4.1575 5.81 3.31 6.6575 3.0225 7.7325C2.5 9.6825 2.5 15 2.5 15C2.5 15 2.5 20.3175 3.0225 22.2675C3.31 23.3425 4.1575 24.19 5.2325 24.4775C7.1825 25 15 25 15 25C15 25 22.8175 25 24.7675 24.4775C25.8437 24.19 26.69 23.3425 26.9775 22.2675C27.5 20.3175 27.5 15 27.5 15C27.5 15 27.5 9.6825 26.9775 7.7325ZM12.5 18.2475V11.7525C12.5 11.2713 13.0212 10.9713 13.4375 11.2112L19.0625 14.4588C19.4788 14.6988 19.4788 15.3012 19.0625 15.5412L13.4375 18.7887C13.0212 19.03 12.5 18.7287 12.5 18.2475Z" fill="black"/>
</svg>
